<svg width="48" height="12" viewBox="0 0 48 12" fill="none" xmlns="http://www.w3.org/2000/svg">
<path d="M26.152 0.885254C23.2908 0.885254 20.9712 3.2049 20.9712 6.06611C20.9712 8.92732 23.2908 11.247 26.152 11.247C26.9356 11.247 27.6777 11.072 28.3439 10.7605L28.6921 10.9059L31.3329 12.0002V6.06611C31.3337 3.2049 29.0141 0.885254 26.152 0.885254ZM30.0549 10.0568H28.7529V9.05992C28.0611 9.67977 27.1481 10.0568 26.1465 10.0568C23.9882 10.0568 22.238 8.30667 22.238 6.14838C22.238 3.99009 23.9882 2.23998 26.1465 2.23998C28.3047 2.23998 30.0549 3.99009 30.0549 6.14838V10.0568Z" fill="#50535A"/>
<path d="M4.58497 1.52832C2.05285 1.52832 0 3.58117 0 6.11329C0 8.6454 2.05285 10.6983 4.58497 10.6983C5.75997 10.6983 6.83112 10.2557 7.64268 9.52885V10.6983H9.16994V6.11329C9.17073 3.58117 7.11788 1.52832 4.58497 1.52832ZM4.58497 9.171C2.89875 9.171 1.52726 7.7995 1.52726 6.11329C1.52726 4.42707 2.89875 3.05558 4.58497 3.05558C6.27118 3.05558 7.64268 4.42707 7.64268 6.11329C7.64268 7.7995 6.27118 9.171 4.58497 9.171Z" fill="#50535A"/>
<path d="M11.9211 0H10.3931V10.6988H11.9211V0Z" fill="#50535A"/>
<path d="M47.5281 0H46V10.6988H47.5281V0Z" fill="#50535A"/>
<path d="M17.7285 9.17082C16.0423 9.17082 14.6708 7.79932 14.6708 6.11311C14.6708 4.4269 16.0423 3.0554 17.7285 3.0554C18.5712 3.0554 19.3357 3.39807 19.8892 3.95163L20.9707 2.87008C20.1408 2.04016 18.9946 1.52734 17.7285 1.52734C15.1964 1.52734 13.1436 3.58019 13.1436 6.11231C13.1436 8.64443 15.1964 10.6973 17.7285 10.6973C18.9946 10.6973 20.1408 10.1845 20.9707 9.35454L19.8892 8.273C19.3365 8.82815 18.572 9.17082 17.7285 9.17082Z" fill="#50535A"/>
<path d="M34.0845 1.52806V0H32.5557V10.6988H34.0845V3.05691H35.6126V1.52806H34.0845Z" fill="#50535A"/>
<path d="M42.5121 8.10064C41.9522 8.75404 41.1238 9.1702 40.1973 9.1702C38.7762 9.1702 37.5821 8.1941 37.241 6.87772H44.7175C44.7591 6.6293 44.7822 6.37369 44.7822 6.11329C44.7822 3.58117 42.7294 1.52832 40.1973 1.52832C37.6652 1.52832 35.6123 3.58117 35.6123 6.11329C35.6123 8.6454 37.6652 10.6983 40.1973 10.6983C42.0177 10.6983 43.5905 9.63748 44.3309 8.09984H42.5121V8.10064ZM40.1973 3.05718C41.6183 3.05718 42.8125 4.03328 43.1535 5.34966H37.241C37.5821 4.03328 38.7762 3.05718 40.1973 3.05718Z" fill="#50535A"/>
<path d="M26.1468 3.49072C24.681 3.49072 23.4893 4.68249 23.4893 6.14825C23.4893 7.614 24.6818 8.80577 26.1468 8.80577C27.6125 8.80577 28.8043 7.614 28.8043 6.14825C28.8043 4.68249 27.6125 3.49072 26.1468 3.49072Z" fill="#50535A"/>
</svg>
