<svg width="24" height="24" viewBox="0 0 24 24" fill="none" xmlns="http://www.w3.org/2000/svg">
<path d="M9.81623 18.0903C9.32094 18.0903 8.9978 18.3499 8.9978 18.9088C8.9978 19.1763 9.07329 19.3749 9.20572 19.51C9.34742 19.6557 9.55799 19.7272 9.81491 19.7272C10.0745 19.7272 10.285 19.6557 10.4267 19.51C10.5592 19.3749 10.6347 19.1763 10.6347 18.9088C10.6347 18.3499 10.3115 18.0903 9.81623 18.0903Z" fill="#0098D8"/>
<path d="M15.9783 13.5269C13.2608 13.5269 11.9405 12.1959 11.9405 9.45725C11.9405 6.71988 13.2608 5.38894 15.9783 5.38894C18.6932 5.38894 20.0135 6.71988 20.0135 9.45725C20.0135 12.1959 18.6945 13.5269 15.9783 13.5269ZM15.4221 18.4044C15.4221 19.1566 15.2394 19.7128 14.8818 20.0611C14.5348 20.3975 13.9945 20.5683 13.2741 20.5683H6.26048C5.54137 20.5683 4.99972 20.3975 4.65275 20.0611C4.29519 19.7128 4.11375 19.1566 4.11375 18.4057V5.28432C4.11375 4.53343 4.29519 3.97589 4.65275 3.62759C4.99972 3.29121 5.54005 3.12038 6.26048 3.12038H13.2741C14.3693 3.12038 15.0182 3.49516 15.2817 4.29372C13.9852 4.40364 12.9523 4.8261 12.204 5.55183C11.2902 6.43912 10.8267 7.75285 10.8267 9.45592C10.8267 11.1603 11.2902 12.4727 12.204 13.36C12.9788 14.1149 14.0594 14.54 15.4221 14.63V18.4044ZM19.7527 5.55448C18.9581 4.7824 17.8417 4.35332 16.4326 4.27783C16.1042 2.80784 14.9917 2 13.2741 2H6.26048C5.2434 2 4.44086 2.27546 3.88067 2.82108C3.29665 3.39054 3 4.21824 3 5.28432V18.4044C3 19.4718 3.29665 20.3008 3.88067 20.8676C4.44086 21.4145 5.2434 21.69 6.26048 21.69H13.2741C14.2925 21.69 15.0924 21.4145 15.6539 20.8689C16.2379 20.3008 16.5346 19.4718 16.5346 18.4057V14.6314C17.896 14.5413 18.9753 14.1149 19.7527 13.3613C20.6651 12.4741 21.1273 11.1616 21.1273 9.45725C21.1273 7.75417 20.6638 6.44045 19.7527 5.55448Z" fill="#0098D8"/>
<path d="M18.9073 9.45966C18.908 9.60788 18.8498 9.75031 18.7455 9.85561C18.6412 9.96091 18.4993 10.0205 18.3511 10.0212H16.5461V11.8474C16.5468 12.1555 16.298 12.4061 15.9899 12.4076C15.8416 12.4072 15.6996 12.348 15.5951 12.243C15.4905 12.1379 15.432 11.9956 15.4323 11.8474V10.0198H13.6101C13.3019 10.0184 13.0531 9.76779 13.0538 9.45966C13.0538 9.14977 13.3028 8.89814 13.6101 8.89814H15.4323V7.07191C15.4323 6.76334 15.6813 6.51172 15.9899 6.51172C16.2971 6.51172 16.5461 6.76334 16.5461 7.07323V8.90079H18.3498C18.6584 8.90079 18.906 9.15241 18.906 9.46098" fill="#0098D8"/>
</svg>
