<svg width="24" height="24" viewBox="0 0 24 24" fill="none" xmlns="http://www.w3.org/2000/svg">
<g id="call-landline-regular">
<path id="icon" fill-rule="evenodd" clip-rule="evenodd" d="M14.6829 21.1699C15.7501 21.5957 16.7417 21.8086 17.6073 21.8086C18.4308 21.8086 19.1451 21.6153 19.7109 21.2316C19.7193 21.2232 19.7277 21.2176 19.7361 21.212L19.7529 21.2008C19.7588 21.1965 19.7652 21.1918 19.7721 21.1868C19.9226 21.0773 20.3063 20.7981 20.5849 20.5061C21.4168 19.6377 21.8286 18.7498 21.8118 17.873C21.795 17.0243 21.3804 16.1896 20.5765 15.3856C20.2767 15.0803 19.9406 14.817 19.5765 14.5985C18.8818 14.1671 18.1647 14.0103 17.4448 14.1335C16.7249 14.2568 16.0218 14.6573 15.3496 15.3296C15.1899 15.4865 15.0443 15.6517 14.907 15.8254C14.7894 15.8898 14.4168 15.8506 13.6577 15.3296C12.7781 14.7246 11.7389 13.719 11.033 13.0131L10.949 12.9291C10.2431 12.2232 9.23473 11.184 8.63249 10.3044C8.11148 9.5425 8.07227 9.17275 8.13669 9.0551C8.31036 8.91785 8.47563 8.76939 8.63249 8.61252C9.30476 7.94026 9.70532 7.23717 9.82857 6.51729C9.95182 5.7974 9.79495 5.08031 9.36358 4.38563C9.14509 4.01869 8.87899 3.68255 8.57647 3.38563C7.77255 2.58171 6.93501 2.16715 6.08907 2.15034C5.21232 2.13633 4.32437 2.5481 3.45602 3.37723C3.16402 3.65584 2.88482 4.03949 2.77526 4.19005C2.77026 4.19691 2.76562 4.2033 2.76134 4.20916L2.75014 4.22597L2.73333 4.25118C1.93781 5.40244 1.95742 7.18675 2.78655 9.27639C3.6577 11.4585 5.35238 13.8478 7.68851 16.184L7.69411 16.1896L7.76974 16.2624L7.77535 16.268C10.1115 18.6041 12.5008 20.2988 14.6829 21.1699ZM15.0947 20.1307C13.0527 19.3156 10.795 17.7078 8.56806 15.4809L8.52885 15.4417L8.51764 15.4305L8.47843 15.3912C6.25154 13.1643 4.64369 10.9066 3.82857 8.86462C3.1535 7.16715 3.08627 5.72177 3.6465 4.89824L3.67171 4.86462C3.89019 4.5621 4.07787 4.33521 4.22913 4.18956C5.50644 2.96827 6.57087 2.96547 7.78375 4.17835C8.02185 4.40804 8.22633 4.67135 8.3972 4.95426L8.4056 4.97107C8.69411 5.43605 8.79776 5.87863 8.72213 6.32961C8.64089 6.81421 8.34397 7.31561 7.83977 7.81981C7.69972 7.96266 7.55126 8.09432 7.39159 8.21477C7.36918 8.23157 7.34678 8.25118 7.32717 8.27359C7.10868 8.51168 6.88179 8.94026 7.05266 9.61813C7.1479 10.0019 7.36358 10.4333 7.70812 10.9347C8.36358 11.8926 9.4196 12.9823 10.1563 13.719L10.2403 13.803C10.977 14.5397 12.0667 15.5957 13.0218 16.2512C13.5232 16.5957 13.9546 16.8086 14.3384 16.9066C15.0162 17.0803 15.4448 16.8534 15.6829 16.6321C15.7025 16.6125 15.7221 16.5901 15.7417 16.5677C15.8622 16.408 15.9938 16.2596 16.1367 16.1195C16.6409 15.6153 17.1423 15.3184 17.6269 15.2372C18.0751 15.1615 18.5204 15.2652 18.9854 15.5537L19.0022 15.5621C19.2852 15.733 19.5457 15.9375 19.7781 16.1755C20.9938 17.3884 20.991 18.4529 19.7697 19.7302C19.6241 19.8814 19.3972 20.0691 19.0947 20.2876L19.0611 20.31C18.2375 20.8702 16.7922 20.8058 15.0947 20.1307Z" fill="#019DF4"/>
</g>
</svg>
