<svg width="24" height="24" viewBox="0 0 24 24" fill="none" xmlns="http://www.w3.org/2000/svg">
<path d="M17.9676 18.3347H10.3365C9.31512 18.3347 8.40991 17.9898 7.71649 17.3409C6.99574 16.6614 6.52776 15.6813 6.32964 14.428C6.17251 13.4274 4.56021 4.074 4.33476 2.8139C4.18788 1.99432 3.33391 1.37964 2.3433 1.37964H0.696849C0.321101 1.37964 0.0136719 1.07229 0.0136719 0.696654C0.0136719 0.321014 0.321101 0.0136719 0.696849 0.0136719H2.34672C4.01367 0.0136719 5.4176 1.08937 5.68404 2.57486C5.8685 3.60616 7.51154 13.1269 7.68575 14.2163C7.83605 15.1622 8.16055 15.8759 8.65927 16.3472C9.09651 16.7604 9.66354 16.9721 10.3399 16.9721H17.9676C18.801 16.9721 19.9829 16.6819 20.6354 14.1548C20.7788 13.605 21.2502 11.7029 21.7114 9.85886C21.9744 8.80366 22.2272 7.78601 22.4219 7.01766H18.9889C18.6132 7.01766 18.3057 6.71031 18.3057 6.33467C18.3057 5.95903 18.6132 5.65169 18.9889 5.65169H23.2963C23.6721 5.65169 23.9795 5.95903 23.9795 6.33467C23.9795 6.39273 23.9727 6.44737 23.959 6.50201C23.7711 7.24646 23.4159 8.67389 23.0367 10.1901C22.5756 12.0342 22.1042 13.9431 21.9573 14.4963C21.6328 15.7462 21.1614 16.6648 20.5158 17.3102C19.836 17.9898 18.9787 18.3347 17.9676 18.3347Z" fill="#313235"/>
<path d="M10.3298 7.01423H5.77302C5.39727 7.01423 5.08984 6.70689 5.08984 6.33125C5.08984 5.95561 5.39727 5.64827 5.77302 5.64827H10.3298C10.7056 5.64827 11.013 5.95561 11.013 6.33125C11.013 6.70689 10.7056 7.01423 10.3298 7.01423ZM10.3366 23.9863C9.7252 23.9863 9.23673 23.8122 8.88147 23.4707C8.50914 23.1121 8.32127 22.6101 8.32127 21.9715C8.32127 21.333 8.50914 20.831 8.88147 20.4724C9.23673 20.1309 9.72861 19.9568 10.3366 19.9568C10.9447 19.9568 11.4366 20.1309 11.7918 20.4724C12.1641 20.831 12.352 21.333 12.352 21.9715C12.352 22.6101 12.1641 23.1121 11.7918 23.4707C11.44 23.8122 10.9481 23.9863 10.3366 23.9863ZM10.3366 21.3227C9.83792 21.3227 9.68762 21.473 9.68762 21.9715C9.68762 22.4701 9.83792 22.6204 10.3366 22.6204C10.8354 22.6204 10.9857 22.4701 10.9857 21.9715C10.9857 21.473 10.8354 21.3227 10.3366 21.3227ZM16.9976 23.9863C16.3862 23.9863 15.8977 23.8122 15.5424 23.4707C15.1701 23.1121 14.9822 22.6101 14.9822 21.9715C14.9822 21.333 15.1701 20.831 15.5424 20.4724C15.8977 20.1309 16.3896 19.9568 16.9976 19.9568C17.6056 19.9568 18.0975 20.1309 18.4528 20.4724C18.8217 20.831 19.013 21.333 19.013 21.9715C19.013 22.6101 18.8251 23.1121 18.4528 23.4707C18.1009 23.8122 17.6091 23.9863 16.9976 23.9863ZM16.9976 21.3227C16.4989 21.3227 16.3486 21.473 16.3486 21.9715C16.3486 22.4701 16.4989 22.6204 16.9976 22.6204C17.4963 22.6204 17.6466 22.4701 17.6466 21.9715C17.6466 21.473 17.4963 21.3227 16.9976 21.3227Z" fill="#313235"/>
<path d="M16.9495 13.5026H12.3756C10.8999 13.5026 10.1519 12.7479 10.1519 11.2556V2.25385C10.1519 0.782021 10.9204 0.00683594 12.3756 0.00683594H16.9495C18.4251 0.00683594 19.1732 0.761532 19.1732 2.25385V11.2521C19.1698 12.7445 18.4217 13.5026 16.9495 13.5026ZM12.3756 1.03131C11.4909 1.03131 11.1766 1.35231 11.1766 2.25385V11.2521C11.1766 12.1776 11.467 12.4747 12.3756 12.4747H16.9495C17.8547 12.4747 18.1484 12.1776 18.1484 11.2521V2.25385C18.1484 1.32841 17.8581 1.03131 16.9495 1.03131H12.3756Z" fill="#313235"/>
<path d="M14.661 9.94765C14.2239 9.94765 13.9438 10.1764 13.9438 10.6682C13.9438 10.9038 14.0087 11.0814 14.1248 11.2009C14.2512 11.3307 14.4356 11.3922 14.661 11.3922C14.8864 11.3922 15.0708 11.3307 15.1971 11.2009C15.3132 11.0814 15.3781 10.9072 15.3781 10.6682C15.3815 10.1764 15.0981 9.94765 14.661 9.94765Z" fill="#313235"/>
</svg>
