<svg width="24" height="24" viewBox="0 0 24 24" fill="none" xmlns="http://www.w3.org/2000/svg">
<path d="M7.59852 12.5865C7.49276 12.5119 7.43988 12.4279 7.43988 12.2972C7.4461 12.1293 7.58297 11.9955 7.75095 11.9986C7.83182 12.0017 7.90959 12.0266 7.97491 12.0733C8.45395 12.3937 9.12896 12.7141 9.90663 12.7141C11.07 12.7141 11.7855 12.1168 11.7855 11.2334C11.7855 10.5086 11.3811 9.99847 10.0435 9.82739L9.70132 9.78384C8.27976 9.60342 7.61719 8.91908 7.61719 7.86457C7.61719 6.60786 8.51617 5.8302 9.89107 5.8302C10.6594 5.8302 11.3126 6.03239 11.7606 6.30924C11.9006 6.39323 11.9628 6.5021 11.9628 6.60786C11.9628 6.76651 11.8352 6.89404 11.6766 6.89715H11.6735C11.5988 6.89093 11.5242 6.86916 11.4588 6.83183C10.9674 6.56431 10.4541 6.40567 9.86619 6.40567C8.80857 6.40567 8.22065 6.99047 8.22065 7.81168C8.22065 8.55824 8.68103 9.03728 9.9284 9.19592L10.2581 9.23947C11.7046 9.41989 12.3858 10.1011 12.3858 11.1899C12.3858 12.4154 11.5086 13.2895 9.82264 13.2895C9.03253 13.2833 8.25487 13.0376 7.59852 12.5865Z" fill="#019DF4"/>
<path d="M9.82885 13.5695C8.97342 13.5633 8.13976 13.302 7.43676 12.8167C7.25012 12.6861 7.1568 12.5119 7.1568 12.3003C7.15991 11.9768 7.42432 11.7186 7.74782 11.7218C7.88469 11.7249 8.01534 11.7684 8.12732 11.8431C8.71835 12.235 9.31559 12.4341 9.9035 12.4341C10.8896 12.4341 11.5024 11.9737 11.5024 11.2334C11.5024 10.7481 11.322 10.2722 10.0062 10.1042L9.66398 10.0607C7.73849 9.81493 7.33411 8.72931 7.33411 7.86455C7.33411 6.45854 8.33885 5.54712 9.89106 5.54712C10.6469 5.54712 11.3624 5.73376 11.9068 6.06971C12.1992 6.25013 12.2427 6.48342 12.2427 6.60785C12.2427 6.92203 11.9876 7.1771 11.6735 7.1771C11.5553 7.17399 11.4402 7.13977 11.3344 7.08378L11.3251 7.08067C10.8336 6.81315 10.3701 6.68873 9.86929 6.68873C9.01386 6.68873 8.50371 7.10867 8.50371 7.81478C8.50371 8.26894 8.67791 8.75731 9.96883 8.92217L10.2986 8.96572C12.2583 9.21146 12.6689 10.3126 12.6689 11.1929C12.6689 11.896 12.4107 12.4932 11.9223 12.9162C11.4308 13.3424 10.7029 13.5695 9.82885 13.5695ZM7.75715 12.3563C8.03711 12.5523 8.80233 13.0096 9.82885 13.0096C10.5661 13.0096 11.1664 12.8292 11.5584 12.487C11.9192 12.1759 12.109 11.728 12.109 11.1898C12.109 10.2255 11.493 9.67806 10.2301 9.51942L9.89728 9.47587C8.58148 9.30789 7.94379 8.76353 7.94379 7.81167C7.94379 7.31708 8.12421 6.89403 8.46327 6.5923C8.80233 6.29056 9.29071 6.1257 9.86929 6.1257C10.4572 6.1257 11.0202 6.27501 11.5895 6.58297C11.6144 6.59852 11.6455 6.60785 11.6735 6.61407H11.6766L11.6797 6.61096C11.661 6.58608 11.6392 6.5643 11.6112 6.54875C11.3468 6.38388 10.7714 6.11015 9.88795 6.11015C9.27826 6.11015 8.77123 6.27501 8.41972 6.58608C8.07444 6.89092 7.89402 7.33263 7.89402 7.86455C7.89402 8.81019 8.49438 9.34522 9.73242 9.50387L10.0746 9.54741C10.7745 9.63762 11.2722 9.82115 11.5988 10.1136C11.9099 10.3935 12.0623 10.7606 12.0623 11.2334C12.0623 11.7529 11.8445 12.2101 11.4526 12.5243C11.0669 12.8323 10.5319 12.994 9.90039 12.994C9.2005 12.994 8.49749 12.7638 7.81004 12.3066C7.78826 12.291 7.76649 12.2817 7.7416 12.2786C7.72916 12.2786 7.71672 12.2848 7.71361 12.2972C7.71983 12.3221 7.71983 12.3252 7.75715 12.3563Z" fill="#019DF4"/>
<path d="M9.98128 14.5619C9.74798 14.5619 9.56134 14.3721 9.56134 14.1419V5.27034C9.56134 5.03704 9.75109 4.84729 9.98128 4.84729C10.2146 4.84729 10.4043 5.03704 10.4043 5.27034V14.1419C10.4012 14.3752 10.2146 14.5619 9.98128 14.5619Z" fill="#019DF4"/>
<path d="M9.81022 18.5279C4.99804 18.5279 1.09729 14.6271 1.09729 9.81494C1.09729 7.50373 2.01493 5.28895 3.64802 3.65275C7.10707 0.305687 12.6222 0.395896 15.9693 3.85183C19.2417 7.22999 19.2417 12.5959 15.9693 15.974C14.3393 17.6133 12.1214 18.5341 9.81022 18.5279ZM9.81022 2.34627C5.6855 2.34627 2.34155 5.69022 2.34155 9.81494C2.34155 11.7964 3.12854 13.6939 4.52834 15.0968C7.45546 18.0022 12.1868 17.9835 15.0921 15.0564C17.9819 12.1448 17.9819 7.44774 15.0921 4.53617C13.6923 3.12705 11.7917 2.34005 9.81022 2.34627Z" fill="#019DF4"/>
<path d="M22.2809 22.9077C22.116 22.9077 21.9573 22.8424 21.8422 22.7242L15.0921 15.974C14.8588 15.7221 14.8775 15.327 15.1295 15.0937C15.369 14.876 15.7329 14.876 15.9725 15.0937L22.7226 21.8438C22.9652 22.0865 22.9652 22.4815 22.7226 22.7242C22.6012 22.8424 22.4457 22.9077 22.2809 22.9077Z" fill="#019DF4"/>
</svg>
