<svg width="24" height="24" viewBox="0 0 24 24" fill="none" xmlns="http://www.w3.org/2000/svg">
<g clip-path="url(#clip0_33_2978)">
<path fill-rule="evenodd" clip-rule="evenodd" d="M13.1372 12.0001L23.7575 1.36266C24.0683 1.07239 24.0819 0.587477 23.7917 0.27672C23.7814 0.263061 23.7678 0.252816 23.7575 0.242571C23.4673 -0.0681859 22.9823 -0.0818455 22.6716 0.208422C22.6579 0.218667 22.6477 0.232326 22.6374 0.242571L12 10.8629L1.36254 0.242571C1.07227 -0.0681859 0.587355 -0.0818455 0.276598 0.208422C0.262938 0.218667 0.252694 0.232326 0.242449 0.242571C-0.068308 0.532839 -0.0819676 1.01776 0.2083 1.32851C0.218545 1.34217 0.232204 1.35242 0.242449 1.36266L10.8628 12.0001L0.242449 22.6376C-0.068308 22.9278 -0.0819676 23.4127 0.2083 23.7235C0.218545 23.7372 0.232204 23.7474 0.242449 23.7577C0.38929 23.9113 0.59077 24.0001 0.802495 23.9967C1.01422 24.0001 1.21911 23.9113 1.36254 23.7577L12 13.1373L22.6374 23.7577C22.9277 24.0684 23.4126 24.0821 23.7234 23.7918C23.737 23.7816 23.7473 23.7679 23.7575 23.7577C24.0683 23.4674 24.0819 22.9825 23.7917 22.6717C23.7814 22.6581 23.7678 22.6478 23.7575 22.6376L13.1372 12.0001Z" fill="white"/>
</g>
<defs>
<clipPath id="clip0_33_2978">
<rect width="24" height="24" fill="white"/>
</clipPath>
</defs>
</svg>
