<svg width="24" height="24" viewBox="0 0 24 24" fill="none" xmlns="http://www.w3.org/2000/svg">
<g id="Escudo ok seguridad ok _2Regular 1">
<path id="Vector" fill-rule="evenodd" clip-rule="evenodd" d="M20.5372 14.988C20.9812 12.3859 21.0529 6.75811 21.0631 4.65111C19.0142 4.75014 17.7302 3.90324 16.4906 3.07342C15.2612 2.25043 14.1001 1.47183 12.0205 1.46841H12.0136C9.93394 1.46841 8.77287 2.24701 7.54009 3.07342C6.30389 3.89983 5.03355 4.74673 2.97094 4.65111C2.98118 6.75811 3.0529 12.3859 3.50367 14.988C4.00566 17.8976 9.54806 21.2168 12.017 22.4496C14.4894 21.2168 20.0387 17.8907 20.5372 14.988ZM22.5179 3.82812C22.5179 4.15595 22.5418 11.8941 21.9715 15.2408C21.2134 19.6426 12.6932 23.7575 12.3312 23.9317C12.2322 23.9795 12.1263 24 12.0205 24C11.9146 24 11.8087 23.9761 11.7097 23.9283C11.3477 23.7575 2.83434 19.6392 2.07623 15.2408C1.4957 11.8941 1.51619 4.15595 1.5196 3.82812C1.5196 3.60273 1.62546 3.39101 1.79963 3.251C1.9772 3.11098 2.206 3.06659 2.42114 3.11781C4.38813 3.42857 5.42626 2.72851 6.741 1.84747C8.03525 0.98008 9.50025 0 12.017 0H12.0273C14.5441 0.00341491 16.0057 0.983495 17.2999 1.85088C18.6147 2.73193 19.6562 3.42857 21.6471 3.11781C21.8554 3.08367 22.0876 3.14172 22.2481 3.28173C22.4052 3.41491 22.5145 3.61639 22.5179 3.82812ZM10.2037 14.2948L16.2789 8.14798C16.5623 7.86113 17.0233 7.86113 17.3067 8.14798C17.5902 8.43483 17.5902 8.89926 17.3067 9.18611L10.7194 15.852C10.5828 15.9886 10.3984 16.0672 10.2071 16.0672C10.0159 16.0672 9.82808 15.9886 9.6949 15.852L6.73759 12.8571C6.45415 12.5703 6.45415 12.1059 6.73759 11.819C7.02103 11.5322 7.48204 11.5322 7.76548 11.819L10.2037 14.2948Z" fill="#019DF4"/>
</g>
</svg>
