<svg width="24" height="24" viewBox="0 0 24 24" fill="none" xmlns="http://www.w3.org/2000/svg">
<path d="M6.61808 14.3422C4.84539 14.3422 3.45753 13.8725 2.49997 12.9483C1.50605 11.9877 1 10.5635 1 8.72109C1 6.8787 1.50605 5.45448 2.49997 4.49389C3.45753 3.56966 4.84539 3.09998 6.61808 3.09998C8.50896 3.09998 9.88772 3.55754 10.8332 4.49995C11.7786 5.44236 12.2392 6.82415 12.2392 8.72109C12.2392 10.5665 11.7331 11.9877 10.7392 12.9483C9.77863 13.8725 8.39381 14.3422 6.61808 14.3422V14.3422ZM6.61808 4.31208C3.6545 4.31208 2.2121 5.75447 2.2121 8.72109C2.2121 11.6877 3.6545 13.1301 6.61808 13.1301C9.58167 13.1301 11.0241 11.6877 11.0241 8.72109C11.0241 7.16354 10.6816 6.06356 9.9756 5.35751C9.26955 4.65146 8.1726 4.31208 6.61808 4.31208V4.31208Z" fill="#019DF4"/>
<path d="M4.95695 10.8754C4.87816 10.8209 4.8418 10.7603 4.8418 10.6663C4.84483 10.5451 4.94483 10.4482 5.06604 10.4482C5.12361 10.4512 5.18118 10.4694 5.22967 10.5027C5.57815 10.736 6.06602 10.9663 6.63267 10.9663C7.47811 10.9663 7.99629 10.533 7.99629 9.8906C7.99629 9.36334 7.70235 8.99365 6.73267 8.86941L6.48419 8.83911C5.45391 8.70578 4.97513 8.21185 4.97513 7.44519C4.97513 6.53006 5.62663 5.96643 6.62358 5.96643C7.18115 5.96643 7.65387 6.11491 7.9781 6.31491C8.0781 6.37551 8.12659 6.4543 8.12659 6.53006C8.12659 6.64521 8.03568 6.73914 7.92053 6.73914H7.9175C7.86296 6.73611 7.81144 6.72096 7.76296 6.69369C7.40539 6.49975 7.0357 6.38461 6.60843 6.38461C5.84178 6.38461 5.41451 6.81187 5.41451 7.4058C5.41451 7.94821 5.74784 8.29669 6.65389 8.41184L6.89328 8.44214C7.93871 8.57245 8.43567 9.06941 8.43567 9.8603C8.43567 10.7512 7.79932 11.3875 6.57813 11.3875C5.99632 11.3815 5.4327 11.2027 4.95695 10.8754V10.8754Z" fill="#019DF4"/>
<path d="M6.57581 11.6149C5.95157 11.6089 5.34249 11.4179 4.82735 11.0604C4.68493 10.9604 4.61523 10.827 4.61523 10.6664C4.61826 10.418 4.81826 10.221 5.06674 10.221C5.16977 10.224 5.26977 10.2543 5.35462 10.3119C5.77885 10.5937 6.20915 10.7392 6.63035 10.7392C7.33034 10.7392 7.76669 10.4149 7.76669 9.8907C7.76669 9.54828 7.63639 9.21192 6.70308 9.09374L6.4546 9.06344C5.0425 8.88163 4.74553 8.08164 4.74553 7.44529C4.74553 6.40894 5.48189 5.73926 6.62126 5.73926C7.17276 5.73926 7.697 5.87562 8.09699 6.12107C8.3182 6.25743 8.35153 6.43622 8.35153 6.53015C8.35153 6.76954 8.15457 6.96651 7.91518 6.96651C7.82427 6.96348 7.73639 6.93924 7.6576 6.89681L7.65154 6.89378C7.29701 6.69985 6.96671 6.61197 6.60611 6.61197C6.00309 6.61197 5.63946 6.90893 5.63946 7.40589C5.63946 7.61498 5.63946 8.05437 6.68186 8.1877L6.92125 8.218C8.35759 8.39982 8.66062 9.21192 8.66062 9.8604C8.66062 10.3786 8.46971 10.818 8.11214 11.1301C7.74851 11.4452 7.21519 11.6149 6.57581 11.6149ZM5.08795 10.6907C5.21825 10.7816 5.35462 10.8573 5.50007 10.924C5.36371 10.8573 5.23037 10.7816 5.1031 10.6937C5.09401 10.6877 5.08492 10.6846 5.07583 10.6816C5.07886 10.6816 5.08189 10.6846 5.08795 10.6907ZM7.12731 8.7089C7.61518 8.82405 7.93942 9.03617 8.10002 9.34525C7.89699 8.92708 7.45155 8.77557 7.12731 8.7089V8.7089ZM5.26068 7.84225C5.38492 8.20285 5.69703 8.43921 6.20612 8.55739C5.70915 8.43012 5.39401 8.19376 5.26068 7.84225Z" fill="#019DF4"/>
<path d="M6.6186 12.4331C6.36709 12.4331 6.16406 12.2301 6.16406 11.9786V5.2696C6.16406 5.01809 6.36709 4.81506 6.6186 4.81506C6.87011 4.81506 7.07314 5.01809 7.07314 5.2696V11.9786C7.07314 12.2271 6.87011 12.4331 6.6186 12.4331Z" fill="#019DF4"/>
<path d="M14.3601 22.3269H7.28745C6.89049 22.3269 6.57535 22.2117 6.35111 21.9814C6.12687 21.7511 6.01172 21.439 6.01172 21.0421V13.7361C6.01172 13.4028 6.28444 13.1301 6.61777 13.1301C6.9511 13.1301 7.22382 13.4028 7.22382 13.7361V21.0451C7.22382 21.0693 7.22382 21.0906 7.22685 21.1148C7.242 21.1148 7.26321 21.1178 7.29048 21.1178H21.0933V21.0784V7.50292L15.8206 2.2121C12.8116 2.2121 8.04199 2.2121 7.28745 2.21513C7.26321 2.21513 7.242 2.21513 7.22685 2.21816C7.22685 2.23331 7.22382 2.24846 7.22382 2.2727V3.70904C7.22382 4.04237 6.9511 4.31509 6.61777 4.31509C6.28444 4.31509 6.01172 4.04237 6.01172 3.70904V2.2727C6.01172 1.4909 6.49959 1.00606 7.28442 1.00606C8.0632 1 13.0874 1 16.0721 1C16.2327 1 16.3873 1.06364 16.5024 1.17878L22.1326 6.82414C22.2448 6.93626 22.3084 7.0908 22.3084 7.2514V21.0784C22.3084 21.8481 21.8296 22.3269 21.0599 22.3299C20.6509 22.3269 17.5327 22.3269 14.3601 22.3269V22.3269ZM19.0266 18.4936H10.1632C9.82983 18.4936 9.55711 18.2209 9.55711 17.8876C9.55711 17.5543 9.82983 17.2815 10.1632 17.2815H19.0266C19.36 17.2815 19.6327 17.5543 19.6327 17.8876C19.6327 18.2209 19.363 18.4936 19.0266 18.4936ZM19.0266 14.9482H11.345C11.0116 14.9482 10.7389 14.6755 10.7389 14.3422C10.7389 14.0089 11.0116 13.7361 11.345 13.7361H19.0266C19.36 13.7361 19.6327 14.0089 19.6327 14.3422C19.6327 14.6755 19.363 14.9482 19.0266 14.9482ZM19.0266 10.8119H13.7086C13.3752 10.8119 13.1025 10.5392 13.1025 10.2059C13.1025 9.87257 13.3752 9.59985 13.7086 9.59985H19.0266C19.36 9.59985 19.6327 9.87257 19.6327 10.2059C19.6327 10.5392 19.363 10.8119 19.0266 10.8119Z" fill="#019DF4"/>
<path d="M21.7031 7.85735H18.2607C17.3334 7.85735 16.585 7.50584 16.0971 6.84222C15.6819 6.27859 15.4698 5.52103 15.4668 4.59378V1.60898C15.4668 1.27565 15.7395 1.00293 16.0728 1.00293C16.2334 1.00293 16.388 1.06656 16.5001 1.17868L22.1303 6.82404C22.3667 7.0604 22.3667 7.44524 22.1303 7.6816C22.0182 7.79372 21.8637 7.85735 21.7031 7.85735V7.85735ZM16.6789 3.07259V4.58771C16.6789 5.24528 16.8153 5.77557 17.0728 6.12102C17.3304 6.46647 17.7183 6.64222 18.2607 6.64222H20.2425L16.6789 3.07259Z" fill="#019DF4"/>
</svg>
