<svg width="24" height="24" viewBox="0 0 24 24" fill="none" xmlns="http://www.w3.org/2000/svg">
<path d="M19.8065 18.6591L4.19693 18.6489C2.83096 18.6489 1.77234 18.2698 1.05179 17.5185C0.351736 16.798 0 15.7667 0 14.4553V7.14401C0 4.45988 1.4889 2.98463 4.19351 2.98463L19.8065 2.99488C22.5111 2.99488 24 4.47354 24 7.15425V14.4656C24 15.7769 23.6483 16.8082 22.9516 17.5288C22.2277 18.2801 21.169 18.6591 19.8065 18.6591ZM4.19351 4.3506C3.21002 4.3506 2.47923 4.58623 2.02504 5.05066C1.58793 5.49801 1.36596 6.20149 1.36596 7.14401V14.4553C1.36596 16.3848 2.26409 17.2829 4.19351 17.2829L19.8031 17.2931C21.7325 17.2931 22.6306 16.395 22.6306 14.4656V7.15425C22.6306 6.21173 22.4087 5.50826 21.9681 5.0609C21.5139 4.59648 20.7866 4.36085 19.7997 4.36085L4.19351 4.3506ZM14.9915 21.3569L8.99829 21.3467C8.62265 21.3467 8.31531 21.0393 8.31531 20.6637C8.31531 20.288 8.62265 19.9807 8.99829 19.9807L14.9915 19.9909C15.3671 19.9909 15.6744 20.2983 15.6744 20.6739C15.6744 21.0496 15.3671 21.3569 14.9915 21.3569Z" fill="#019DF4"/>
</svg>
