<svg width="24" height="24" viewBox="0 0 24 24" fill="none" xmlns="http://www.w3.org/2000/svg">
<g clip-path="url(#clip0_740_7587)">
<path d="M13.1962 5.33031C13.9801 5.33031 14.3448 5.78359 14.3448 6.48225V16.8259C14.3448 17.5246 13.9801 17.9779 13.1962 17.9779H7.49103C6.70717 17.9779 6.3425 17.5246 6.3425 16.8259V8.01591L8.9872 5.33031H13.1962ZM13.1962 3.96706H8.9872C8.62253 3.96706 8.27149 4.11361 8.01588 4.37263L5.37118 7.05823C5.11898 7.31384 4.97925 7.65806 4.97925 8.01591V16.8225C4.97925 17.7154 5.33369 18.2778 5.6302 18.5947C5.95056 18.9321 6.52994 19.3377 7.49103 19.3377H13.1996C14.1573 19.3377 14.7401 18.9355 15.0605 18.5947C15.357 18.2778 15.7114 17.7154 15.7114 16.8225V6.47885C15.7114 5.58592 15.357 5.02017 15.0605 4.70662C14.7367 4.36922 14.1573 3.96706 13.1962 3.96706Z" fill="#019DF4"/>
<path d="M12.978 16.6453H7.66137C7.47392 16.6453 7.32056 16.4919 7.32056 16.3044V10.2891C7.32056 10.1017 7.47392 9.9483 7.66137 9.9483H12.978C13.1655 9.9483 13.3189 10.1017 13.3189 10.2891V16.3044C13.3189 16.4919 13.1655 16.6453 12.978 16.6453ZM8.00218 15.9636H12.6372V10.6299H8.00218V15.9636Z" fill="#019DF4"/>
<path d="M9.42675 12.6544C9.2393 12.6544 9.08594 12.501 9.08594 12.3135V10.3914C9.08594 10.2039 9.2393 10.0505 9.42675 10.0505C9.6142 10.0505 9.76756 10.2039 9.76756 10.3914V12.3135C9.76756 12.501 9.6176 12.6544 9.42675 12.6544ZM11.199 12.6544C11.0115 12.6544 10.8582 12.501 10.8582 12.3135V10.3914C10.8582 10.2039 11.0115 10.0505 11.199 10.0505C11.3864 10.0505 11.5398 10.2039 11.5398 10.3914V12.3135C11.5398 12.501 11.3898 12.6544 11.199 12.6544ZM9.42675 16.6112C9.2393 16.6112 9.08594 16.4578 9.08594 16.2704V14.3141C9.08594 14.1267 9.2393 13.9733 9.42675 13.9733C9.6142 13.9733 9.76756 14.1267 9.76756 14.3141V16.2704C9.76756 16.4578 9.6142 16.6112 9.42675 16.6112ZM11.199 16.6112C11.0115 16.6112 10.8582 16.4578 10.8582 16.2704V14.3141C10.8582 14.1267 11.0115 13.9733 11.199 13.9733C11.3864 13.9733 11.5398 14.1267 11.5398 14.3141V16.2704C11.5398 16.4578 11.3864 16.6112 11.199 16.6112Z" fill="#019DF4"/>
<path d="M12.978 12.6544H7.66137C7.47392 12.6544 7.32056 12.501 7.32056 12.3135C7.32056 12.1261 7.47392 11.9727 7.66137 11.9727H12.978C13.1655 11.9727 13.3188 12.1261 13.3188 12.3135C13.3188 12.501 13.1655 12.6544 12.978 12.6544ZM12.978 14.6549H7.66137C7.47392 14.6549 7.32056 14.5016 7.32056 14.3141C7.32056 14.1267 7.47392 13.9733 7.66137 13.9733H12.978C13.1655 13.9733 13.3188 14.1267 13.3188 14.3141C13.3188 14.5016 13.1655 14.6549 12.978 14.6549ZM20.5474 15.5513C20.1282 15.5513 19.7125 15.357 19.3273 14.9719C19.0547 14.6992 18.5537 14.1164 17.7221 13.1519L17.3029 12.6646C17.0575 12.3783 17.0882 11.9489 17.3745 11.7035C17.6608 11.4581 18.0902 11.4888 18.3356 11.7751L18.7548 12.2624C19.5386 13.1724 20.0567 13.7722 20.2918 14.0074C20.4316 14.1471 20.5236 14.1846 20.5509 14.1846C20.5815 14.1846 20.6804 14.1437 20.8303 13.9938C21.103 13.7211 21.4574 13.3053 21.8016 12.9031C22.1595 12.4839 22.5276 12.0511 22.8377 11.741C23.1035 11.4751 23.5364 11.4751 23.8022 11.741C24.068 12.0068 24.068 12.4396 23.8022 12.7055C23.5295 12.9781 23.1785 13.3905 22.8411 13.7893C22.4798 14.2119 22.1084 14.6515 21.7948 14.9617C21.3961 15.3536 20.9701 15.5513 20.5474 15.5513Z" fill="#019DF4"/>
<path d="M10.7185 22.7322C7.31042 22.7322 4.6589 21.8392 2.84237 20.0807C0.957683 18.2573 0 15.5308 0 11.9761C0 8.42147 0.957683 5.69156 2.84237 3.86822C4.6589 2.10963 7.31042 1.2167 10.7185 1.2167C14.1267 1.2167 16.7782 2.10963 18.5947 3.86822C20.4794 5.69156 21.4371 8.42147 21.4371 11.9761C21.4371 12.351 21.1304 12.6578 20.7555 12.6578C20.3806 12.6578 20.0738 12.351 20.0738 11.9761C20.0738 8.80318 19.2559 6.40727 17.6473 4.84635C16.0932 3.34337 13.762 2.57995 10.7185 2.57995C7.67509 2.57995 5.34394 3.34337 3.78983 4.84635C2.1812 6.40386 1.36325 8.80318 1.36325 11.9761C1.36325 15.1491 2.1812 17.545 3.78983 19.1059C5.34394 20.6089 7.67509 21.3723 10.7185 21.3723C12.8145 21.3723 14.5834 21.0077 15.9773 20.292C16.3113 20.1215 16.7237 20.2511 16.8941 20.5885C17.0645 20.9225 16.935 21.3348 16.601 21.5052C15.0094 22.3198 13.0327 22.7322 10.7185 22.7322Z" fill="#019DF4"/>
<path d="M20.5134 15.4865C20.1385 15.4865 19.8318 15.1832 19.8318 14.8049C19.8318 14.764 19.8352 14.7197 19.842 14.6788C19.9954 13.854 20.0738 12.9441 20.0738 11.9727C20.0738 11.5979 20.3805 11.2911 20.7554 11.2911C21.1303 11.2911 21.437 11.5979 21.437 11.9727C21.437 13.0293 21.3518 14.021 21.1848 14.9276C21.1235 15.2547 20.8406 15.4865 20.5134 15.4865Z" fill="#019DF4"/>
</g>
<defs>
<clipPath id="clip0_740_7587">
<rect width="24" height="23.9523" fill="white"/>
</clipPath>
</defs>
</svg>
