<svg width="24" height="24" viewBox="0 0 24 24" fill="none" xmlns="http://www.w3.org/2000/svg">
<path d="M19.8065 18.6591L4.19693 18.6489C2.83096 18.6489 1.77234 18.2698 1.05179 17.5185C0.351736 16.798 0 15.7667 0 14.4553V7.14399C0 4.45986 1.4889 2.98462 4.19351 2.98462L19.8065 2.99486C22.5111 2.99486 24 4.47352 24 7.15424V14.4656C24 15.7769 23.6483 16.8082 22.9516 17.5288C22.2277 18.28 21.169 18.6591 19.8065 18.6591V18.6591ZM4.19351 4.35059C3.21002 4.35059 2.47923 4.58622 2.02504 5.05064C1.58793 5.498 1.36596 6.20147 1.36596 7.14399V14.4553C1.36596 16.3848 2.26409 17.2829 4.19351 17.2829L19.8031 17.2931C21.7325 17.2931 22.6306 16.395 22.6306 14.4656V7.15424C22.6306 6.21172 22.4087 5.50824 21.9681 5.06089C21.5139 4.59646 20.7866 4.36083 19.7997 4.36083L4.19351 4.35059V4.35059ZM14.9915 21.3569L8.99829 21.3466C8.62265 21.3466 8.31531 21.0393 8.31531 20.6637C8.31531 20.288 8.62265 19.9807 8.99829 19.9807L14.9915 19.9909C15.3671 19.9909 15.6744 20.2983 15.6744 20.6739C15.6744 21.0495 15.3671 21.3569 14.9915 21.3569Z" fill="#019DF4"/>
<path fill-rule="evenodd" clip-rule="evenodd" d="M13.5846 11.245L14.276 10.5415L13.3651 10.4057C12.9306 10.3378 12.5476 10.0467 12.3607 9.64888L11.9964 8.88235L11.6273 9.65858C11.4405 10.0515 11.0527 10.3426 10.623 10.4057L9.72141 10.5415L10.4128 11.2401C10.7024 11.5361 10.8472 11.9921 10.7771 12.3996L10.623 13.3263L11.3657 12.9236C11.5572 12.8169 11.7815 12.7586 11.9964 12.7586C12.2019 12.7586 12.4168 12.812 12.6036 12.909L13.3744 13.3311L13.2202 12.4045C13.1548 11.9921 13.295 11.5409 13.5846 11.245ZM15.2569 9.3772C15.5793 9.42571 15.8455 9.65373 15.953 9.97392C16.0604 10.3038 15.981 10.6628 15.7428 10.9103L14.5142 12.1571C14.5049 12.1668 14.5002 12.1813 14.5049 12.191L14.7945 13.9521C14.8505 14.3014 14.7104 14.641 14.4301 14.8448C14.2806 14.9515 14.1125 15 13.9396 15C13.7995 15 13.6594 14.966 13.5286 14.8981L12.0104 14.0685C12.0057 14.0685 12.0057 14.0637 12.001 14.0637C11.9964 14.0637 11.9964 14.0637 11.9964 14.0685L10.4782 14.8981C10.3474 14.966 10.2072 15 10.0671 15C9.89425 15 9.72142 14.9466 9.57193 14.8448C9.28698 14.6458 9.15151 14.3014 9.20757 13.9521L9.49719 12.191C9.50186 12.1765 9.49719 12.1668 9.48785 12.1571L8.25929 10.9103C8.02105 10.6628 7.93696 10.3087 8.04908 9.97392C8.15652 9.65373 8.42278 9.42571 8.7451 9.3772L10.4408 9.12007C10.4455 9.12007 10.4548 9.11037 10.4595 9.10552L11.2162 7.50455C11.3611 7.19406 11.6647 7 11.9964 7C12.3327 7 12.6317 7.19406 12.7811 7.50455L13.5379 9.10552C13.5426 9.11037 13.5472 9.12007 13.5566 9.12007L15.2569 9.3772Z" fill="#019DF4"/>
</svg>
