<svg width="24" height="24" viewBox="0 0 24 24" fill="none" xmlns="http://www.w3.org/2000/svg">
<path d="M15.991 24H8.00235C6.65384 24 5.67063 23.6757 4.99808 23.01C4.3187 22.3374 3.99097 21.3474 3.99097 19.9886V4.01138C3.99097 2.68677 4.31871 1.7138 4.99467 1.0276C5.67745 0.33798 6.66067 0 8.00235 0H15.991C17.3429 0 18.3261 0.327738 19.0021 1.00711C19.678 1.68649 20.0023 2.66629 20.0023 4.01138V19.9886C20.0023 21.3474 19.6712 22.3374 18.9952 23.01C18.3193 23.6757 17.3395 24 15.991 24ZM8.00235 1.36558C6.12468 1.36558 5.35654 2.13371 5.35654 4.01138V19.9886C5.35654 21.9175 6.07347 22.6344 8.00235 22.6344H15.991C17.9198 22.6344 18.6368 21.9175 18.6368 19.9886V4.01138C18.6368 3.04523 18.4388 2.3761 18.0359 1.96984C17.6331 1.56358 16.9605 1.36558 15.991 1.36558H8.00235Z" fill="#019DF4"/>
<path d="M11.9966 18.7767C11.3821 18.7767 10.9827 19.101 10.9827 19.794C10.9827 20.1286 11.0748 20.3744 11.2387 20.5417C11.4162 20.7226 11.6757 20.8114 11.9966 20.8114C12.3175 20.8114 12.577 20.7226 12.7545 20.5417C12.9184 20.3744 13.0105 20.1252 13.0105 19.794C13.0071 19.101 12.6111 18.7767 11.9966 18.7767Z" fill="#019DF4"/>
<path d="M11.9967 21.1562C11.5802 21.1562 11.232 21.0265 10.9964 20.7841C10.7608 20.5417 10.6448 20.2105 10.6448 19.7974C10.6448 18.9474 11.15 18.4387 12.0001 18.4387C12.8502 18.4387 13.352 18.9474 13.352 19.7974C13.352 20.2139 13.2325 20.5451 13.0004 20.7841C12.7682 21.023 12.4132 21.1562 11.9967 21.1562ZM11.9967 19.1215C11.5324 19.1215 11.3242 19.3297 11.3242 19.7974C11.3242 20.0296 11.3788 20.2003 11.4812 20.3061C11.5836 20.4119 11.7611 20.4734 11.9933 20.4734C12.2254 20.4734 12.3995 20.4188 12.5054 20.3061C12.6112 20.1935 12.6624 20.0262 12.6624 19.7974C12.6658 19.3297 12.461 19.1181 11.9967 19.1215Z" fill="#019DF4"/>
</svg>
