<svg width="24" height="25" viewBox="0 0 24 25" fill="none" xmlns="http://www.w3.org/2000/svg">
<g clip-path="url(#clip0_740_7602)">
<path d="M17.4212 17.0083H13.3859C12.7373 17.0083 12.3037 16.5713 12.3037 15.9226V4.73856C12.3037 4.09333 12.7373 3.65976 13.3859 3.65976H18.3157C18.4966 3.65976 18.6707 3.73145 18.797 3.86118L22.1256 7.18977C22.2553 7.31609 22.327 7.4902 22.327 7.67114V15.9397C22.327 16.5781 21.9003 17.0083 21.2619 17.0083C21.0093 17.0049 19.2306 17.0083 17.4212 17.0083ZM13.6693 15.6393H20.9581V7.9545L18.0289 5.02534H13.6693V15.6393Z" fill="#019DF4"/>
<path d="M19.3159 10.5218H15.3114C15.028 10.5218 14.7993 10.293 14.7993 10.0097C14.7993 9.72632 15.028 9.49759 15.3114 9.49759H19.3159C19.5993 9.49759 19.828 9.72632 19.828 10.0097C19.828 10.293 19.5993 10.5218 19.3159 10.5218ZM19.3159 12.5189H15.3114C15.028 12.5189 14.7993 12.2902 14.7993 12.0068C14.7993 11.7235 15.028 11.4947 15.3114 11.4947H19.3159C19.5993 11.4947 19.828 11.7235 19.828 12.0068C19.828 12.2902 19.5993 12.5189 19.3159 12.5189ZM19.3159 14.5161H15.3114C15.028 14.5161 14.7993 14.2874 14.7993 14.004C14.7993 13.7206 15.028 13.4919 15.3114 13.4919H19.3159C19.5993 13.4919 19.828 13.7206 19.828 14.004C19.828 14.2874 19.5993 14.5161 19.3159 14.5161ZM21.3165 8.69531H19.9851C18.2815 8.69531 17.3051 7.71893 17.3051 6.01537V4.68393C17.3051 4.3084 17.6124 4.00114 17.9879 4.00114C18.3634 4.00114 18.6707 4.3084 18.6707 4.68393V6.01537C18.6707 6.48991 18.7731 6.8313 18.9711 7.02931C19.1691 7.22732 19.5105 7.32974 19.9851 7.32974H21.3165C21.692 7.32974 21.9993 7.63699 21.9993 8.01253C21.9993 8.38806 21.692 8.69531 21.3165 8.69531ZM9.99929 18.7835C9.38478 18.7835 8.98535 19.1078 8.98535 19.8009C8.98535 20.1354 9.07753 20.3812 9.2414 20.5485C9.41892 20.7295 9.67838 20.8182 9.99929 20.8182C10.3202 20.8182 10.5797 20.7295 10.7572 20.5485C10.9211 20.3812 11.0132 20.132 11.0132 19.8009C11.0098 19.1078 10.6138 18.7835 9.99929 18.7835Z" fill="#019DF4"/>
<path d="M9.99938 21.163C9.58288 21.163 9.23466 21.0333 8.9991 20.7909C8.76353 20.5485 8.64746 20.2174 8.64746 19.8043C8.64746 18.9542 9.15272 18.4455 10.0028 18.4455C10.8529 18.4455 11.3581 18.9542 11.3581 19.8043C11.3581 20.2208 11.2386 20.5519 11.0065 20.7909C10.7743 21.0299 10.4159 21.163 9.99938 21.163ZM9.99938 19.1283C9.53508 19.1283 9.32684 19.3366 9.32684 19.8043C9.32684 20.0364 9.38146 20.2071 9.48388 20.313C9.58629 20.4188 9.76382 20.4802 9.99597 20.4802C10.2281 20.4802 10.4022 20.4256 10.5081 20.313C10.6139 20.2003 10.6651 20.033 10.6651 19.8043C10.6685 19.3366 10.4637 19.1249 9.99938 19.1283Z" fill="#019DF4"/>
<path d="M13.9937 24.0068H6.00503C4.65653 24.0068 3.67331 23.6825 3.00077 23.0168C2.32139 22.3408 1.99365 21.3542 1.99365 19.9955V4.01822C1.99365 2.67312 2.32139 1.68991 2.99394 1.01395C3.66648 0.337988 4.65311 0.00683594 6.00503 0.00683594H13.9937C15.3319 0.00683594 16.3151 0.344816 17.0013 1.03443C17.6773 1.71722 18.005 2.69361 18.005 4.01822C18.005 4.39375 17.6978 4.701 17.3223 4.701C16.9467 4.701 16.6395 4.39375 16.6395 4.01822C16.6395 2.14055 15.8713 1.37241 13.9937 1.37241H6.00503C5.03547 1.37241 4.36634 1.57042 3.96008 1.97668C3.55382 2.38294 3.35923 3.05207 3.35923 4.01822V19.9955C3.35923 21.9243 4.07616 22.6413 6.00503 22.6413H13.9937C15.9225 22.6413 16.6395 21.9243 16.6395 19.9955V16.5474C16.6395 16.1718 16.9467 15.8646 17.3223 15.8646C17.6978 15.8646 18.005 16.1718 18.005 16.5474V19.9955C18.005 21.3542 17.6739 22.3442 16.9979 23.0168C16.322 23.6825 15.3422 24.0068 13.9937 24.0068Z" fill="#019DF4"/>
</g>
<defs>
<clipPath id="clip0_740_7602">
<rect width="23.9932" height="24" fill="white" transform="translate(0 0.00683594)"/>
</clipPath>
</defs>
</svg>
