<svg width="24" height="24" viewBox="0 0 24 24" fill="none" xmlns="http://www.w3.org/2000/svg">
<g clip-path="url(#clip0_740_7691)">
<path fill-rule="evenodd" clip-rule="evenodd" d="M13.7314 18.9186C11.3853 19.0279 9.4593 19.6392 8.33238 20.0865V11.3717C10.3574 10.3847 12.6283 10.2413 13.7314 10.2379V18.9186ZM1.46841 10.2379C2.57143 10.2413 4.83551 10.3813 6.86738 11.3717V20.0865C5.74046 19.6392 3.81445 19.0279 1.46841 18.9186V10.2379ZM4.61696 5.93853C4.61696 5.1292 4.80819 4.52134 5.18042 4.12863C5.5663 3.72567 6.17757 3.51736 6.99715 3.51736L20.1514 3.51053C20.971 3.51053 21.5857 3.71542 21.9681 4.1218C22.3403 4.51451 22.5282 5.12237 22.5282 5.9317V12.3005C22.5282 13.1133 22.3403 13.7279 21.9647 14.1275C21.5788 14.5407 20.9676 14.749 20.1514 14.749L15.1964 14.7524V9.5037C15.1964 9.11098 14.9027 8.77974 14.5202 8.749C14.3631 8.73876 10.7706 8.46898 7.59476 10.0637C6.60444 9.56517 5.57313 9.24758 4.61696 9.04952V5.93853ZM20.1548 16.2618C21.3842 16.2618 22.3506 15.8964 23.0267 15.1759C23.6722 14.4861 24 13.5162 24 12.3005V5.9317C24 4.71258 23.6687 3.74957 23.0199 3.06659C22.3472 2.3597 21.3842 2.00114 20.1514 2.00114L6.99715 2.00797C5.76437 2.00797 4.80136 2.36653 4.12863 3.07342C3.47979 3.75982 3.14855 4.72282 3.14855 5.94195V8.82072C1.75868 8.67046 0.754692 8.74559 0.672735 8.75242C0.293679 8.78315 -0.00341797 9.1144 -0.00341797 9.50711V19.6631C-0.00341797 20.0797 0.324414 20.4178 0.730788 20.4178C4.42572 20.4178 7.22937 21.8998 7.25668 21.9135C7.36255 21.9715 7.47865 21.9989 7.59476 21.9989C7.61525 21.9989 7.63233 21.9852 7.6494 21.9818C7.74843 21.975 7.84746 21.9579 7.93625 21.9101C7.96357 21.8964 10.7467 20.4143 14.4621 20.4143C14.8685 20.4143 15.1964 20.0763 15.1964 19.6596V18.7205H23.2624C23.6688 18.7205 23.9966 18.3825 23.9966 17.9658C23.9966 17.5492 23.6688 17.2112 23.2624 17.2112H15.1964V16.2652L20.1548 16.2618Z" fill="#019DF4"/>
</g>
<defs>
<clipPath id="clip0_740_7691">
<rect width="24" height="24" fill="white"/>
</clipPath>
</defs>
</svg>
