<svg width="24" height="25" viewBox="0 0 24 25" fill="none" xmlns="http://www.w3.org/2000/svg">
<g clip-path="url(#clip0_740_7549)">
<path d="M5.45008 12.1366C5.36129 12.0751 5.32031 12.0068 5.32031 11.901C5.32373 11.7644 5.43642 11.6551 5.57302 11.6585C5.6379 11.6619 5.70278 11.6824 5.75742 11.72C6.15014 11.9795 6.69652 12.2425 7.3317 12.2425C8.28104 12.2425 8.86158 11.7541 8.86158 11.0336C8.86158 10.4428 8.53033 10.0228 7.44439 9.88618L7.16436 9.85203C6.00671 9.70519 5.46715 9.14856 5.46715 8.28459C5.46715 7.2567 6.19794 6.62153 7.32145 6.62153C7.94979 6.62153 8.47911 6.78544 8.8445 7.01424C8.95719 7.08254 9.00842 7.17133 9.00842 7.2567C9.00842 7.38647 8.90597 7.49233 8.7762 7.49233H8.77279C8.71132 7.48891 8.65327 7.47184 8.59863 7.44111C8.19908 7.22255 7.77905 7.09279 7.30096 7.09279C6.4404 7.09279 5.9589 7.57087 5.9589 8.24019C5.9589 8.84805 6.33454 9.24076 7.35219 9.37053L7.62196 9.40467C8.80011 9.55152 9.35674 10.1081 9.35674 10.996C9.35674 11.9966 8.64302 12.7103 7.26681 12.7103C6.61798 12.7035 5.98622 12.5054 5.45008 12.1366Z" fill="#019DF4"/>
<path d="M7.27024 12.9664C6.56677 12.9596 5.88379 12.7445 5.30325 12.3449C5.14275 12.2322 5.06421 12.0854 5.06421 11.901C5.06762 11.6209 5.29301 11.399 5.57303 11.4024C5.68914 11.4058 5.80183 11.44 5.89745 11.5048C6.37554 11.8224 6.85704 11.9829 7.33171 11.9829C8.11714 11.9829 8.60547 11.6175 8.60547 11.0302C8.60547 10.6443 8.46205 10.2686 7.41025 10.1355L7.13365 10.1013C5.54571 9.89641 5.21105 8.99829 5.21105 8.28116C5.21105 7.11668 6.04087 6.36198 7.32147 6.36198C7.94298 6.36198 8.53034 6.51565 8.98111 6.79226C9.2304 6.94593 9.26797 7.14741 9.26797 7.25327C9.26797 7.52647 9.04941 7.74502 8.77622 7.74502C8.67377 7.7416 8.57474 7.71429 8.48937 7.66648L8.48254 7.66306C8.08641 7.44792 7.71077 7.34548 7.30781 7.34548C6.62824 7.34548 6.22186 7.68014 6.22186 8.23677C6.22186 8.4724 6.22186 8.96414 7.38976 9.1144L7.65954 9.14855C9.2748 9.35344 9.61629 10.2652 9.61629 10.996C9.61629 11.58 9.40115 12.0717 8.99819 12.4234C8.58498 12.7786 7.99079 12.9664 7.27024 12.9664ZM5.59693 11.9249C5.7267 12.0171 5.86671 12.0956 6.01014 12.1639C5.87354 12.0956 5.74036 12.0171 5.61059 11.9283C5.60377 11.9215 5.59352 11.918 5.58328 11.9146L5.59693 11.9249ZM7.92932 9.71201C8.43131 9.83836 8.7728 10.0569 8.95721 10.3711C8.72841 9.95447 8.27423 9.78714 7.92932 9.71201ZM5.80524 8.76949C5.94867 9.14172 6.2765 9.38759 6.79898 9.52077C6.29016 9.37393 5.96233 9.12806 5.80524 8.76949Z" fill="#019DF4"/>
<path d="M7.33873 13.7621C7.1031 13.7621 6.91187 13.5709 6.91187 13.3352V6.01025C6.91187 5.77462 7.1031 5.58338 7.33873 5.58338C7.57436 5.58338 7.76559 5.77462 7.76559 6.01025V13.3352C7.76559 13.5709 7.57436 13.7621 7.33873 13.7621Z" fill="#019DF4"/>
<path d="M7.3386 15.6744C5.43992 15.6744 3.95785 15.1725 2.93337 14.1855C1.86792 13.1577 1.32837 11.638 1.32837 9.6642C1.32837 7.69038 1.86792 6.17075 2.93337 5.14286C3.95785 4.15595 5.43992 3.65396 7.3386 3.65396C9.23729 3.65396 10.7194 4.15595 11.7438 5.14286C12.8093 6.17075 13.3488 7.69038 13.3488 9.6642C13.3488 11.638 12.8093 13.1577 11.7438 14.1855C10.7194 15.1725 9.23729 15.6744 7.3386 15.6744ZM7.3386 5.01992C5.80531 5.01992 4.64424 5.39215 3.88272 6.12635C3.09388 6.88446 2.69433 8.07627 2.69433 9.6642C2.69433 11.2521 3.09388 12.4439 3.88272 13.2021C4.64424 13.9363 5.80872 14.3085 7.3386 14.3085C8.86848 14.3085 10.033 13.9363 10.7945 13.2021C11.5833 12.4439 11.9829 11.2521 11.9829 9.6642C11.9829 8.07627 11.5833 6.88446 10.7945 6.12635C10.033 5.39215 8.8719 5.01992 7.3386 5.01992Z" fill="#019DF4"/>
<path d="M18.6555 24.0068H10.6646C9.31573 24.0068 8.33224 23.6824 7.6595 23.0165C6.97993 22.3438 6.6521 21.3534 6.6521 19.9943V15.3842C6.6521 15.0085 6.95944 14.7012 7.33508 14.7012C7.71072 14.7012 8.01807 15.0085 8.01807 15.3842V19.9943C8.01807 21.9237 8.7352 22.6409 10.6646 22.6409H18.6555C20.585 22.6409 21.3021 21.9237 21.3021 19.9943V4.01252C21.3021 3.0461 21.104 2.37678 20.7011 1.9704C20.2981 1.56403 19.6254 1.36596 18.6555 1.36596H10.6646C8.78642 1.36596 8.01807 2.13432 8.01807 4.01252C8.01807 4.38816 7.71072 4.6955 7.33508 4.6955C6.95944 4.6955 6.6521 4.38816 6.6521 4.01252C6.6521 2.68754 6.97993 1.71429 7.65608 1.02789C8.34248 0.338076 9.32598 0 10.6646 0H18.6555C20.0078 0 20.9913 0.327832 21.6675 1.0074C22.3436 1.68697 22.6681 2.66705 22.6681 4.01252V19.9943C22.6681 21.3534 22.3368 22.3438 21.6607 23.0165C20.9879 23.6824 20.0044 24.0068 18.6555 24.0068Z" fill="#019DF4"/>
<path d="M14.6602 18.782C14.0455 18.782 13.646 19.1064 13.646 19.7997C13.646 20.1343 13.7382 20.3802 13.9021 20.5475C14.0797 20.7285 14.3392 20.8173 14.6602 20.8173C14.9812 20.8173 15.2407 20.7285 15.4183 20.5475C15.5822 20.3802 15.6744 20.1309 15.6744 19.7997C15.6744 19.1064 15.2749 18.782 14.6602 18.782Z" fill="#019DF4"/>
<path d="M14.6602 21.1622C14.2435 21.1622 13.8952 21.0324 13.6596 20.79C13.424 20.5475 13.3079 20.2163 13.3079 19.8031C13.3079 18.9528 13.8133 18.4439 14.6636 18.4439C15.5139 18.4439 16.0193 18.9528 16.0193 19.8031C16.0193 20.2197 15.8997 20.5509 15.6675 20.79C15.4353 21.029 15.0802 21.1622 14.6602 21.1622ZM14.6602 19.1269C14.1957 19.1269 13.9874 19.3352 13.9874 19.8031C13.9874 20.0353 14.0421 20.206 14.1445 20.3119C14.247 20.4178 14.4245 20.4792 14.6567 20.4792C14.8889 20.4792 15.0631 20.4246 15.169 20.3119C15.2748 20.1992 15.3261 20.0319 15.3261 19.8031C15.3329 19.3352 15.1246 19.1235 14.6602 19.1269Z" fill="#019DF4"/>
</g>
<defs>
<clipPath id="clip0_740_7549">
<rect width="24" height="24.0068" fill="white"/>
</clipPath>
</defs>
</svg>
