<svg width="25" height="21" viewBox="0 0 25 21" fill="none" xmlns="http://www.w3.org/2000/svg">
<path d="M21.8315 20.7115H11.6516C10.8286 20.7115 10.3164 20.1958 10.3164 19.3694V1.32841C10.3164 0.515658 10.8286 0.0102509 11.6482 0.00683594H18C18.1809 0.00683594 18.3551 0.0785492 18.4815 0.208316L23.8087 5.53558C23.9385 5.66193 24.0102 5.83609 24.0102 6.01708V19.4001C24.0102 19.6562 23.9863 19.9875 23.7882 20.2641C23.6448 20.4656 23.3614 20.708 22.8218 20.708C22.494 20.7115 22.1627 20.7115 21.8315 20.7115V20.7115ZM20.4041 19.3455H22.6442V6.30394L17.7165 1.37622H11.6824V19.3455H20.4041Z" fill="#019DF4"/>
<path d="M20.7045 10.0057H13.622C13.2464 10.0057 12.939 9.69836 12.939 9.32272C12.939 8.94707 13.2464 8.63973 13.622 8.63973H20.7045C21.0802 8.63973 21.3875 8.94707 21.3875 9.32272C21.3875 9.69836 21.0802 10.0057 20.7045 10.0057ZM20.7045 13.3421H13.622C13.2464 13.3421 12.939 13.0347 12.939 12.6591C12.939 12.2834 13.2464 11.9761 13.622 11.9761H20.7045C21.0802 11.9761 21.3875 12.2834 21.3875 12.6591C21.3875 13.0347 21.0802 13.3421 20.7045 13.3421ZM20.7045 16.6989H13.622C13.2464 16.6989 12.939 16.3916 12.939 16.0159C12.939 15.6403 13.2464 15.333 13.622 15.333H20.7045C21.0802 15.333 21.3875 15.6403 21.3875 16.0159C21.3875 16.3916 21.0802 16.6989 20.7045 16.6989ZM6.69314 5.56972C6.40971 5.56972 6.18091 5.34093 6.18091 5.05749C6.18091 4.90723 6.24579 4.76722 6.35848 4.66819C6.82974 4.26523 7.37271 3.79056 7.4615 3.70518L7.46833 3.69835L7.45467 3.68128C7.18148 3.40808 6.36873 2.71827 6.3619 2.71144C6.14676 2.52704 6.11944 2.20604 6.30385 1.9909C6.48825 1.77576 6.80925 1.74844 7.02439 1.93284C7.05854 1.96358 7.8747 2.6568 8.17863 2.96073C8.63281 3.41833 8.63623 3.98179 8.18546 4.43256C8.03179 4.58623 7.19172 5.30678 7.02781 5.4502C6.93219 5.52533 6.81608 5.56972 6.69314 5.56972V5.56972Z" fill="#019DF4"/>
<path d="M3.0222 8.20605C2.73876 8.20605 2.50996 7.97725 2.50996 7.69381V6.67958C2.50996 5.52192 2.82072 4.63063 3.43882 4.03985C4.0296 3.47298 4.89015 3.18271 6.00342 3.18271H7.50598C7.78941 3.18271 8.01821 3.41151 8.01821 3.69495C8.01821 3.97838 7.78941 4.20718 7.50598 4.20718H6.00342C5.16676 4.20718 4.54183 4.39842 4.14912 4.77747C3.74274 5.17019 3.53443 5.80878 3.53443 6.67958V7.69381C3.53443 7.97725 3.30563 8.20605 3.0222 8.20605V8.20605ZM4.40865 20.6876H1.03813C0.416619 20.6876 0 20.2675 0 19.6426V9.69837C0 9.09051 0.426864 8.66365 1.03813 8.66365H5.04724C5.22823 8.66365 5.40239 8.73536 5.53216 8.86171L8.49289 11.8224C8.62265 11.9488 8.69437 12.123 8.69437 12.3039V19.6563C8.69437 20.2607 8.27433 20.6807 7.66989 20.6807L4.40865 20.6876V20.6876ZM1.36596 19.3216H7.32499V12.5908L4.7638 10.0296H1.36596V19.3216V19.3216Z" fill="#019DF4"/>
<path d="M6.23908 14.8993H2.46561C2.18217 14.8993 1.95337 14.6705 1.95337 14.387C1.95337 14.1036 2.18217 13.8748 2.46561 13.8748H6.23908C6.52252 13.8748 6.75132 14.1036 6.75132 14.387C6.75132 14.6705 6.52252 14.8993 6.23908 14.8993ZM6.23908 16.675H2.46561C2.18217 16.675 1.95337 16.4462 1.95337 16.1628C1.95337 15.8793 2.18217 15.6505 2.46561 15.6505H6.23908C6.52252 15.6505 6.75132 15.8793 6.75132 16.1628C6.75132 16.4462 6.52252 16.675 6.23908 16.675ZM6.23908 18.4508H2.46561C2.18217 18.4508 1.95337 18.222 1.95337 17.9385C1.95337 17.6551 2.18217 17.4263 2.46561 17.4263H6.23908C6.52252 17.4263 6.75132 17.6551 6.75132 17.9385C6.75132 18.222 6.52252 18.4508 6.23908 18.4508ZM7.63578 13.1952H6.45081C5.72002 13.1952 5.14973 12.9937 4.75701 12.601C4.3643 12.2083 4.16282 11.638 4.16282 10.9072V9.72225C4.16282 9.43881 4.39161 9.21001 4.67505 9.21001C4.95849 9.21001 5.18729 9.43881 5.18729 9.72225V10.9072C5.18729 11.8053 5.55268 12.1707 6.45081 12.1707H7.63578C7.91922 12.1707 8.14802 12.3995 8.14802 12.683C8.14802 12.9664 7.9158 13.1952 7.63578 13.1952V13.1952ZM23.3273 6.70347H20.6637C19.6597 6.70347 18.8162 6.3893 18.222 5.79511C17.6278 5.20091 17.3171 4.35743 17.3171 3.35686V0.693235C17.3171 0.317596 17.621 0.0102539 18 0.0102539C18.3757 0.0102539 18.683 0.314181 18.683 0.693235V3.35686C18.683 3.98862 18.8572 4.49744 19.1884 4.82869C19.5197 5.15993 20.0285 5.33751 20.6637 5.33751H23.3273C23.7029 5.33751 24.0103 5.64485 24.0103 6.02049C24.0103 6.39613 23.7029 6.70347 23.3273 6.70347Z" fill="#019DF4"/>
</svg>
