<svg width="22" height="25" viewBox="0 0 22 25" fill="none" xmlns="http://www.w3.org/2000/svg">
<path d="M17.3223 24.0068H9.33365C7.98514 24.0068 7.00192 23.6825 6.32938 23.0168C5.65 22.3442 5.32227 21.3542 5.32227 19.9955V15.3866C5.32227 15.0111 5.62952 14.7038 6.00505 14.7038C6.38059 14.7038 6.68784 15.0111 6.68784 15.3866V19.9955C6.68784 21.9243 7.40477 22.6413 9.33365 22.6413H17.3223C19.2511 22.6413 19.9681 21.9243 19.9681 19.9955V4.01822C19.9681 3.05207 19.7701 2.38294 19.3672 1.97668C18.9644 1.57042 18.2918 1.37241 17.3223 1.37241H9.33365C7.45598 1.37241 6.68784 2.14055 6.68784 4.01822C6.68784 4.39375 6.38059 4.701 6.00505 4.701C5.62952 4.701 5.32227 4.39375 5.32227 4.01822C5.32227 2.69361 5.65 1.72063 6.32596 1.03443C7.01217 0.344816 7.99538 0.00683594 9.33365 0.00683594H17.3223C18.6742 0.00683594 19.6574 0.334574 20.3334 1.01395C21.0093 1.69332 21.3336 2.67312 21.3336 4.01822V19.9955C21.3336 21.3542 21.0025 22.3442 20.3265 23.0168C19.654 23.6825 18.6708 24.0068 17.3223 24.0068Z" fill="#019DF4"/>
<path d="M13.3284 18.7832C12.7139 18.7832 12.3145 19.1075 12.3145 19.8006C12.3145 20.1351 12.4066 20.3809 12.5705 20.5482C12.748 20.7291 13.0075 20.8179 13.3284 20.8179C13.6493 20.8179 13.9088 20.7291 14.0863 20.5482C14.2502 20.3809 14.3423 20.1317 14.3423 19.8006C14.3423 19.1075 13.9429 18.7832 13.3284 18.7832Z" fill="#019DF4"/>
<path d="M13.3285 21.1628C12.912 21.1628 12.5638 21.0331 12.3282 20.7907C12.0926 20.5483 11.9766 20.2171 11.9766 19.8041C11.9766 18.954 12.4818 18.4453 13.3319 18.4453C14.182 18.4453 14.6872 18.954 14.6872 19.8041C14.6872 20.2206 14.5677 20.5517 14.3356 20.7907C14.1034 21.0297 13.7484 21.1628 13.3285 21.1628Z" fill="#019DF4"/>
<path d="M13.3288 19.1281C12.8645 19.1281 12.6562 19.3363 12.6562 19.804C12.6562 20.0362 12.7109 20.2069 12.8133 20.3127C12.9157 20.4185 13.0932 20.48 13.3254 20.48C13.5575 20.48 13.7316 20.4254 13.8375 20.3127C13.9433 20.2 13.9945 20.0328 13.9945 19.804C14.0013 19.3363 13.7931 19.1247 13.3288 19.1281Z" fill="#019DF4"/>
<path fill-rule="evenodd" clip-rule="evenodd" d="M10.4125 5.14824C9.38834 4.16161 7.90669 3.65976 6.00853 3.65976C4.11038 3.65976 2.62873 4.16161 1.60455 5.14824C0.539403 6.17583 0 7.69504 0 9.66829C0 11.6416 0.539403 13.1608 1.60455 14.1884C2.62873 15.175 4.11038 15.6768 6.00853 15.6768C7.90669 15.6768 9.38834 15.175 10.4125 14.1884C11.4777 13.1608 12.0171 11.6416 12.0171 9.66829C12.0171 7.69504 11.4777 6.17583 10.4125 5.14824ZM1.50555 11.1568C1.41337 10.7095 1.36558 10.2111 1.36558 9.66829C1.36558 9.25521 1.3963 8.86602 1.45092 8.50414H2.67653C2.63215 8.88309 2.60825 9.27228 2.60825 9.66829C2.60825 10.177 2.64922 10.6754 2.72432 11.1534H1.50555V11.1568ZM2.55363 13.2051C2.36586 13.0242 2.19858 12.8159 2.05519 12.5838H3.07596C3.19886 12.9354 3.34908 13.27 3.51977 13.5738C3.59488 13.707 3.6734 13.8299 3.75192 13.9494C3.2808 13.7684 2.88137 13.5192 2.55363 13.2051ZM3.51977 5.76616C3.29787 6.15876 3.11693 6.60258 2.97354 7.07711H1.87425C2.05519 6.71182 2.28051 6.39433 2.55363 6.13145C2.88137 5.81737 3.28421 5.56815 3.75533 5.38721C3.6734 5.5067 3.59488 5.63302 3.51977 5.76616ZM4.02845 9.68195C4.02845 9.2791 4.05235 8.88309 4.10014 8.50414H5.32575V11.1568H4.14452C4.066 10.6891 4.02845 10.194 4.02845 9.68195ZM5.32575 13.7104C5.2643 13.6626 5.20626 13.6114 5.14481 13.5568C4.91949 13.3349 4.72148 13.0208 4.55078 12.6248L4.53371 12.5838H5.32233L5.32575 13.7104C5.32575 13.707 5.32575 13.707 5.32575 13.7104ZM4.42447 7.07711C4.46543 6.96104 4.5064 6.85179 4.55078 6.74255C4.72148 6.34653 4.91949 6.03245 5.14481 5.81054C5.19943 5.75592 5.26771 5.7013 5.32575 5.65691L5.32916 7.0737L4.42447 7.07711ZM6.69132 5.81396H6.69815C6.92347 6.03586 7.12148 6.34994 7.28876 6.74596C7.33314 6.85179 7.37752 6.96445 7.41849 7.08053H6.69132V5.81396ZM7.29218 12.6248C7.12148 13.0208 6.91664 13.3383 6.69474 13.5602V12.5838H7.30925C7.30583 12.5975 7.29559 12.6111 7.29218 12.6248ZM7.69844 11.1636L7.69502 11.1534H6.69132V8.50073H7.74282C7.79061 8.87967 7.81451 9.27569 7.81451 9.67854C7.81792 10.1975 7.77696 10.6959 7.69844 11.1636ZM7.99203 5.29162C8.58265 5.47598 9.07767 5.75592 9.46344 6.13145C9.73656 6.39433 9.96529 6.70841 10.1428 7.07711H8.83528C8.69189 6.60258 8.50754 6.16218 8.28563 5.76616C8.19004 5.59546 8.09104 5.43501 7.98521 5.28821L7.99203 5.29162ZM9.46344 13.2051C9.07425 13.5807 8.57923 13.8606 7.98862 14.045C8.09104 13.9016 8.19687 13.7411 8.28905 13.5738C8.45974 13.2734 8.60996 12.9354 8.73286 12.5838H9.96529C9.82191 12.8125 9.65121 13.0242 9.46344 13.2051ZM9.08791 11.1568C9.16302 10.6788 9.20057 10.1804 9.20057 9.67171C9.20057 9.27569 9.18009 8.8865 9.13229 8.50755H10.5696C10.6242 8.86602 10.6515 9.25862 10.6515 9.67171C10.6515 10.2145 10.6071 10.7095 10.5115 11.1602L9.08791 11.1568Z" fill="#019DF4"/>
</svg>
