<svg width="24" height="24" viewBox="0 0 24 24" fill="none" xmlns="http://www.w3.org/2000/svg">
<path fill-rule="evenodd" clip-rule="evenodd" d="M21.0632 22.0057V13.3182C20.7661 13.3694 20.469 13.3967 20.1685 13.4001C19.1303 13.4001 18.1571 13.103 17.4502 12.5874C16.7399 13.103 15.7666 13.4001 14.7319 13.4001C13.6938 13.4001 12.7205 13.103 12.0137 12.5874C11.3034 13.103 10.3301 13.4001 9.29539 13.4001C8.25043 13.4001 7.27376 13.0996 6.56346 12.5737C5.85316 13.0962 4.87649 13.4001 3.83153 13.4001C3.52077 13.4001 3.22368 13.366 2.93682 13.3182V22.0023C2.93682 22.2925 3.19977 22.5282 3.52419 22.5282H8.64314V16.8082C8.64314 15.975 9.33978 15.2954 10.2003 15.2954H13.8236C14.6841 15.2954 15.3808 15.975 15.3808 16.8082V22.5282H20.469C20.8002 22.5316 21.0632 22.2925 21.0632 22.0057ZM13.9158 22.5316V16.8082C13.9158 16.8014 13.8884 16.7638 13.827 16.7638H10.2038C10.1423 16.7638 10.115 16.8014 10.115 16.8082V22.5282C10.1116 22.5316 13.9158 22.5316 13.9158 22.5316ZM1.69038 10.0979C1.54354 10.3301 1.47183 10.4496 1.47183 10.5965C1.47183 11.2248 2.44166 11.9283 3.83495 11.9283C4.71599 11.9283 5.52533 11.6346 5.94878 11.1633C5.94878 11.1633 6.17758 10.9926 6.24929 10.9482C6.3654 10.8799 6.57371 10.8833 6.57371 10.8833C6.81275 10.8867 7.03813 10.9892 7.19522 11.1668C7.61184 11.6312 8.42117 11.9249 9.30222 11.9249C10.1764 11.9249 10.9824 11.6346 11.4092 11.1702C11.4092 11.1702 11.5868 10.9926 11.7029 10.9345C11.8088 10.8833 12.0171 10.9004 12.0171 10.9004C12.2322 10.9414 12.4747 10.996 12.6318 11.1668C13.062 11.638 13.868 11.9283 14.7422 11.9283C15.613 11.9283 16.4291 11.6244 16.8492 11.1804C16.8492 11.1804 17.0575 11.0063 17.1394 10.955C17.2487 10.8867 17.4604 10.9038 17.4604 10.9038C17.6927 10.9038 17.918 11.0028 18.0751 11.1736C18.4986 11.638 19.3045 11.9283 20.1787 11.9283C21.572 11.9283 22.5418 11.2248 22.5418 10.5931C22.5418 10.3335 22.3847 10.1184 22.2516 9.98179L22.2481 9.97837C21.9886 9.70859 21.794 9.15538 21.2032 7.0074C21.0973 6.63176 21.012 6.31076 20.9539 6.12977L19.4752 1.46841L4.52476 1.51281C4.31986 2.15822 4.03301 3.0905 3.72225 4.09106C2.75925 7.1918 2.12066 9.251 1.98748 9.55834C1.90211 9.75299 1.79624 9.92715 1.69038 10.0979ZM24 10.5999C24 11.5083 23.4229 12.2971 22.5316 12.8059V22.0057C22.5316 23.1053 21.6096 24 20.4758 24H3.52419C2.39044 24 1.46841 23.1053 1.46841 22.0057V12.8059C0.57712 12.2937 0 11.5083 0 10.5965C0 10.0159 0.259533 9.60956 0.447353 9.30905C0.515652 9.20319 0.58395 9.09732 0.638589 8.97439C0.761525 8.68071 1.66306 5.77462 2.31873 3.65054C2.64656 2.59192 2.95048 1.61184 3.15879 0.949345C3.33978 0.40296 3.84178 0.0409789 4.41207 0.0409789L19.5777 0H19.5811C20.1582 0 20.6636 0.365396 20.8412 0.915196L22.3472 5.69607C22.4087 5.88389 22.5009 6.22538 22.6101 6.62493C22.798 7.30108 23.177 8.68412 23.3409 9.01195C23.7712 9.47638 24 10.0228 24 10.5999Z" fill="#019DF4"/>
</svg>
