<svg width="24" height="24" viewBox="0 0 24 24" fill="none" xmlns="http://www.w3.org/2000/svg">
<path d="M22.8296 16.0819L22.7807 16.1308C22.7562 16.1553 20.3564 18.5674 20.3319 18.5919C20.0992 18.7633 19.8299 18.8122 19.5605 18.7266C19.4748 18.7021 19.4014 18.6654 19.3401 18.6163C19.3279 18.6041 19.3156 18.5919 16.8424 16.1431C16.6709 15.9717 16.5975 15.6411 16.6709 15.3595C16.7077 15.237 16.7689 15.1391 16.8056 15.1024C16.8424 15.0534 16.9158 14.9799 16.9648 14.931C17.0627 14.8452 17.1852 14.7963 17.3199 14.7718C17.3811 14.7595 17.4545 14.7595 17.5036 14.7595C17.5525 14.7595 17.626 14.7595 17.6872 14.7595C17.6872 14.3433 17.6749 13.4127 17.6749 12.8985V11.5026C17.6749 11.3802 17.6749 11.2578 17.6749 11.1353C17.6749 10.9639 17.7239 10.7925 17.8219 10.6456C17.8831 10.5598 17.9443 10.4986 18.03 10.4374C18.1769 10.3395 18.3361 10.2905 18.5198 10.2905L21.1033 10.2783C21.2869 10.2783 21.4461 10.3272 21.5807 10.4252C21.8012 10.5843 21.9236 10.8048 21.9358 11.0863C21.9358 11.0986 21.9358 11.1108 21.9358 11.1108C21.9358 12.1638 21.9481 14.0983 21.9481 14.7351C22.0338 14.7351 22.1195 14.7351 22.1807 14.7351C22.4256 14.7351 22.6337 14.8452 22.7929 15.0166C23.0378 15.3105 23.0745 15.739 22.8541 16.0452L22.8296 16.0819Z" stroke="#019DF4" stroke-width="1.25954" stroke-miterlimit="10"/>
<path d="M1.15803 12.9838L1.20701 12.9349C1.2315 12.9104 3.63131 10.4983 3.6558 10.4738C3.88843 10.3024 4.1578 10.2535 4.42716 10.3391C4.51287 10.3636 4.58634 10.4004 4.64756 10.4494C4.6598 10.4616 4.67204 10.4738 7.14534 12.9226C7.3167 13.094 7.3902 13.4246 7.3167 13.7062C7.27998 13.8287 7.21878 13.9267 7.18206 13.9634C7.14534 14.0123 7.07184 14.0858 7.02288 14.1226C6.9249 14.2082 6.8025 14.2572 6.6678 14.2817C6.6066 14.2939 6.5331 14.2939 6.48414 14.2939C6.43518 14.2939 6.36168 14.2939 6.30048 14.2939C6.30048 14.7103 6.31272 15.6408 6.31272 16.155V17.5508C6.31272 17.6733 6.31272 17.7957 6.31272 17.9182C6.31272 18.0896 6.26376 18.261 6.16578 18.4079C6.10458 18.4936 6.04338 18.5548 5.95766 18.6161C5.81073 18.714 5.65156 18.763 5.4679 18.763L2.89667 18.7752C2.71301 18.7752 2.55384 18.7262 2.41916 18.6283C2.19877 18.4691 2.07633 18.2488 2.06409 17.9671C2.06409 17.9549 2.06409 17.9426 2.06409 17.9426C2.06409 16.8896 2.05184 14.9551 2.05184 14.3185C1.96613 14.3185 1.88043 14.3185 1.8192 14.3185C1.57433 14.3185 1.36618 14.2082 1.20701 14.0368C0.962134 13.743 0.925402 13.3144 1.14579 13.0084L1.15803 12.9838Z" stroke="#019DF4" stroke-width="1.25954" stroke-miterlimit="10"/>
<path d="M6.48443 9.32271C6.38651 9.32271 6.28853 9.28593 6.21509 9.21249C6.05591 9.05331 6.03143 8.80845 6.19061 8.64927L6.20285 8.63703C6.91295 7.87791 7.75781 7.26573 8.70059 6.83715C9.68009 6.38415 10.7331 6.13929 11.8228 6.10251C12.9002 6.06579 13.9655 6.23721 14.9695 6.62901C15.9245 6.99633 16.7938 7.53507 17.5529 8.23299C17.7121 8.37987 17.7244 8.63703 17.5774 8.80845C17.4305 8.96763 17.1734 8.97987 17.002 8.83293C16.3286 8.20851 15.545 7.71873 14.6756 7.38813C13.7696 7.04529 12.8268 6.88611 11.8473 6.92289C10.8678 6.95961 9.92501 7.17999 9.04343 7.58403C8.19857 7.97583 7.43945 8.52681 6.80279 9.20025C6.70481 9.28593 6.59465 9.32271 6.48443 9.32271Z" fill="#019DF4"/>
<path d="M6.48413 9.42065C6.36173 9.42065 6.23927 9.37169 6.15359 9.28595C5.94543 9.09005 5.93318 8.79623 6.12911 8.58809L6.14135 8.57585C6.86375 7.80443 7.70855 7.19225 8.66357 6.75149C9.65531 6.28619 10.7206 6.04133 11.8225 6.00461C12.9245 5.96786 13.9897 6.15155 15.0059 6.53111C15.9732 6.89843 16.8548 7.44935 17.6261 8.14727C17.7241 8.23301 17.7853 8.35541 17.7853 8.49011C17.7853 8.62481 17.7486 8.74721 17.6506 8.84519C17.467 9.04109 17.1487 9.05333 16.9528 8.86967C16.2793 8.25749 15.5079 7.76771 14.6631 7.44935C13.7693 7.10657 12.8265 6.94739 11.8715 6.98411C10.9042 7.02083 9.97367 7.24121 9.10439 7.64531C8.27177 8.03711 7.52489 8.57585 6.88823 9.24923C6.76577 9.35945 6.63107 9.42065 6.48413 9.42065ZM12.0796 6.18827C11.9939 6.18827 11.9082 6.18827 11.8103 6.18827C10.7328 6.22499 9.69209 6.46985 8.72477 6.92291C7.79429 7.35143 6.96167 7.95137 6.25151 8.71049L6.23927 8.72273C6.11687 8.84519 6.12911 9.04109 6.26375 9.16355C6.32501 9.21251 6.39845 9.24923 6.47189 9.24923C6.55763 9.24923 6.64331 9.21251 6.70457 9.15131C7.35347 8.45339 8.12483 7.90241 8.98193 7.51061C9.87575 7.09433 10.8308 6.87389 11.8225 6.83717C12.802 6.80045 13.7693 6.95963 14.6876 7.31471C15.5569 7.64531 16.3528 8.13503 17.0384 8.77175C17.1609 8.89415 17.369 8.88191 17.4914 8.75951C17.5527 8.69825 17.5772 8.61257 17.5772 8.52683C17.5772 8.44115 17.5405 8.36765 17.4792 8.30645C16.7323 7.62077 15.8753 7.08209 14.9203 6.72701C14.0142 6.35969 13.0592 6.18827 12.0796 6.18827Z" fill="#019DF4"/>
<path d="M7.97774 11.0732C7.89206 11.0732 7.79408 11.0364 7.72064 10.9752C7.54922 10.8282 7.52474 10.5711 7.67168 10.3997C7.67168 10.3997 7.68392 10.3875 7.69616 10.3752C8.22266 9.81203 8.84708 9.35897 9.545 9.04067C10.2796 8.69783 11.0755 8.50193 11.8958 8.47745C12.7039 8.45291 13.4998 8.58761 14.2467 8.86925C14.9568 9.13859 15.6057 9.54263 16.1689 10.0569C16.3404 10.2038 16.3404 10.4609 16.1934 10.6323C16.0465 10.7915 15.7894 10.8038 15.618 10.6568C15.1282 10.2161 14.5773 9.86099 13.9528 9.62837C13.3039 9.38345 12.6182 9.26105 11.9203 9.28553C11.2102 9.31001 10.5245 9.46919 9.88784 9.77531C9.28784 10.0569 8.7491 10.4487 8.28386 10.9385C8.19812 11.0241 8.08796 11.0732 7.97774 11.0732Z" fill="#019DF4"/>
<path d="M7.9779 11.1596C7.86768 11.1596 7.74528 11.1229 7.65954 11.0494C7.4514 10.878 7.41468 10.5596 7.59834 10.3515C7.59834 10.3393 7.61058 10.327 7.62282 10.327C8.16156 9.73929 8.79822 9.28629 9.50838 8.95569C10.2553 8.60061 11.0633 8.41695 11.896 8.39247C12.7163 8.36799 13.5244 8.50263 14.2835 8.79651C15.0059 9.07815 15.6548 9.48219 16.2303 9.99639C16.4262 10.1801 16.4507 10.4984 16.2548 10.6943C16.1691 10.7923 16.0466 10.8535 15.9119 10.8535C15.7773 10.8535 15.6548 10.8168 15.5569 10.7188C15.0794 10.2781 14.5284 9.93519 13.9285 9.71481C13.2917 9.46995 12.6061 9.35973 11.9204 9.38421C11.2225 9.40869 10.5491 9.56787 9.92466 9.86175C9.33696 10.1434 8.79822 10.5229 8.34522 11.0005C8.25948 11.0984 8.12484 11.1596 7.9779 11.1596ZM12.1041 8.56389C12.0306 8.56389 11.9694 8.56389 11.896 8.56389C11.0878 8.58837 10.3042 8.77203 9.58182 9.11487C8.8962 9.43317 8.28396 9.88623 7.75752 10.4372L7.74528 10.4495C7.63506 10.5842 7.6473 10.7801 7.782 10.8902C7.8432 10.9393 7.9044 10.9637 7.99014 10.9637C8.07582 10.9637 8.16156 10.927 8.22276 10.8658C8.68806 10.3637 9.23904 9.97191 9.85122 9.69033C10.5001 9.38421 11.198 9.22503 11.9204 9.20055C12.6306 9.17607 13.3285 9.28629 13.9897 9.54339C14.6141 9.78825 15.1895 10.1311 15.6793 10.5842C15.7405 10.6454 15.8263 10.6699 15.9119 10.6699C15.9977 10.6699 16.0711 10.6331 16.1323 10.5719C16.2548 10.4372 16.2425 10.2413 16.1078 10.1189C15.5569 9.60459 14.9202 9.21279 14.2223 8.95569C13.5367 8.69859 12.8265 8.56389 12.1041 8.56389Z" fill="#019DF4"/>
<path d="M9.48374 12.8005C9.38582 12.8005 9.28784 12.7637 9.20216 12.6903C9.04298 12.5311 9.03073 12.274 9.17767 12.1148C9.52045 11.7475 9.9368 11.4414 10.3898 11.2333C10.8796 11.0006 11.4183 10.8659 11.9692 10.8537C12.508 10.8415 13.0345 10.9271 13.5365 11.1108C14.0017 11.2822 14.4181 11.5516 14.7854 11.8822C14.9568 12.0291 14.9691 12.2862 14.8099 12.4576C14.6629 12.629 14.4058 12.6413 14.2344 12.4822C13.9405 12.2128 13.6099 12.0046 13.2426 11.8699C12.8386 11.7107 12.4223 11.6495 11.9938 11.6618C11.553 11.674 11.1367 11.7842 10.7326 11.9679C10.3653 12.1393 10.047 12.3719 9.76538 12.6781C9.69188 12.7515 9.58172 12.8005 9.48374 12.8005Z" fill="#019DF4"/>
<path d="M9.48359 12.8855C9.36113 12.8855 9.23873 12.8365 9.14075 12.7508C8.94485 12.5672 8.93261 12.2488 9.11627 12.0529C9.47135 11.6734 9.88763 11.3672 10.3529 11.1469C10.8549 10.902 11.4059 10.7795 11.9691 10.7551C12.5201 10.7428 13.0588 10.8285 13.5731 11.0244C14.0505 11.2081 14.4791 11.4652 14.8587 11.8081C14.9566 11.8937 15.0179 12.0162 15.0179 12.1509C15.0301 12.2855 14.9811 12.408 14.8954 12.5059C14.8097 12.6039 14.6873 12.6651 14.5526 12.6651C14.4179 12.6773 14.2955 12.6284 14.1975 12.5427C13.9159 12.2855 13.5853 12.0774 13.2302 11.9427C12.8384 11.7958 12.4344 11.7223 12.0181 11.7346C11.5895 11.7468 11.1855 11.8448 10.7937 12.0284C10.4386 12.1999 10.1202 12.4202 9.86315 12.7141C9.75293 12.8365 9.61829 12.8855 9.48359 12.8855ZM12.1038 10.9387C12.0548 10.9387 12.0181 10.9387 11.9691 10.9387C11.4303 10.951 10.9161 11.0857 10.4264 11.306C9.98561 11.5142 9.58157 11.8081 9.23873 12.1754C9.11627 12.2978 9.12851 12.5059 9.25097 12.6284C9.31217 12.6773 9.38561 12.7141 9.47135 12.7141C9.55703 12.7141 9.64277 12.6773 9.70397 12.6161C9.98561 12.31 10.3161 12.0652 10.6958 11.8937C11.0998 11.6978 11.5406 11.5999 11.9936 11.5876C12.4344 11.5754 12.8629 11.6489 13.2792 11.8081C13.6587 11.9549 14.0016 12.1631 14.3077 12.4447C14.3689 12.5059 14.4546 12.5305 14.5403 12.5305C14.6261 12.5305 14.6995 12.4937 14.7607 12.4325C14.822 12.3713 14.8464 12.2855 14.8464 12.1999C14.8464 12.1141 14.8097 12.0407 14.7485 11.9795C14.3811 11.6489 13.9771 11.404 13.5241 11.2204C13.0588 11.0244 12.5813 10.9387 12.1038 10.9387Z" fill="#019DF4"/>
<path d="M12.0797 15.7021C11.6879 15.7021 11.3819 15.6042 11.1615 15.3837C10.9288 15.1633 10.8064 14.845 10.8064 14.4409C10.8064 14.0369 10.9166 13.7185 11.1492 13.4859C11.3696 13.2655 11.6757 13.1553 12.0675 13.1553C12.4593 13.1553 12.7654 13.2533 12.9858 13.4737C13.2185 13.6941 13.3409 14.0124 13.3409 14.4165C13.3409 14.8205 13.2307 15.1389 12.998 15.3715C12.7776 15.5796 12.4716 15.6898 12.0797 15.7021Z" fill="#019DF4"/>
</svg>
