<svg width="190" height="24" viewBox="0 0 190 24" fill="none" xmlns="http://www.w3.org/2000/svg">
<path d="M97.3466 6.94801C99.251 6.94801 100.795 5.39265 100.795 3.47401C100.795 1.55537 99.251 0 97.3466 0C95.4421 0 93.8983 1.55537 93.8983 3.47401C93.8983 5.39265 95.4421 6.94801 97.3466 6.94801Z" fill="#F5F5F5"/>
<path d="M105.447 6.94807C107.351 6.94807 108.895 5.39271 108.895 3.47407C108.895 1.55543 107.351 6.10352e-05 105.447 6.10352e-05C103.542 6.10352e-05 101.999 1.55543 101.999 3.47407C101.999 5.39271 103.542 6.94807 105.447 6.94807Z" fill="#F5F5F5"/>
<path d="M113.527 6.94807C115.431 6.94807 116.975 5.39271 116.975 3.47407C116.975 1.55543 115.431 6.10352e-05 113.527 6.10352e-05C111.622 6.10352e-05 110.078 1.55543 110.078 3.47407C110.078 5.39271 111.622 6.94807 113.527 6.94807Z" fill="#F5F5F5"/>
<path d="M105.447 15.0882C107.351 15.0882 108.895 13.5329 108.895 11.6142C108.895 9.69559 107.351 8.14023 105.447 8.14023C103.542 8.14023 101.999 9.69559 101.999 11.6142C101.999 13.5329 103.542 15.0882 105.447 15.0882Z" fill="#F5F5F5"/>
<path d="M105.447 23.2286C107.351 23.2286 108.895 21.6732 108.895 19.7546C108.895 17.8359 107.351 16.2806 105.447 16.2806C103.542 16.2806 101.999 17.8359 101.999 19.7546C101.999 21.6732 103.542 23.2286 105.447 23.2286Z" fill="#F5F5F5"/>
<path d="M124.3 8.92164H121.097V6.98935H129.503V8.92164H126.3V17.7608H124.321V8.92164H124.3Z" fill="#F5F5F5"/>
<path d="M136.196 15.4585C136.032 16.0752 135.073 17.9252 132.605 17.9252C130.319 17.9252 128.626 16.2396 128.626 13.8551C128.626 11.4706 130.299 9.78494 132.605 9.78494C134.747 9.78494 136.42 11.4706 136.42 13.7112C136.42 13.9373 136.4 14.1223 136.379 14.2662L136.359 14.4718H130.564C130.727 15.5612 131.544 16.3218 132.625 16.3218C133.523 16.3218 134.074 15.8079 134.237 15.479H136.196V15.4585ZM134.523 13.1356C134.359 12.1284 133.706 11.3678 132.605 11.3678C131.442 11.3678 130.768 12.1284 130.544 13.1356H134.523Z" fill="#F5F5F5"/>
<path d="M137.563 6.98935H139.481V17.7608H137.563V6.98935Z" fill="#F5F5F5"/>
<path d="M148.193 15.4585C148.03 16.0752 147.071 17.9252 144.602 17.9252C142.317 17.9252 140.623 16.2396 140.623 13.8551C140.623 11.4706 142.296 9.78494 144.602 9.78494C146.744 9.78494 148.417 11.4706 148.417 13.7112C148.417 13.9373 148.397 14.1223 148.377 14.2662L148.356 14.4718H142.562C142.725 15.5612 143.541 16.3218 144.622 16.3218C145.52 16.3218 146.071 15.8079 146.234 15.479H148.193V15.4585ZM146.499 13.1356C146.336 12.1284 145.683 11.3678 144.581 11.3678C143.418 11.3678 142.745 12.1284 142.521 13.1356H146.499Z" fill="#F5F5F5"/>
<path d="M150.172 11.7582H148.866V9.90818H150.172V8.75702C150.172 7.58532 150.927 6.82474 152.09 6.82474H153.763V8.51035H152.621C152.315 8.51035 152.09 8.73647 152.09 9.04481V9.88762H153.763V11.7377H152.09V17.7401H150.172V11.7582Z" fill="#F5F5F5"/>
<path d="M161.986 13.8344C161.986 16.2189 160.313 17.9046 158.007 17.9046C155.722 17.9046 154.028 16.2189 154.028 13.8344C154.028 11.4499 155.702 9.76428 158.007 9.76428C160.292 9.76428 161.986 11.4499 161.986 13.8344ZM160.068 13.8344C160.068 12.4572 159.15 11.5321 158.007 11.5321C156.865 11.5321 155.946 12.4572 155.946 13.8344C155.946 15.2117 156.865 16.1367 158.007 16.1367C159.15 16.1367 160.068 15.2117 160.068 13.8344Z" fill="#F5F5F5"/>
<path d="M163.128 9.90818H164.883L165.026 10.6688H165.108C165.25 10.5043 165.434 10.3399 165.618 10.2165C165.965 9.9904 166.495 9.76428 167.23 9.76428C168.984 9.76428 170.29 11.0799 170.29 13.0738V17.7607H168.372V13.2177C168.372 12.2105 167.678 11.5321 166.699 11.5321C165.699 11.5321 165.026 12.231 165.026 13.2177V17.7607H163.108V9.90818H163.128Z" fill="#F5F5F5"/>
<path d="M182.451 14.8418C182.206 16.0752 181.247 17.9252 178.778 17.9252C176.493 17.9252 174.799 16.2396 174.799 13.8551C174.799 11.4706 176.473 9.78494 178.778 9.78494C181.227 9.78494 182.206 11.635 182.451 12.7862H180.533C180.37 12.3339 179.921 11.5528 178.778 11.5528C177.636 11.5528 176.717 12.4778 176.717 13.8551C176.717 15.2323 177.636 16.1574 178.778 16.1574C179.921 16.1574 180.37 15.3968 180.533 14.8418H182.451Z" fill="#F5F5F5"/>
<path d="M188.225 16.9795H188.143C188.001 17.144 187.817 17.3084 187.613 17.4318C187.246 17.6579 186.715 17.884 185.94 17.884C184.165 17.884 183.124 16.7945 183.124 15.4995C183.124 13.9578 184.185 12.8888 186.328 12.8888H188.082V12.7449C188.082 11.8816 187.572 11.2854 186.715 11.2854C185.858 11.2854 185.409 11.8405 185.348 12.2927H183.43C183.593 10.9977 184.634 9.76428 186.715 9.76428C188.694 9.76428 190 11.0799 190 12.7655V17.7607H188.388L188.225 16.9795ZM188.062 14.3689H186.45C185.45 14.3689 185.001 14.7595 185.001 15.3761C185.001 15.9928 185.45 16.3834 186.226 16.3834C187.389 16.3834 188.062 15.705 188.062 14.6156V14.3689Z" fill="#F5F5F5"/>
<path d="M171.759 9.9082H173.677V17.7607H171.759V9.9082Z" fill="#F5F5F5"/>
<path d="M172.718 8.77757C173.338 8.77757 173.841 8.27139 173.841 7.64698C173.841 7.02257 173.338 6.51639 172.718 6.51639C172.099 6.51639 171.596 7.02257 171.596 7.64698C171.596 8.27139 172.099 8.77757 172.718 8.77757Z" fill="#F5F5F5"/>
<path d="M158.701 6.59848H160.68L158.844 8.83912H157.253L158.701 6.59848Z" fill="#F5F5F5"/>
<path d="M0 6.98911H1.22423V13.526C1.22423 15.4377 2.53007 16.7533 4.20318 16.7533C5.85588 16.7533 7.18213 15.4377 7.18213 13.526V6.98911H8.40636V13.526C8.40636 16.1572 6.59042 17.9045 4.20318 17.9045C1.81594 17.9045 0 16.1572 0 13.526V6.98911Z" fill="#F5F5F5"/>
<path d="M10.304 10.0725H11.3037L11.4466 10.9153H11.5282C11.671 10.7303 11.8546 10.5659 12.0995 10.422C12.4872 10.1753 13.0381 9.90808 13.8134 9.90808C15.5681 9.90808 16.874 11.2237 16.874 13.1354V17.74H15.711V13.1354C15.711 11.902 14.7928 10.977 13.6502 10.977C12.426 10.977 11.4466 11.9843 11.4466 13.1354V17.74H10.304V10.0725Z" fill="#F5F5F5"/>
<path d="M23.5662 16.8355H23.4846C23.3417 17.0411 23.1581 17.2261 22.9337 17.37C22.546 17.6578 21.9747 17.9045 21.1177 17.9045C19.5262 17.9045 18.4448 16.9178 18.4448 15.5199C18.4448 14.0399 19.363 13.0532 21.5054 13.0532H23.5662V12.8271C23.5662 11.6554 22.8928 10.977 21.7298 10.977C20.5668 10.977 19.8935 11.5937 19.8323 12.2926H18.6897C18.7713 11.0592 19.8323 9.90808 21.7502 9.90808C23.5866 9.90808 24.7292 10.977 24.7292 12.8271V17.74H23.7294L23.5662 16.8355ZM23.5662 14.1427H21.5054C20.1179 14.1427 19.6078 14.7799 19.6078 15.5199C19.6078 16.3011 20.1383 16.8355 21.1381 16.8355C22.6684 16.8355 23.5866 15.9311 23.5866 14.451V14.1427H23.5662Z" fill="#F5F5F5"/>
<path d="M29.8916 10.0725H30.8914L31.0342 10.9153H31.1158C31.2587 10.7303 31.4423 10.5659 31.6463 10.422C31.9932 10.1753 32.4829 9.90808 33.095 9.90808C33.8907 9.90808 34.462 10.237 34.8089 10.5659C35.0129 10.7509 35.1762 10.9564 35.319 11.2031H35.4006C35.5639 10.9564 35.7679 10.7509 36.0331 10.5659C36.4412 10.237 37.0737 9.90808 37.9307 9.90808C39.5222 9.90808 40.6852 11.1415 40.6852 12.9093V17.74H39.5426V12.9093C39.5426 11.7376 38.8693 10.9976 37.7879 10.9976C36.7881 10.9976 35.8903 11.8404 35.8903 12.9093V17.74H34.7477V12.9093C34.7477 11.7376 34.0744 10.9976 32.993 10.9976C31.9932 10.9976 31.0954 11.8404 31.0954 12.9093V17.74H29.9528V10.0725H29.8916Z" fill="#F5F5F5"/>
<path d="M47.3572 16.8355H47.2756C47.1327 17.0411 46.9491 17.2261 46.7247 17.37C46.337 17.6578 45.7657 17.9045 44.9087 17.9045C43.3172 17.9045 42.2358 16.9178 42.2358 15.5199C42.2358 14.0399 43.154 13.0532 45.2964 13.0532H47.3572V12.8271C47.3572 11.6554 46.6839 10.977 45.5208 10.977C44.3578 10.977 43.6845 11.5937 43.6233 12.2926H42.4807C42.5623 11.0592 43.6233 9.90808 45.5413 9.90808C47.3776 9.90808 48.5202 10.977 48.5202 12.8271V17.74H47.5204L47.3572 16.8355ZM47.3572 14.1427H45.2964C43.9089 14.1427 43.3989 14.7799 43.3989 15.5199C43.3989 16.3011 43.9294 16.8355 44.9291 16.8355C46.4594 16.8355 47.3776 15.9311 47.3776 14.451V14.1427H47.3572Z" fill="#F5F5F5"/>
<path d="M50.4177 10.0726H51.4175L51.5603 10.8332H51.642C51.948 10.3809 52.2541 10.0726 53.0906 10.0726H54.3965V11.1415H53.2539C52.1725 11.1415 51.5807 11.7376 51.5807 12.8271V17.7401H50.4381V10.0726H50.4177Z" fill="#F5F5F5"/>
<path d="M61.6193 15.2116C61.2317 16.9178 59.9666 17.9045 58.2731 17.9045C56.2123 17.9045 54.6208 16.3011 54.6208 13.9166C54.6208 11.532 56.2123 9.92865 58.2731 9.92865C59.9666 9.92865 61.2521 10.9359 61.6193 12.5393H60.4767C60.1707 11.532 59.3545 10.9976 58.2731 10.9976C56.8857 10.9976 55.7635 12.1487 55.7635 13.9166C55.7635 15.6844 56.8857 16.8356 58.2731 16.8356C59.3545 16.8356 60.1707 16.3216 60.4767 15.2322H61.6193V15.2116Z" fill="#F5F5F5"/>
<path d="M67.7202 16.8355H67.6386C67.4958 17.0411 67.3121 17.2261 67.0877 17.37C66.7 17.6578 66.1287 17.9045 65.2718 17.9045C63.6803 17.9045 62.5989 16.9178 62.5989 15.5199C62.5989 14.0399 63.517 13.0532 65.6594 13.0532H67.7202V12.8271C67.7202 11.6554 67.0469 10.977 65.8839 10.977C64.7209 10.977 64.0475 11.5937 63.9863 12.2926H62.8437C62.9253 11.0592 63.9863 9.90808 65.9043 9.90808C67.7406 9.90808 68.8832 10.977 68.8832 12.8271V17.74H67.8835L67.7202 16.8355ZM67.7202 14.1427H65.6594C64.272 14.1427 63.7619 14.7799 63.7619 15.5199C63.7619 16.3011 64.2924 16.8355 65.2922 16.8355C66.8225 16.8355 67.7406 15.9311 67.7406 14.451V14.1427H67.7202Z" fill="#F5F5F5"/>
<path d="M79.6156 16.6711H79.534C78.9218 17.4522 78.1669 17.9044 77.0855 17.9044C75.0859 17.9044 73.576 16.3011 73.576 13.9165C73.576 11.532 75.0859 9.92862 77.0855 9.92862C78.1669 9.92862 78.9218 10.3809 79.534 11.162H79.6156V6.98907H80.7582V17.74H79.7788L79.6156 16.6711ZM79.6156 13.9165C79.6156 12.1487 78.473 10.9975 77.1671 10.9975C75.8613 10.9975 74.7187 12.1487 74.7187 13.9165C74.7187 15.6844 75.8613 16.8355 77.1671 16.8355C78.473 16.8355 79.6156 15.6844 79.6156 13.9165Z" fill="#F5F5F5"/>
<path d="M89.2259 15.6022C88.6954 17.0822 87.5528 17.9045 85.9409 17.9045C83.8801 17.9045 82.2886 16.3011 82.2886 13.9166C82.2886 11.532 83.8801 9.92865 85.9409 9.92865C87.9404 9.92865 89.4503 11.4704 89.4503 13.6082C89.4503 13.9166 89.4299 14.1221 89.4095 14.266L89.3891 14.451H83.4312C83.5944 15.9105 84.6758 16.8356 85.9409 16.8356C86.859 16.8356 87.614 16.3833 88.0016 15.6022H89.2259ZM88.3077 13.3615C88.2261 11.9637 87.2467 10.977 85.9409 10.977C84.5534 10.977 83.5944 11.9637 83.4312 13.3615H88.3077Z" fill="#F5F5F5"/>
</svg>
