<svg width="52" height="38" viewBox="0 0 52 38" fill="none" xmlns="http://www.w3.org/2000/svg">
<path fill-rule="evenodd" clip-rule="evenodd" d="M9.77587 4.40134C7.36631 4.43946 2.91861 5.61624 0.887283 13.8299C0.00253594 17.4094 -0.339726 21.1405 0.417529 25.5816C1.1166 29.677 2.35473 33.2124 3.18814 35.1611C3.47564 35.832 3.92144 36.5318 4.26541 36.963C5.2554 38.2017 6.90339 38.1229 7.59563 37.7848C8.35031 37.4172 9.21798 36.5284 8.90306 34.5002C8.75247 33.5209 8.31438 32.0873 8.06795 31.2902C7.3124 28.845 6.30529 25.895 6.21802 23.7931C6.10079 20.9812 7.21999 20.6136 7.96355 20.4517C9.21364 20.1798 10.2619 21.5387 11.2578 23.2424C12.4454 25.2749 14.4828 28.8781 16.1436 31.6299C17.6435 34.113 20.4116 36.7724 24.8568 36.5903C29.3874 36.4048 32.728 34.6925 34.4487 29.3034C35.7364 25.2715 36.6143 22.2589 38.0261 19.1733C39.6502 15.6252 41.8167 13.7257 43.6409 14.3053C45.3343 14.8441 45.757 16.4826 45.7775 18.8921C45.7955 21.0244 45.5465 23.3738 45.3531 25.0995C45.2829 25.7257 45.1555 26.9863 45.2077 27.686C45.3095 29.0611 45.911 30.4353 47.4752 30.6547C49.1411 30.8886 50.4785 29.5703 51.0124 27.9767C51.2229 27.3481 51.4026 26.3873 51.4993 25.7053C51.9887 22.2614 52.1162 19.946 51.8955 16.4224C51.6371 12.3016 50.8225 8.54335 49.4021 5.29176C48.0425 2.18164 45.8588 0.189008 43.0591 0.0127878C39.9591 -0.182071 36.4021 1.85463 34.5359 5.80517C32.816 9.44648 31.4402 13.1844 30.6059 15.0923C29.7588 17.0274 28.5147 18.2202 26.6023 18.4192C24.263 18.6624 22.2478 16.9815 20.7718 14.5857C19.485 12.4956 16.9351 8.51709 15.5703 7.18104C14.2886 5.92547 12.8245 4.35305 9.77587 4.40134Z" fill="#019DF4"/>
</svg>
