<svg width="24" height="24" viewBox="0 0 24 24" fill="none" xmlns="http://www.w3.org/2000/svg">
<g clip-path="url(#clip0_748_5457)">
<path d="M9.59593 19.1612C4.31306 19.1612 0.0307617 14.8789 0.0307617 9.59601C0.0307617 7.05873 1.03816 4.62731 2.83099 2.83107C6.62837 -0.843374 12.683 -0.744341 16.3575 3.04963C19.9499 6.75822 19.9499 12.6489 16.3575 16.3575C14.568 18.1572 12.1332 19.168 9.59593 19.1612ZM9.59593 1.39681C5.06776 1.39681 1.39673 5.06784 1.39673 9.59601C1.39673 11.7713 2.2607 13.8544 3.79741 15.3945C7.01084 18.5841 12.2049 18.5636 15.3944 15.3501C18.5669 12.1538 18.5669 6.99726 15.3944 3.80091C13.8577 2.25395 11.7712 1.38998 9.59593 1.39681Z" fill="#50535A"/>
<path d="M23.2864 23.9695C23.1054 23.9695 22.9313 23.8977 22.8049 23.768L15.3945 16.3576C15.1384 16.081 15.1589 15.6473 15.4355 15.3912C15.6985 15.1522 16.098 15.1522 16.361 15.3912L23.7713 22.8016C24.0377 23.0679 24.0377 23.5016 23.7713 23.768C23.6381 23.8977 23.4674 23.9695 23.2864 23.9695Z" fill="#50535A"/>
</g>
<defs>
<clipPath id="clip0_748_5457">
<rect width="24" height="24" fill="white"/>
</clipPath>
</defs>
</svg>
