<svg width="24" height="24" viewBox="0 0 24 24" fill="none" xmlns="http://www.w3.org/2000/svg">
<path d="M16.2571 19.008C16.1641 19.008 16.0681 18.993 15.9751 18.966L2.19607 14.817C1.77307 14.688 1.47607 14.277 1.47607 13.818V10.122C1.47607 9.657 1.76407 9.258 2.19307 9.123H2.19607L15.9751 4.974C16.2691 4.884 16.5841 4.941 16.8331 5.127C17.0971 5.322 17.2531 5.637 17.2531 5.973V17.97C17.2531 18.303 17.0971 18.621 16.8361 18.813C16.6621 18.942 16.4611 19.008 16.2571 19.008ZM2.62207 13.749L16.1071 17.811V6.132L2.62207 10.191V13.749Z" fill="#313235"/>
<path d="M2.01294 15.372C1.69494 15.372 1.43994 15.114 1.43994 14.799V9.141C1.43994 8.823 1.69794 8.568 2.01294 8.568C2.32794 8.568 2.58594 8.826 2.58594 9.141V14.799C2.58594 15.117 2.33094 15.372 2.01294 15.372ZM21.9449 12.306H19.6049C19.2809 12.306 19.0199 12.045 19.0199 11.721C19.0199 11.397 19.2809 11.136 19.6049 11.136H21.9449C22.2689 11.136 22.5299 11.397 22.5299 11.721C22.5299 12.045 22.2689 12.306 21.9449 12.306ZM9.08094 18.501C8.99394 18.501 8.90394 18.489 8.81694 18.459L6.38694 17.697C5.92494 17.553 5.66694 17.058 5.81094 16.596L6.06294 15.795C6.20694 15.333 6.70194 15.075 7.16394 15.219L9.59394 15.981C9.81894 16.05 10.0019 16.203 10.1099 16.413C10.2179 16.62 10.2389 16.86 10.1699 17.082L9.91794 17.883C9.84894 18.108 9.69594 18.291 9.48594 18.399C9.35994 18.468 9.22194 18.501 9.08094 18.501ZM7.01694 16.671L8.88894 17.259L8.96394 17.019L7.09194 16.431L7.01694 16.671ZM21.1799 18.294C21.0299 18.294 20.8799 18.237 20.7659 18.123L19.1519 16.509C18.9239 16.281 18.9239 15.909 19.1519 15.681C19.3799 15.453 19.7519 15.453 19.9799 15.681L21.5939 17.295C21.8219 17.523 21.8219 17.895 21.5939 18.123C21.4799 18.237 21.3299 18.294 21.1799 18.294ZM19.5329 7.90499C19.3829 7.90499 19.2329 7.84799 19.1189 7.73399C18.8909 7.50599 18.8909 7.13399 19.1189 6.90599L20.7749 5.24999C21.0029 5.02199 21.3749 5.02199 21.6029 5.24999C21.8309 5.47799 21.8309 5.85 21.6029 6.078L19.9469 7.73399C19.8329 7.84799 19.6829 7.90499 19.5329 7.90499Z" fill="#313235"/>
</svg>
