<svg width="66" height="15" viewBox="0 0 66 15" fill="none" xmlns="http://www.w3.org/2000/svg">
<path d="M7.5 3.18774e-07C6.01664 3.18774e-07 4.56659 0.439868 3.33323 1.26398C2.09986 2.08809 1.13856 3.25943 0.570907 4.62987C0.00324961 6.00032 -0.145275 7.50832 0.144114 8.96317C0.433503 10.418 1.14781 11.7544 2.1967 12.8033C3.2456 13.8522 4.58197 14.5665 6.03682 14.8559C7.49168 15.1453 8.99968 14.9967 10.3701 14.4291C11.7406 13.8614 12.9119 12.9001 13.736 11.6668C14.5601 10.4334 15 8.98336 15 7.5C15.0003 6.515 14.8065 5.53961 14.4297 4.62953C14.0529 3.71946 13.5004 2.89255 12.8039 2.19606C12.1074 1.49956 11.2805 0.947127 10.3705 0.570319C9.46039 0.19351 8.485 -0.000286894 7.5 3.18774e-07ZM12.0796 11.2904C12.0796 11.2904 11.7167 9.64879 11.1243 8.6673C10.803 8.13174 10.3068 7.69673 9.64442 7.70985C9.17881 7.70985 8.77004 7.97435 8.26946 8.68041C7.97625 9.16167 7.71836 9.66357 7.49782 10.1822C7.49782 10.1822 7.31638 9.76027 7.10434 9.34276C6.99489 9.115 6.86848 8.89579 6.72617 8.68697C6.22341 7.98091 5.81682 7.72515 5.35121 7.71641C4.69543 7.70329 4.19266 8.1383 3.87351 8.67167C3.28112 9.65534 2.91825 11.2948 2.91825 11.2948H2.37832L5.25722 1.84494L7.48251 9.22253L7.49782 9.23564L7.51312 9.22253L9.73841 1.84494L12.6195 11.2904H12.0796Z" fill="#50535A"/>
<path d="M41.6163 4.19899C40.9634 4.19899 40.3253 4.39258 39.7825 4.75527C39.2396 5.11797 38.8166 5.63348 38.5667 6.23662C38.3169 6.83976 38.2515 7.50344 38.3789 8.14373C38.5063 8.78402 38.8206 9.37216 39.2823 9.83378C39.7439 10.2954 40.332 10.6098 40.9723 10.7371C41.6126 10.8645 42.2763 10.7991 42.8794 10.5493C43.4826 10.2995 43.9981 9.87641 44.3608 9.33359C44.7235 8.79078 44.9171 8.15261 44.9171 7.49977C44.9165 6.62453 44.5685 5.7853 43.9496 5.16641C43.3307 4.54751 42.4915 4.19957 41.6163 4.19899ZM41.6163 9.56331C41.2082 9.56288 40.8095 9.44149 40.4704 9.21448C40.1314 8.98747 39.8672 8.66504 39.7114 8.28794C39.5555 7.91084 39.515 7.496 39.5948 7.09586C39.6747 6.69572 39.8714 6.32823 40.1601 6.03986C40.4488 5.75149 40.8165 5.55517 41.2167 5.47573C41.6169 5.39628 42.0317 5.43728 42.4086 5.59352C42.7856 5.74977 43.1077 6.01426 43.3344 6.35356C43.561 6.69286 43.682 7.09174 43.682 7.49977C43.682 7.77095 43.6285 8.03946 43.5247 8.28996C43.4209 8.54046 43.2687 8.76804 43.0768 8.95969C42.885 9.15134 42.6572 9.30329 42.4066 9.40686C42.156 9.51044 41.8874 9.5636 41.6163 9.56331ZM36.2432 8.22114V5.43624H37.8389V4.19899H36.2432V2.55078H35.006V8.22114C35.0065 8.56082 35.0741 8.89705 35.2047 9.21059C35.3354 9.52414 35.5266 9.80885 35.7674 10.0484C36.0082 10.288 36.2938 10.4778 36.608 10.6068C36.9222 10.7359 37.2588 10.8017 37.5985 10.8006H37.8608V9.56331H37.5985C37.4213 9.56446 37.2456 9.53063 37.0815 9.46375C36.9174 9.39687 36.7681 9.29825 36.6422 9.17356C36.5163 9.04887 36.4163 8.90056 36.3478 8.73712C36.2793 8.57369 36.2438 8.39834 36.2432 8.22114ZM52.6816 4.19899C52.0287 4.19899 51.3905 4.39258 50.8477 4.75527C50.3049 5.11797 49.8819 5.63348 49.632 6.23662C49.3822 6.83976 49.3168 7.50344 49.4442 8.14373C49.5716 8.78402 49.8859 9.37216 50.3475 9.83378C50.8092 10.2954 51.3973 10.6098 52.0376 10.7371C52.6779 10.8645 53.3416 10.7991 53.9447 10.5493C54.5479 10.2995 55.0634 9.87641 55.4261 9.33359C55.7888 8.79078 55.9823 8.15261 55.9823 7.49977C55.9818 6.62453 55.6338 5.7853 55.0149 5.16641C54.396 4.54751 53.5568 4.19957 52.6816 4.19899ZM52.6816 9.56331C52.2734 9.56331 51.8745 9.44229 51.5351 9.21554C51.1958 8.9888 50.9313 8.66652 50.7751 8.28946C50.6189 7.91239 50.578 7.49749 50.6577 7.0972C50.7373 6.69691 50.9338 6.32922 51.2224 6.04063C51.511 5.75204 51.8787 5.55551 52.279 5.47589C52.6793 5.39627 53.0942 5.43713 53.4712 5.59331C53.8483 5.7495 54.1706 6.01399 54.3973 6.35333C54.6241 6.69268 54.7451 7.09165 54.7451 7.49977C54.7451 8.04706 54.5277 8.57193 54.1407 8.95892C53.7537 9.3459 53.2288 9.56331 52.6816 9.56331ZM62.1773 4.19899C61.6467 4.19825 61.1237 4.32547 60.6527 4.56985C60.1816 4.81422 59.7765 5.16856 59.4715 5.60283C59.1665 6.03709 58.9708 6.53848 58.9008 7.06449C58.8308 7.5905 58.8887 8.12563 59.0695 8.62452C59.2503 9.12341 59.5488 9.57135 59.9395 9.93038C60.3303 10.2894 60.8018 10.5489 61.3142 10.6869C61.8266 10.825 62.3647 10.8374 62.8829 10.7233C63.4011 10.6091 63.8842 10.3717 64.2911 10.0311V10.7109H65.4737V7.59596C65.4737 7.56317 65.4737 7.53256 65.4737 7.49977C65.4732 6.6268 65.127 5.78954 64.511 5.17103C63.8949 4.55251 63.059 4.20303 62.1861 4.19899H62.1773ZM62.1773 9.56331C61.7692 9.56331 61.3702 9.44229 61.0309 9.21554C60.6915 8.9888 60.4271 8.66652 60.2709 8.28946C60.1147 7.91239 60.0738 7.49749 60.1534 7.0972C60.2331 6.69691 60.4296 6.32922 60.7182 6.04063C61.0068 5.75204 61.3745 5.55551 61.7748 5.47589C62.175 5.39627 62.5899 5.43713 62.967 5.59331C63.3441 5.7495 63.6664 6.01399 63.8931 6.35333C64.1198 6.69268 64.2409 7.09165 64.2409 7.49977C64.2403 8.04537 64.0239 8.56859 63.6389 8.9552C63.254 9.34181 62.7317 9.56043 62.1861 9.56331H62.1773ZM45.7455 6.77622V10.7109H46.9806V6.77622C46.9812 6.41986 47.123 6.07825 47.375 5.82626C47.627 5.57427 47.9686 5.43244 48.325 5.43186H48.913V4.19899H48.325C47.6416 4.20014 46.9865 4.47197 46.5031 4.95499C46.0197 5.438 45.7473 6.09285 45.7455 6.77622ZM56.8174 10.7109H58.0568V2.55078H56.8174V10.7109ZM24.1702 4.19899C23.7962 4.19893 23.4266 4.28 23.0869 4.43662C22.7473 4.59324 22.4457 4.82167 22.2028 5.10616C21.8613 4.70489 21.4048 4.41809 20.895 4.28446C20.3853 4.15083 19.8468 4.1768 19.3523 4.35888C18.8578 4.54095 18.4311 4.87036 18.1297 5.30264C17.8283 5.73492 17.6668 6.24926 17.667 6.77622V10.7109H18.9042V6.77622C18.8969 6.59527 18.9263 6.4147 18.9905 6.24536C19.0547 6.07602 19.1525 5.9214 19.2779 5.79078C19.4034 5.66016 19.5539 5.55624 19.7205 5.48525C19.8872 5.41426 20.0664 5.37767 20.2475 5.37767C20.4286 5.37767 20.6079 5.41426 20.7745 5.48525C20.9411 5.55624 21.0916 5.66016 21.2171 5.79078C21.3425 5.9214 21.4403 6.07602 21.5045 6.24536C21.5687 6.4147 21.5981 6.59527 21.5908 6.77622V10.7109H22.828V6.77622C22.8207 6.59527 22.8501 6.4147 22.9143 6.24536C22.9785 6.07602 23.0763 5.9214 23.2017 5.79078C23.3272 5.66016 23.4777 5.55624 23.6443 5.48525C23.8109 5.41426 23.9902 5.37767 24.1713 5.37767C24.3524 5.37767 24.5316 5.41426 24.6982 5.48525C24.8649 5.55624 25.0154 5.66016 25.1409 5.79078C25.2663 5.9214 25.3641 6.07602 25.4283 6.24536C25.4925 6.4147 25.5219 6.59527 25.5146 6.77622V10.7109H26.7496V6.77622C26.7479 6.09285 26.4755 5.438 25.9921 4.95499C25.5087 4.47197 24.8536 4.20014 24.1702 4.19899ZM30.8876 4.19899C30.2344 4.19726 29.5954 4.38937 29.0514 4.75102C28.5075 5.11266 28.083 5.62756 27.8319 6.23055C27.5807 6.83353 27.5141 7.49748 27.6405 8.13835C27.7668 8.77921 28.0805 9.36817 28.5418 9.83067C29.0031 10.2932 29.5912 10.6084 30.2317 10.7365C30.8722 10.8646 31.5364 10.7997 32.14 10.5501C32.7437 10.3006 33.2597 9.8775 33.6228 9.3345C33.9859 8.7915 34.1797 8.15298 34.1797 7.49977C34.1785 6.62622 33.8316 5.78864 33.2147 5.17012C32.5978 4.5516 31.7612 4.20245 30.8876 4.19899ZM30.8876 9.56331C30.4796 9.56288 30.0808 9.44149 29.7418 9.21448C29.4027 8.98747 29.1386 8.66504 28.9827 8.28794C28.8269 7.91084 28.7863 7.496 28.8662 7.09586C28.9461 6.69572 29.1428 6.32823 29.4314 6.03986C29.7201 5.75149 30.0878 5.55517 30.488 5.47573C30.8883 5.39628 31.3031 5.43728 31.68 5.59352C32.0569 5.74977 32.3791 6.01426 32.6057 6.35356C32.8324 6.69286 32.9533 7.09174 32.9533 7.49977C32.9533 7.77095 32.8999 8.03946 32.7961 8.28996C32.6922 8.54046 32.54 8.76804 32.3482 8.95969C32.1563 9.15134 31.9286 9.30329 31.678 9.40686C31.4274 9.51044 31.1588 9.5636 30.8876 9.56331Z" fill="#50535A"/>
</svg>
