<svg width="24" height="24" viewBox="0 0 24 24" fill="none" xmlns="http://www.w3.org/2000/svg">
<path d="M19.9024 24H4.09756C1.90244 24 0 22.0976 0 19.9024V4.09756C0 1.90244 1.90244 0 4.09756 0H19.9024C22.0976 0 24 1.90244 24 4.09756V19.9024C24 22.0976 22.0976 24 19.9024 24Z" fill="#019DF4"/>
<path d="M7.28781 7.69755C6.58537 7.69755 5.29756 8.10731 4.68293 10.5073C4.39025 11.5024 4.27317 12.6146 4.59513 13.9024C4.8 15.1024 5.20976 16.0976 5.38537 16.7122C5.47317 16.9171 5.59025 17.1219 5.67805 17.2097C5.97074 17.6195 6.4683 17.5024 6.67317 17.4146C6.87805 17.3268 7.17074 17.0049 7.08293 16.4195C7.08293 16.1268 6.87805 15.7171 6.87805 15.5122C6.67317 14.8097 6.38049 13.9024 6.38049 13.3171C6.38049 12.5268 6.67317 12.4097 6.87805 12.3219C7.28781 12.2341 7.58049 12.6146 7.87317 13.1122C8.16586 13.6976 8.78049 14.8097 9.27805 15.6C9.68781 16.3024 10.4781 17.0927 11.7659 17.0927C13.0537 17.0049 14.0781 16.478 14.5756 14.9854C14.9854 13.7854 15.161 12.878 15.5707 12C16.0683 11.0049 16.6829 10.3902 17.1805 10.5951C17.6781 10.8 17.7659 11.2097 17.7659 11.8829C17.7659 12.4683 17.6781 13.1707 17.6781 13.6683C17.6781 13.8732 17.5902 14.2829 17.6781 14.4585C17.6781 14.8683 17.8829 15.2488 18.3805 15.3658C18.8781 15.4536 19.2878 15.0732 19.3756 14.5756C19.4634 14.3707 19.4634 14.078 19.4634 13.8732C19.5512 12.878 19.6683 12.1756 19.5512 11.1805C19.3463 9.98048 19.1415 8.86828 18.761 7.99024C18.3512 7.08292 17.7659 6.49755 16.9756 6.49755C16.0683 6.40975 14.9854 6.99511 14.4878 8.10731C13.9902 9.2195 13.5805 10.3024 13.3756 10.8C13.1707 11.3854 12.761 11.7073 12.1756 11.7951C11.4732 11.8829 10.8878 11.3854 10.4781 10.6829C10.0683 10.0976 9.36586 8.86828 8.98537 8.4878C8.60488 8.19511 8.19513 7.69755 7.28781 7.69755Z" fill="white"/>
</svg>
