<svg width="24" height="24" viewBox="0 0 24 24" fill="none" xmlns="http://www.w3.org/2000/svg">
<path d="M6.10303 12.1199C6.02314 12.0646 5.98627 12.0031 5.98627 11.9079C5.98934 11.785 6.09074 11.6866 6.21364 11.6897C6.27202 11.6928 6.3304 11.7112 6.37957 11.745C6.73292 11.9785 7.22454 12.2151 7.79605 12.2151C8.65025 12.2151 9.1726 11.7757 9.1726 11.1274C9.1726 10.5959 8.87455 10.2179 7.89745 10.095L7.64549 10.0643C6.60387 9.93216 6.11839 9.43132 6.11839 8.65394C6.11839 7.72907 6.77594 7.15756 7.78684 7.15756C8.3522 7.15756 8.82846 7.30505 9.15723 7.51092C9.25863 7.57237 9.30472 7.65226 9.30472 7.72907C9.30472 7.84583 9.21254 7.94109 9.09578 7.94109H9.09271C9.0374 7.93801 8.98517 7.92265 8.936 7.895C8.57651 7.69835 8.19857 7.58159 7.7684 7.58159C6.99409 7.58159 6.56085 8.01176 6.56085 8.614C6.56085 9.16093 6.89884 9.51428 7.81449 9.63104L8.05723 9.66177C9.11729 9.79389 9.61813 10.2947 9.61813 11.0936C9.61813 11.9939 8.97595 12.6361 7.73767 12.6361C7.15387 12.6299 6.58543 12.4517 6.10303 12.1199Z" fill="#019DF4"/>
<path d="M7.74073 12.8665C7.10776 12.8603 6.49323 12.6668 5.97088 12.3073C5.82647 12.2059 5.7558 12.0737 5.7558 11.9078C5.75887 11.6559 5.96167 11.4561 6.21362 11.4592C6.31809 11.4623 6.41949 11.493 6.50552 11.5514C6.93569 11.8371 7.36894 11.9816 7.79603 11.9816C8.50274 11.9816 8.94213 11.6528 8.94213 11.1243C8.94213 10.7771 8.81308 10.4391 7.8667 10.3193L7.61782 10.2885C6.18904 10.1042 5.88792 9.29606 5.88792 8.65081C5.88792 7.60303 6.63457 6.92398 7.78682 6.92398C8.34604 6.92398 8.87453 7.06225 9.28012 7.31113C9.50442 7.4494 9.53822 7.63069 9.53822 7.72594C9.53822 7.97175 9.34157 8.1684 9.09576 8.1684C9.00358 8.16533 8.91448 8.14075 8.83766 8.09773L8.83151 8.09466C8.47509 7.90108 8.1371 7.8089 7.77452 7.8089C7.16307 7.8089 6.79742 8.11002 6.79742 8.61086C6.79742 8.82287 6.79742 9.26533 7.84827 9.40053L8.09101 9.43126C9.54437 9.61562 9.85163 10.436 9.85163 11.0936C9.85163 11.619 9.65806 12.0614 9.29548 12.3779C8.92369 12.6975 8.38905 12.8665 7.74073 12.8665ZM6.23513 11.9293C6.35189 12.0123 6.47787 12.0829 6.60692 12.1444C6.48401 12.0829 6.36418 12.0123 6.24742 11.9324C6.24128 11.9262 6.23206 11.9232 6.22284 11.9201L6.23513 11.9293ZM8.33375 9.93824C8.78542 10.0519 9.09269 10.2486 9.25861 10.5313C9.05274 10.1564 8.64408 10.0058 8.33375 9.93824ZM6.42256 9.09019C6.55161 9.42511 6.84659 9.64634 7.3167 9.76618C6.85888 9.63405 6.5639 9.41282 6.42256 9.09019Z" fill="#019DF4"/>
<path d="M7.80223 13.5824C7.59022 13.5824 7.41815 13.4104 7.41815 13.1983V6.60753C7.41815 6.39552 7.59022 6.22345 7.80223 6.22345C8.01424 6.22345 8.18631 6.39552 8.18631 6.60753V13.1983C8.18631 13.4104 8.01424 13.5824 7.80223 13.5824Z" fill="#019DF4"/>
<path d="M7.8022 15.3031C6.09381 15.3031 4.76028 14.8515 3.83849 13.9635C2.87983 13.0386 2.39435 11.6713 2.39435 9.89528C2.39435 8.11929 2.87983 6.75197 3.83849 5.8271C4.76028 4.93911 6.09381 4.48743 7.8022 4.48743C9.51059 4.48743 10.8441 4.93911 11.7659 5.8271C12.7246 6.75197 13.2101 8.11929 13.2101 9.89528C13.2101 11.6713 12.7246 13.0386 11.7659 13.9635C10.8441 14.8515 9.51059 15.3031 7.8022 15.3031ZM7.8022 5.71648C6.42258 5.71648 5.37788 6.0514 4.69269 6.71202C3.9829 7.39415 3.62341 8.4665 3.62341 9.89528C3.62341 11.3241 3.9829 12.3964 4.69269 13.0785C5.37788 13.7392 6.42566 14.0741 7.8022 14.0741C9.17874 14.0741 10.2265 13.7392 10.9117 13.0785C11.6215 12.3964 11.981 11.3241 11.981 9.89528C11.981 8.4665 11.6215 7.39415 10.9117 6.71202C10.2265 6.0514 9.18182 5.71648 7.8022 5.71648Z" fill="#019DF4"/>
<path d="M17.985 22.8004H10.795C9.58129 22.8004 8.69637 22.5085 8.09106 21.9093C7.47961 21.304 7.18463 20.4129 7.18463 19.19V15.0419C7.18463 14.7039 7.46117 14.4274 7.79916 14.4274C8.13715 14.4274 8.41369 14.7039 8.41369 15.0419V19.19C8.41369 20.926 9.05894 21.5713 10.795 21.5713H17.985C19.721 21.5713 20.3663 20.926 20.3663 19.19V4.81003C20.3663 3.94047 20.1881 3.33824 19.8255 2.97259C19.4629 2.60695 18.8576 2.42873 17.985 2.42873H10.795C9.10503 2.42873 8.41369 3.12008 8.41369 4.81003C8.41369 5.14802 8.13715 5.42456 7.79916 5.42456C7.46117 5.42456 7.18463 5.14802 7.18463 4.81003C7.18463 3.61785 7.4796 2.74214 8.08799 2.12454C8.70559 1.50387 9.59051 1.19968 10.795 1.19968H17.985C19.2017 1.19968 20.0867 1.49465 20.695 2.10611C21.3034 2.71756 21.5953 3.59941 21.5953 4.81003V19.19C21.5953 20.4129 21.2973 21.304 20.6889 21.9093C20.0836 22.5085 19.1987 22.8004 17.985 22.8004Z" fill="#019DF4"/>
<path d="M14.3899 18.0992C13.8369 18.0992 13.4774 18.3911 13.4774 19.0149C13.4774 19.316 13.5603 19.5372 13.7078 19.6878C13.8676 19.8506 14.1011 19.9305 14.3899 19.9305C14.6788 19.9305 14.9123 19.8506 15.0721 19.6878C15.2195 19.5372 15.3025 19.3129 15.3025 19.0149C15.3025 18.3911 14.943 18.0992 14.3899 18.0992Z" fill="#019DF4"/>
<path d="M14.39 20.2408C14.0151 20.2408 13.7017 20.1241 13.4897 19.9059C13.2777 19.6878 13.1732 19.3897 13.1732 19.0179C13.1732 18.2528 13.628 17.795 14.3931 17.795C15.1581 17.795 15.6129 18.2528 15.6129 19.0179C15.6129 19.3928 15.5054 19.6908 15.2964 19.9059C15.0875 20.121 14.7679 20.2408 14.39 20.2408ZM14.39 18.4095C13.9721 18.4095 13.7847 18.597 13.7847 19.0179C13.7847 19.2269 13.8338 19.3805 13.926 19.4757C14.0182 19.571 14.178 19.6263 14.3869 19.6263C14.5959 19.6263 14.7526 19.5771 14.8478 19.4757C14.9431 19.3744 14.9891 19.2238 14.9891 19.0179C14.9953 18.597 14.8079 18.4065 14.39 18.4095Z" fill="#019DF4"/>
</svg>
