<?xml version="1.0" encoding="utf-8"?>
<!-- Generator: Adobe Illustrator 16.0.0, SVG Export Plug-In . SVG Version: 6.00 Build 0)  -->
<!DOCTYPE svg PUBLIC "-//W3C//DTD SVG 1.1//EN" "http://www.w3.org/Graphics/SVG/1.1/DTD/svg11.dtd">
<svg version="1.1" id="Capa_1" xmlns="http://www.w3.org/2000/svg" xmlns:xlink="http://www.w3.org/1999/xlink" x="0px" y="0px"
	 width="470.581px" height="28.58px" viewBox="0 0 470.581 28.58" enable-background="new 0 0 470.581 28.58" xml:space="preserve">
<g>
	<g>
		<g>
			<g>
				<path fill="#FBED21" d="M221.62,23.187c0,1.443-1.183,2.625-2.625,2.625H200.78c-1.445,0-2.623-1.18-2.623-2.625V4.972
					c0-1.442,1.178-2.625,2.623-2.625h18.215c1.442,0,2.625,1.181,2.625,2.625V23.187z"/>
			</g>
			<path fill="#FFFFFF" stroke="#000000" stroke-width="0.6561" stroke-miterlimit="10" d="M202.715,17.871c0-0.076,0-0.149,0-0.224
				c0.088-0.108,0.191-0.199,0.34-0.229c1.178-0.236,1.969-0.986,2.566-1.975c0.5-0.834,0.418-1.023-0.504-1.349
				c-0.053-0.018-0.105-0.036-0.16-0.056c-0.195-0.083-0.396-0.168-0.562-0.311c-0.413-0.356-0.172-0.878,0.316-0.994
				c0.354-0.087,0.668,0.142,1.01,0.185c0.231,0.028,0.32-0.049,0.299-0.294c-0.075-0.636-0.073-1.271-0.041-1.907
				c0.058-1.214,0.654-2.139,1.664-2.738c1.479-0.875,3.021-0.888,4.509-0.017c0.93,0.546,1.528,1.372,1.657,2.477
				c0.084,0.72,0.052,1.44-0.004,2.161c-0.024,0.309,0.037,0.365,0.351,0.297c0.385-0.091,0.703-0.287,1.108-0.112
				c0.213,0.092,0.397,0.296,0.396,0.528c-0.008,0.157-0.101,0.304-0.219,0.408c-0.189,0.161-0.427,0.249-0.646,0.339
				c-0.178,0.074-0.355,0.127-0.523,0.205c-0.35,0.164-0.451,0.378-0.289,0.723c0.568,1.195,1.398,2.104,2.74,2.421
				c0.166,0.036,0.297,0.103,0.396,0.237c0,0.076,0,0.149,0,0.225c-0.129,0.26-0.355,0.406-0.613,0.505
				c-0.262,0.099-0.527,0.213-0.809,0.229c-0.392,0.023-0.597,0.193-0.654,0.6c-0.055,0.385-0.174,0.439-0.568,0.408
				c-0.09-0.008-0.184-0.025-0.275-0.037c-0.771-0.137-1.492-0.059-2.125,0.451c-0.125,0.102-0.26,0.186-0.396,0.271
				c-1.076,0.701-2.183,0.781-3.31,0.123c-0.305-0.181-0.598-0.385-0.896-0.577c-0.243-0.162-0.514-0.25-0.807-0.297
				c-0.466-0.074-0.916,0.03-1.367,0.082c-0.233,0.027-0.463-0.04-0.476-0.283c-0.026-0.58-0.387-0.725-0.877-0.777
				c-0.229-0.026-0.451-0.117-0.67-0.209C203.036,18.258,202.825,18.118,202.715,17.871z"/>
		</g>
		<g>
			<circle fill="#1EA2F2" cx="132.909" cy="14.354" r="11.733"/>
			<path fill="#FFFFFF" d="M139.39,10.335c-0.407,0.182-0.854,0.296-1.293,0.369c0.207-0.035,0.517-0.412,0.636-0.565
				c0.188-0.235,0.344-0.498,0.43-0.785c0.012-0.025,0.02-0.051-0.002-0.066c-0.027-0.015-0.047-0.006-0.07,0.005
				c-0.488,0.261-0.996,0.452-1.535,0.586c-0.043,0.013-0.078,0-0.104-0.028c-0.043-0.051-0.086-0.1-0.135-0.137
				c-0.228-0.19-0.468-0.345-0.74-0.456c-0.359-0.147-0.754-0.208-1.144-0.183c-0.375,0.024-0.744,0.13-1.08,0.302
				c-0.334,0.177-0.631,0.418-0.87,0.712c-0.246,0.303-0.431,0.665-0.521,1.046c-0.09,0.362-0.084,0.729-0.029,1.101
				c0.009,0.062,0.004,0.069-0.053,0.062c-2.104-0.315-3.854-1.069-5.273-2.686c-0.061-0.07-0.092-0.07-0.145,0.006
				c-0.621,0.93-0.318,2.425,0.457,3.159c0.104,0.097,0.209,0.194,0.324,0.286c-0.041,0.009-0.56-0.047-1.019-0.286
				c-0.061-0.039-0.09-0.018-0.098,0.053c-0.004,0.101,0.006,0.19,0.02,0.298c0.119,0.947,0.771,1.816,1.666,2.159
				c0.107,0.043,0.224,0.082,0.339,0.103c-0.203,0.043-0.412,0.077-0.998,0.028c-0.074-0.017-0.101,0.024-0.074,0.088
				c0.438,1.199,1.389,1.556,2.098,1.759c0.09,0.018,0.189,0.018,0.283,0.037c-0.006,0.008-0.01,0.008-0.018,0.018
				c-0.236,0.357-1.054,0.627-1.435,0.757c-0.688,0.245-1.44,0.354-2.172,0.28c-0.117-0.019-0.141-0.017-0.174,0
				c-0.031,0.021-0.002,0.047,0.031,0.08c0.147,0.1,0.301,0.187,0.454,0.269c0.466,0.245,0.949,0.44,1.451,0.581
				c2.613,0.722,5.556,0.191,7.519-1.762c1.539-1.528,2.078-3.637,2.078-5.752c0-0.082,0.098-0.127,0.155-0.171
				c0.402-0.298,0.728-0.662,1.021-1.063c0.065-0.092,0.067-0.171,0.067-0.206c0-0.005,0-0.01,0-0.01
				C139.442,10.301,139.442,10.312,139.39,10.335z"/>
		</g>
		<g>
			<g>
				<path fill="#1978F1" d="M25.338,14.426c0-6.479-5.254-11.732-11.73-11.732c-6.479,0-11.732,5.253-11.732,11.732
					c0,5.856,4.292,10.709,9.899,11.59v-8.199H8.79v-3.39h2.979v-2.586c0-2.939,1.755-4.566,4.434-4.566
					c1.283,0,2.627,0.229,2.627,0.229v2.887h-1.48c-1.455,0-1.913,0.903-1.913,1.831v2.201h3.252l-0.519,3.393h-2.734v8.199
					C21.045,25.134,25.338,20.282,25.338,14.426z"/>
				<path fill="#FFFFFF" d="M18.171,17.815l0.52-3.389h-3.252v-2.201c0-0.928,0.455-1.832,1.913-1.832h1.479V7.506
					c0,0-1.343-0.229-2.625-0.229c-2.68,0-4.433,1.625-4.433,4.564v2.587h-2.98v3.389h2.98v8.201c0.598,0.09,1.21,0.137,1.83,0.137
					c0.623,0,1.235-0.047,1.831-0.137v-8.201L18.171,17.815L18.171,17.815z"/>
			</g>
		</g>
		<g>
			<path fill="#EE1D52" d="M176.336,11.026c1.492,1.068,3.322,1.7,5.299,1.7V8.923c-0.375,0-0.746-0.041-1.111-0.116V11.8
				c-1.979,0-3.811-0.629-5.303-1.695v7.753c0,3.883-3.148,7.025-7.027,7.025c-1.451,0-2.795-0.436-3.914-1.184
				c1.279,1.301,3.056,2.111,5.029,2.111c3.879,0,7.027-3.146,7.027-7.025V11.026L176.336,11.026z M177.708,7.194
				c-0.762-0.833-1.264-1.912-1.373-3.099V3.606h-1.057C175.545,5.118,176.452,6.412,177.708,7.194L177.708,7.194z M166.735,20.72
				c-0.425-0.56-0.656-1.242-0.656-1.945c0-1.773,1.44-3.211,3.217-3.211c0.33,0,0.656,0.047,0.977,0.15v-3.891
				c-0.373-0.049-0.74-0.071-1.115-0.063v3.025c-0.317-0.098-0.645-0.149-0.975-0.149c-1.775,0-3.219,1.437-3.219,3.212
				C164.963,19.104,165.685,20.19,166.735,20.72z"/>
			<path d="M175.22,10.104c1.496,1.065,3.322,1.696,5.304,1.696V8.806c-1.105-0.237-2.08-0.811-2.814-1.612
				c-1.256-0.785-2.164-2.079-2.432-3.59h-2.771v15.181c-0.002,1.771-1.442,3.202-3.211,3.202c-1.048,0-1.976-0.496-2.563-1.268
				c-1.049-0.531-1.768-1.619-1.768-2.873c0-1.777,1.439-3.214,3.217-3.214c0.34,0,0.666,0.053,0.973,0.148v-3.024
				c-3.813,0.078-6.883,3.198-6.883,7.025c0,1.914,0.766,3.645,2.004,4.914c1.121,0.748,2.463,1.185,3.916,1.185
				c3.877,0,7.025-3.146,7.025-7.022v-7.754H175.22z"/>
			<path fill="#69C9D0" d="M180.524,8.806V7.998c-0.998,0.001-1.974-0.277-2.814-0.804C178.454,8.011,179.44,8.576,180.524,8.806z
				 M175.278,3.604c-0.023-0.145-0.043-0.292-0.058-0.436v-0.49h-3.824v15.18c-0.006,1.771-1.444,3.203-3.215,3.203
				c-0.521,0-1.008-0.123-1.446-0.342c0.588,0.77,1.514,1.268,2.561,1.268c1.77,0,3.211-1.436,3.213-3.202V3.604H175.278z
				 M169.157,11.761v-0.863c-0.318-0.04-0.64-0.066-0.959-0.066c-3.886,0-7.031,3.148-7.031,7.024c0,2.435,1.236,4.576,3.117,5.838
				c-1.238-1.266-2.004-3-2.004-4.912C162.274,14.957,165.342,11.839,169.157,11.761L169.157,11.761z"/>
		</g>
		<g>
			<circle fill="#00BB68" cx="249.872" cy="14.5" r="11.731"/>
			<path fill="#FFFFFF" d="M254.394,19.188c-0.135,0.229-0.373,0.354-0.616,0.354c-0.121,0-0.244-0.028-0.357-0.099
				c-1.865-1.09-4.023-1.266-5.504-1.223c-1.641,0.051-2.846,0.375-2.857,0.377c-0.379,0.104-0.771-0.119-0.873-0.496
				c-0.105-0.379,0.117-0.77,0.494-0.873c0.057-0.017,1.35-0.365,3.15-0.428c1.063-0.033,2.084,0.039,3.033,0.221
				c1.207,0.228,2.311,0.629,3.272,1.194C254.472,18.415,254.592,18.851,254.394,19.188z"/>
			<path fill="#FFFFFF" d="M255.713,16.446c-0.156,0.269-0.438,0.418-0.729,0.418c-0.144,0-0.291-0.037-0.423-0.116
				c-2.213-1.291-4.766-1.5-6.521-1.449c-1.943,0.06-3.371,0.444-3.383,0.448c-0.449,0.123-0.914-0.139-1.033-0.588
				c-0.123-0.449,0.137-0.907,0.586-1.034c0.064-0.019,1.598-0.436,3.73-0.505c1.256-0.042,2.465,0.046,3.592,0.26
				c1.43,0.27,2.735,0.746,3.877,1.413C255.812,15.528,255.95,16.045,255.713,16.446z"/>
			<path fill="#FFFFFF" d="M256.526,13.952c-0.177,0-0.357-0.044-0.521-0.14c-5.256-3.075-12.078-1.246-12.148-1.229
				c-0.547,0.151-1.117-0.171-1.27-0.721c-0.15-0.55,0.174-1.119,0.725-1.27c0.076-0.025,1.959-0.533,4.572-0.619
				c1.543-0.055,3.025,0.052,4.412,0.315c1.752,0.333,3.35,0.916,4.752,1.736c0.494,0.287,0.66,0.916,0.369,1.411
				C257.226,13.767,256.883,13.952,256.526,13.952z"/>
		</g>
		<g>
			<g>
				<path fill="#FF0000" d="M303.974,17.752c0,2.886-2.364,5.25-5.252,5.25h-15.354c-2.883,0-5.246-2.362-5.246-5.25v-7.6
					c0-2.888,2.363-5.25,5.246-5.25h15.354c2.888,0,5.252,2.362,5.252,5.25V17.752z"/>
			</g>
			<path fill="#FFFFFF" d="M294.733,14.377l-5.277,2.608c-0.203,0.111-0.904-0.037-0.904-0.273v-5.353
				c0-0.24,0.705-0.387,0.914-0.268l5.045,2.744C294.722,13.957,294.948,14.263,294.733,14.377z"/>
		</g>
		<g>
			
				<linearGradient id="XMLID_4_" gradientUnits="userSpaceOnUse" x1="-1614.1978" y1="677.9268" x2="-1632.6683" y2="696.3973" gradientTransform="matrix(1 0 0 1 1716.9453 -672.9805)">
				<stop  offset="0.0139" style="stop-color:#49479B"/>
				<stop  offset="0.1603" style="stop-color:#6F469A"/>
				<stop  offset="0.3002" style="stop-color:#90469A"/>
				<stop  offset="0.3539" style="stop-color:#934493"/>
				<stop  offset="0.4301" style="stop-color:#9B3E81"/>
				<stop  offset="0.5193" style="stop-color:#A73462"/>
				<stop  offset="0.6036" style="stop-color:#B6293F"/>
				<stop  offset="0.8766" style="stop-color:#E19F37"/>
				<stop  offset="1" style="stop-color:#EED940"/>
			</linearGradient>
			<path id="XMLID_2_" fill="url(#XMLID_4_)" d="M93.284,5.086c3.036,0,3.397,0.014,4.599,0.066c1.107,0.051,1.71,0.239,2.11,0.392
				c0.529,0.208,0.908,0.453,1.306,0.852c0.401,0.399,0.646,0.778,0.853,1.31c0.156,0.399,0.342,1.001,0.391,2.107
				c0.057,1.202,0.066,1.558,0.066,4.598c0,3.037-0.012,3.398-0.066,4.594c-0.051,1.112-0.233,1.715-0.391,2.112
				c-0.207,0.53-0.453,0.909-0.853,1.307c-0.396,0.397-0.775,0.646-1.306,0.849c-0.403,0.156-1.005,0.346-2.11,0.396
				c-1.2,0.052-1.561,0.063-4.599,0.063c-3.036,0-3.396-0.012-4.597-0.063c-1.108-0.054-1.712-0.241-2.11-0.396
				c-0.531-0.205-0.908-0.451-1.31-0.849c-0.397-0.396-0.643-0.774-0.849-1.307c-0.156-0.4-0.343-1.003-0.393-2.112
				c-0.057-1.195-0.067-1.559-0.067-4.594c0-3.037,0.013-3.396,0.067-4.598c0.05-1.11,0.235-1.712,0.393-2.107
				c0.205-0.532,0.454-0.911,0.849-1.31c0.399-0.398,0.777-0.644,1.31-0.852c0.401-0.154,1.004-0.34,2.11-0.392
				C89.887,5.099,90.247,5.086,93.284,5.086 M93.284,3.037c-3.089,0-3.477,0.013-4.689,0.069c-1.209,0.055-2.038,0.248-2.759,0.528
				c-0.749,0.292-1.385,0.68-2.016,1.311c-0.633,0.631-1.021,1.266-1.313,2.014c-0.28,0.724-0.472,1.551-0.527,2.762
				c-0.055,1.215-0.069,1.602-0.069,4.69c0,3.086,0.016,3.475,0.069,4.689c0.057,1.213,0.247,2.037,0.527,2.758
				c0.292,0.746,0.68,1.384,1.313,2.015c0.631,0.629,1.266,1.021,2.016,1.312c0.723,0.278,1.551,0.473,2.759,0.526
				c1.214,0.056,1.604,0.069,4.689,0.069c3.088,0,3.476-0.016,4.689-0.069c1.21-0.056,2.039-0.248,2.76-0.526
				c0.747-0.293,1.383-0.683,2.015-1.312c0.63-0.631,1.021-1.269,1.313-2.015c0.281-0.725,0.473-1.551,0.526-2.758
				c0.057-1.215,0.07-1.604,0.07-4.689c0-3.089-0.015-3.475-0.07-4.69c-0.055-1.21-0.245-2.038-0.526-2.762
				c-0.291-0.748-0.681-1.38-1.313-2.014c-0.632-0.631-1.268-1.021-2.015-1.311c-0.724-0.281-1.552-0.475-2.76-0.528
				C96.759,3.05,96.373,3.037,93.284,3.037"/>
			
				<linearGradient id="XMLID_5_" gradientUnits="userSpaceOnUse" x1="-1614.2056" y1="677.9404" x2="-1632.6664" y2="696.4012" gradientTransform="matrix(1 0 0 1 1716.9453 -672.9805)">
				<stop  offset="0.0139" style="stop-color:#49479B"/>
				<stop  offset="0.1603" style="stop-color:#6F469A"/>
				<stop  offset="0.3002" style="stop-color:#90469A"/>
				<stop  offset="0.3539" style="stop-color:#934493"/>
				<stop  offset="0.4301" style="stop-color:#9B3E81"/>
				<stop  offset="0.5193" style="stop-color:#A73462"/>
				<stop  offset="0.6036" style="stop-color:#B6293F"/>
				<stop  offset="0.8766" style="stop-color:#E19F37"/>
				<stop  offset="1" style="stop-color:#EED940"/>
			</linearGradient>
			<path id="XMLID_1_" fill="url(#XMLID_5_)" d="M100.721,8.339c0,0.805-0.695,1.449-1.521,1.356
				c-0.626-0.067-1.132-0.572-1.2-1.199c-0.089-0.825,0.551-1.521,1.357-1.521C100.109,6.976,100.721,7.585,100.721,8.339"/>
			
				<linearGradient id="SVGID_1_" gradientUnits="userSpaceOnUse" x1="-1614.208" y1="677.9375" x2="-1632.6796" y2="696.409" gradientTransform="matrix(1 0 0 1 1716.9453 -672.9805)">
				<stop  offset="0.0139" style="stop-color:#49479B"/>
				<stop  offset="0.1603" style="stop-color:#6F469A"/>
				<stop  offset="0.3002" style="stop-color:#90469A"/>
				<stop  offset="0.3539" style="stop-color:#934493"/>
				<stop  offset="0.4301" style="stop-color:#9B3E81"/>
				<stop  offset="0.5193" style="stop-color:#A73462"/>
				<stop  offset="0.6036" style="stop-color:#B6293F"/>
				<stop  offset="0.8766" style="stop-color:#E19F37"/>
				<stop  offset="1" style="stop-color:#EED940"/>
			</linearGradient>
			<path fill="url(#SVGID_1_)" d="M93.284,8.729c-3.14,0-5.683,2.542-5.683,5.682c0,3.137,2.54,5.681,5.683,5.681
				c3.141,0,5.683-2.544,5.683-5.681C98.965,11.272,96.422,8.729,93.284,8.729z M93.284,18.2c-2.095,0-3.792-1.697-3.792-3.79
				c0-2.096,1.698-3.794,3.792-3.794c2.095,0,3.791,1.698,3.791,3.794C97.075,16.503,95.378,18.2,93.284,18.2z"/>
		</g>
		<g>
			
				<radialGradient id="SVGID_2_" cx="-1389.9971" cy="55.7773" r="0.032" gradientTransform="matrix(800 0 0 799.9985 1112044.75 -44597.2734)" gradientUnits="userSpaceOnUse">
				<stop  offset="0" style="stop-color:#0099FF"/>
				<stop  offset="0.6098" style="stop-color:#A033FF"/>
				<stop  offset="0.9348" style="stop-color:#FF5280"/>
				<stop  offset="1" style="stop-color:#FF7061"/>
			</radialGradient>
			<path fill="url(#SVGID_2_)" d="M53.623,2.621c-6.628,0-11.769,4.857-11.769,11.414c0,3.432,1.403,6.396,3.693,8.442
				c0.191,0.17,0.309,0.41,0.313,0.672l0.065,2.095c0.021,0.672,0.709,1.106,1.319,0.838l2.337-1.033
				c0.195-0.082,0.418-0.103,0.628-0.045c1.072,0.3,2.216,0.457,3.407,0.457c6.627,0,11.767-4.858,11.767-11.417
				C65.389,7.48,60.25,2.621,53.623,2.621z"/>
			<path fill="#FFFFFF" d="M46.557,17.373l3.456-5.48c0.551-0.875,1.729-1.091,2.555-0.472l2.749,2.063
				c0.253,0.188,0.601,0.188,0.852-0.002l3.711-2.821c0.492-0.376,1.143,0.218,0.813,0.744l-3.461,5.481
				c-0.552,0.873-1.727,1.088-2.554,0.469l-2.75-2.06c-0.253-0.19-0.602-0.19-0.85,0.002l-3.713,2.815
				C46.873,18.494,46.225,17.901,46.557,17.373z"/>
		</g>
	</g>
	<g>
		<g>
			<path d="M326.671,12.33c0.146-0.543,0.703-0.985,1.245-0.985h9.339l3.583-4.27h-12.764h-4.967l-2.479,9.248l-0.336,1.255l0,0
				l-1.672,6.241h4.966l1.674-6.241h10.108l3.581-4.268H327.39C326.847,13.312,326.526,12.871,326.671,12.33z"/>
			<path d="M407.65,12.33c0.146-0.543,0.704-0.985,1.247-0.985h9.338l3.585-4.27h-12.764h-4.967l-2.479,9.248l-0.336,1.255l0,0
				l-1.672,6.241h4.967l1.671-6.241h10.109l3.582-4.268h-11.563C407.828,13.312,407.507,12.871,407.65,12.33z"/>
			<path d="M365.564,11.345h9.341l3.579-4.27H365.72h-4.966l-4.485,16.748h4.967h12.766l1.144-4.273h-11.778l0,0
				c-0.543,0-0.864-0.438-0.721-0.98c0.146-0.544,0.704-0.985,1.247-0.985V17.58h5.778l3.584-4.267h-8.218
				c-0.542,0-0.865-0.44-0.718-0.983C364.463,11.787,365.021,11.345,365.564,11.345z"/>
			<path d="M455.785,11.345h9.339l3.581-4.27H455.94h-4.968l-4.484,16.748h4.965h12.763l1.147-4.273h-11.777l0,0
				c-0.544,0-0.866-0.438-0.72-0.98c0.143-0.544,0.7-0.985,1.243-0.985l0.003-0.003h5.78l3.579-4.267h-8.217
				c-0.541,0-0.866-0.44-0.72-0.983C454.682,11.787,455.24,11.345,455.785,11.345z"/>
			<path d="M385.263,11.345h9.34l3.582-4.27H385.42h-4.967l-4.487,16.748h4.967h12.763l1.146-4.273h-11.775l0,0
				c-0.542,0-0.864-0.438-0.72-0.98c0.145-0.544,0.705-0.985,1.246-0.985l0.002-0.003h5.778l3.582-4.267h-8.218
				c-0.541,0-0.864-0.44-0.719-0.983C384.165,11.787,384.721,11.345,385.263,11.345z"/>
			<path d="M356.291,7.076H343.32l-3.581,4.269h11.911c0.539,0,0.896,0.414,0.768,0.956c-0.133,0.558-0.7,1.011-1.254,1.011h-9.73
				l-3.582,4.269h7.055l3.746,6.242h5.42l-3.745-6.242h3.15c1.378,0,2.796-1.115,3.166-2.495l0.474-1.771l0.526-1.967l0.477-1.77
				C358.488,8.195,357.669,7.076,356.291,7.076z"/>
			<path d="M446.508,7.076h-12.97l-3.583,4.269h11.913c0.539,0,0.896,0.414,0.77,0.956c-0.135,0.558-0.702,1.011-1.256,1.011h-9.729
				l-3.582,4.269h7.055l3.745,6.242h5.422l-3.745-6.242h3.151c1.38,0,2.795-1.115,3.162-2.495l0.476-1.771l0.528-1.967l0.475-1.77
				C448.706,8.195,447.886,7.076,446.508,7.076z"/>
			<path fill="#EBC200" d="M423.255,14.1l-2.434,1.878c-0.081,0.062-0.14,0.147-0.164,0.24l-0.017,0.06
				c-0.049,0.184-0.241,0.331-0.424,0.331h-1.155c-0.09,0-0.187,0.074-0.21,0.167l-0.172,0.651c-0.026,0.091,0.03,0.164,0.121,0.164
				h7.918c0.094,0,0.188-0.073,0.212-0.164l0.177-0.655c0.022-0.092-0.029-0.165-0.123-0.165h-1.188
				c-0.184,0-0.293-0.148-0.242-0.331l2.772-10.353V2.551c0,0-3.45,1.191-5.14,4.902c-0.062,0.13-0.116,0.264-0.171,0.4
				c-0.014,0.035-0.041,0.107-0.068,0.183c-0.072,0.196,0.035,0.365,0.232,0.365h1.516c0.122,0,0.141,0.147,0.034,0.23l-2.487,1.908
				c-0.082,0.061-0.145,0.146-0.166,0.238l-0.063,0.227c-0.021,0.074,0.024,0.133,0.099,0.133h1.808
				c0.121,0,0.141,0.148,0.029,0.231l-2.421,1.835c-0.083,0.062-0.144,0.15-0.17,0.24l-0.076,0.296
				c-0.02,0.073,0.023,0.134,0.097,0.134h1.845C423.344,13.873,423.365,14.018,423.255,14.1z"/>
			<path fill="#EBC200" d="M420.236,18.905l-1.32,4.917h3.403c0.552,0,1.033-0.376,1.178-0.909l1.045-4.01
				c0.047-0.185-0.063-0.33-0.243-0.33h-3.639C420.472,18.574,420.283,18.723,420.236,18.905z"/>
		</g>
	</g>
</g>
</svg>
