<svg width="63" height="10" viewBox="0 0 63 10" fill="none" xmlns="http://www.w3.org/2000/svg">
<path d="M52.1484 7.47435H52.0997L50.0284 0.292663H46.687V9.34649H48.9004L48.7758 1.9167H48.8245L51.0486 9.34649H54.2545V0.292218H52.0264L52.1484 7.47435ZM9.63878 0.292218L7.97192 9.44182H10.4043L11.6368 1.13676H11.6882L12.8881 9.44226H15.3061L13.6469 0.292218H9.63878ZM23.2445 0.293109L22.1327 7.2886H22.0822L20.9757 0.293109H17.3037L17.1044 9.44182H19.3558L19.4121 1.21426H19.463L20.9668 9.44182H23.2503L24.7545 1.21693L24.8046 1.21426L24.8631 9.44182H27.1154L26.9166 0.293109H23.2445ZM2.39394 2.64588C2.35149 2.45879 2.36177 2.27171 2.38456 2.16837C2.44936 1.87439 2.6442 1.55234 3.20771 1.55234C3.73593 1.55234 4.04338 1.88463 4.04338 2.38084V2.9461H6.29164V2.30735C6.29164 0.311371 4.53004 1.52588e-05 3.25464 1.52588e-05C1.65435 1.52588e-05 0.347674 0.540323 0.106805 2.03296C0.0411131 2.43385 0.0330692 2.80133 0.128702 3.26458C0.519723 5.1345 3.71805 5.67614 4.18236 6.85876C4.2695 7.07925 4.24135 7.36522 4.19845 7.53804C4.12561 7.83737 3.92317 8.14873 3.32212 8.14873C2.75994 8.14873 2.41673 7.82134 2.41673 7.32201L2.41539 6.43427H0.00134064L0 7.14161C0 9.18258 1.58017 9.79593 3.27251 9.79593C4.90363 9.79593 6.2407 9.23558 6.45699 7.7082C6.56692 6.91622 6.48604 6.39685 6.44716 6.20309C6.06597 4.2864 2.6509 3.71981 2.39394 2.64588ZM31.687 2.66726C31.6428 2.48463 31.6553 2.29933 31.6763 2.19822C31.7393 1.90601 31.9324 1.58753 32.491 1.58753C33.0129 1.58753 33.3195 1.91492 33.3195 2.40445V2.9657H35.5436V2.33274C35.5436 0.36126 33.7981 0.0507944 32.5392 0.0507944C30.9528 0.0507944 29.6573 0.579075 29.4218 2.06236C29.3561 2.46147 29.3458 2.82627 29.4423 3.28284C29.8298 5.13316 32.9964 5.6708 33.4571 6.8405C33.5411 7.06099 33.5157 7.34205 33.4745 7.51355C33.4013 7.8151 33.1988 8.1171 32.6063 8.1171C32.0468 8.1171 31.7098 7.79461 31.7098 7.30063L31.708 6.41957H29.3154V7.12068C29.3154 9.14071 30.8817 9.74694 32.5575 9.74694C34.1686 9.74694 35.4944 9.19148 35.7067 7.68014C35.8158 6.89841 35.7353 6.38349 35.6973 6.19062C35.3197 4.29442 31.9373 3.73095 31.687 2.66726ZM41.8978 7.05876C41.8996 7.17502 41.896 7.30954 41.8768 7.40753C41.8321 7.63515 41.6395 8.06588 41.0134 8.06588C40.3896 8.06588 40.1947 7.63515 40.1501 7.40753C40.1308 7.30954 40.1264 7.17502 40.1273 7.05876V0.291327H37.8517V6.84896C37.8482 7.01867 37.8647 7.3621 37.8727 7.45341C38.0274 9.15897 39.3573 9.70997 41.013 9.70997C42.6669 9.70997 43.9964 9.15897 44.1559 7.45341C44.1639 7.3621 44.1814 7.01823 44.1787 6.84896V0.291327H41.8974V7.05876H41.8978ZM59.8133 4.29798V5.63784H60.7352V6.96477C60.7379 7.08014 60.7334 7.20753 60.7142 7.31221C60.674 7.55853 60.4443 7.97412 59.795 7.97412C59.1439 7.97412 58.9151 7.55809 58.873 7.31221C58.8556 7.20753 58.8503 7.08014 58.8529 6.96477V2.77861C58.8529 2.62984 58.8623 2.46726 58.8896 2.34922C58.9374 2.12383 59.1313 1.68508 59.786 1.68508C60.4747 1.68508 60.6449 2.14833 60.686 2.34922C60.7124 2.47617 60.7142 2.69487 60.7142 2.69398V3.20935H62.9835V2.90378C62.9826 2.90378 62.9915 2.59109 62.9651 2.30557C62.7985 0.584866 61.3993 0.0432221 59.8048 0.0432221C58.2094 0.0432221 56.8433 0.58932 56.6453 2.30557C56.6261 2.45345 56.606 2.7412 56.606 2.90378L56.6051 6.7532C56.606 6.92558 56.6114 7.05297 56.6364 7.35764C56.7848 9.02356 58.2094 9.62043 59.803 9.62043C61.3975 9.62043 62.8221 9.02356 62.9714 7.35764C62.996 7.05252 62.9996 6.92513 63 6.7532V4.29798H59.8133Z" fill="#50535A"/>
</svg>
