<svg width="40" height="40" viewBox="0 0 40 40" fill="none" xmlns="http://www.w3.org/2000/svg">
<path fill-rule="evenodd" clip-rule="evenodd" d="M37.3886 19.0091C37.3886 19.4417 37.104 19.7661 37.0129 19.7946H21.1844V12.2759L36.956 12.2702C37.0812 12.3157 37.3886 12.6686 37.3886 13.0613V19.0091V19.0091ZM34.3891 37.4672H21.1901V22.3217H34.7647V36.6818C34.759 37.1143 34.4744 37.4387 34.3891 37.4672ZM5.10543 36.6818V22.3217H18.5833V37.4672H5.50954C5.39001 37.4331 5.10543 37.1143 5.10543 36.6818V36.6818ZM2.60109 13.0556C2.60109 12.6629 2.90275 12.31 2.97674 12.2702H18.589V19.7889H2.99951C2.87998 19.7434 2.60678 19.4303 2.60678 19.0034V13.0556H2.60109ZM9.94334 4.18233C10.6776 3.08384 11.537 2.53744 12.5103 2.53744C13.1421 2.53744 13.8308 2.7708 14.5593 3.23182C16.0391 4.16526 17.5474 7.39812 18.2759 9.44712C16.0676 9.62357 12.3851 9.6008 10.9223 8.67306C9.99457 8.08682 9.43679 7.40951 9.27742 6.66959C9.11236 5.91829 9.34003 5.08162 9.94334 4.18233V4.18233ZM25.3108 3.22613C27.1663 2.05365 28.7202 2.37238 29.9268 4.17664C30.5301 5.08162 30.7578 5.9126 30.5927 6.65821C30.4334 7.39812 29.8756 8.07543 28.9478 8.66167C27.4794 9.58942 23.7969 9.61218 21.5885 9.43574C22.3227 7.39243 23.831 4.16526 25.3108 3.22613V3.22613ZM37.0186 9.74309H31.6571C32.4141 8.9861 32.9377 8.12666 33.1426 7.18753C33.4499 5.78169 33.0914 4.26771 32.1124 2.79926C30.1146 -0.18887 26.9671 -0.83772 23.8936 1.10883C22.2146 2.17317 20.86 4.55229 19.9379 6.62975C19.0216 4.55229 17.6612 2.16748 15.9822 1.10883C12.9087 -0.83772 9.76121 -0.18887 7.76344 2.79926C6.78447 4.26771 6.42589 5.78169 6.73324 7.18753C6.93814 8.12666 7.46178 8.9861 8.21308 9.74309H2.97674C1.41723 9.74309 0 11.3254 0 13.0613V19.0091C0 20.6256 1.10988 22.0086 2.50433 22.2705V36.6818C2.50433 38.4803 3.87033 40 5.48108 40H34.3891C35.9998 40 37.3658 38.4803 37.3658 36.6818V22.2818C38.8229 22.0769 39.9954 20.6711 39.9954 19.0034V13.0556C39.9954 11.3197 38.5781 9.74309 37.0186 9.74309Z" fill="#0B2739"/>
</svg>
