<svg width="40" height="40" viewBox="0 0 40 40" fill="none" xmlns="http://www.w3.org/2000/svg">
<path d="M13.7186 28.2274C13.4284 28.0226 13.2861 27.795 13.2861 27.4479C13.2975 26.9927 13.673 26.6343 14.1282 26.6343C14.3445 26.6457 14.555 26.7139 14.7371 26.8391C16.04 27.7097 17.8665 28.5745 19.9774 28.5745C23.1353 28.5745 25.0699 26.9529 25.0699 24.5518C25.0699 22.5831 23.9717 21.1947 20.353 20.7282L19.4255 20.6144C15.5735 20.125 13.7812 18.2701 13.7812 15.4024C13.7812 11.9885 16.2107 9.87183 19.949 9.87183C22.0315 9.87183 23.8011 10.4237 25.013 11.1748C25.3885 11.4081 25.5649 11.6983 25.5649 11.9885C25.5649 12.4152 25.2235 12.768 24.7911 12.768H24.7854C24.5806 12.768 24.3814 12.6826 24.205 12.5916C22.8736 11.8633 21.4853 11.4309 19.8921 11.4309C17.0244 11.4309 15.4312 13.024 15.4312 15.2545C15.4312 17.2801 16.6773 18.5831 20.0628 19.0155L20.9618 19.1293C24.8707 19.6243 26.7257 21.4735 26.7257 24.4266C26.7257 27.7552 24.353 30.1279 19.7783 30.1279C17.3373 30.1336 15.1638 29.2402 13.7186 28.2274V28.2274Z" fill="#0B2739"/>
<path d="M19.7667 30.7027C17.5419 30.7027 15.2204 29.9687 13.3883 28.6885C12.9331 28.3698 12.7112 27.9602 12.7112 27.4424C12.7112 26.6799 13.3428 26.0597 14.1223 26.0597C14.4523 26.0711 14.7709 26.1735 15.044 26.3556C16.677 27.4424 18.3328 28 19.9658 28C22.7596 28 24.4893 26.6742 24.4893 24.5462C24.4893 23.2034 23.9886 21.7639 20.2674 21.2916L19.3399 21.1778C14.2645 20.5292 13.1948 17.6785 13.1948 15.4026C13.1948 11.6984 15.8406 9.30298 19.9317 9.30298C21.9459 9.30298 23.852 9.798 25.2973 10.6913C25.8264 11.0156 26.1166 11.4765 26.1166 11.9886C26.1166 12.734 25.5135 13.3371 24.7681 13.3371C24.4438 13.3371 24.1536 13.2119 23.9374 13.1038L23.9203 13.0925C22.5547 12.3471 21.2688 12.0057 19.8805 12.0057C18.6458 12.0057 17.633 12.3243 16.9559 12.9331C16.3243 13.4964 15.9886 14.2987 15.9886 15.2546C15.9886 16.1536 16.256 16.8023 16.8364 17.303C17.4964 17.872 18.6002 18.2589 20.1251 18.4523L21.0241 18.5661C23.0668 18.8222 24.6372 19.4538 25.6899 20.4438C26.7425 21.4338 27.283 22.7767 27.283 24.4324C27.283 26.2873 26.6059 27.8521 25.3257 28.9616C24.017 30.0996 22.0938 30.7027 19.7667 30.7027V30.7027ZM14.0426 27.761C14.8164 28.3016 16.9331 29.5704 19.7667 29.5704C23.761 29.5704 26.1451 27.6529 26.1451 24.4381C26.1451 23.0953 25.7411 22.0597 24.9103 21.2802C24.0398 20.4609 22.6856 19.9317 20.8819 19.7041L19.9829 19.5903C18.2133 19.3627 16.9388 18.9018 16.0967 18.1735C15.2716 17.4623 14.8506 16.4836 14.8506 15.266C14.8506 12.5974 16.825 10.8734 19.8805 10.8734C21.4452 10.8734 22.9416 11.2717 24.4552 12.0967C24.5177 12.1309 24.6771 12.2048 24.7738 12.2048C24.8876 12.2048 24.9843 12.1138 24.9843 12V11.9943C24.9843 11.8976 24.8819 11.7781 24.7055 11.67C23.4367 10.8848 21.7411 10.4523 19.9374 10.4523C16.4836 10.4523 14.3385 12.3528 14.3385 15.4139C14.3385 16.6998 14.7425 17.7411 15.5391 18.4979C16.3926 19.3115 17.724 19.835 19.4879 20.0626L20.4153 20.1764C23.9772 20.6316 25.633 22.0256 25.633 24.5633C25.633 25.9289 25.0867 27.0896 24.0569 27.9203C23.0497 28.7283 21.6387 29.155 19.9715 29.155C18.1109 29.155 16.2389 28.5405 14.4182 27.3229C14.3328 27.266 14.2304 27.2262 14.128 27.2148C13.9914 27.2148 13.8719 27.3172 13.8549 27.4594C13.8549 27.5676 13.8719 27.6358 14.0426 27.761V27.761Z" fill="#0B2739"/>
<path d="M19.9999 33.3142C19.374 33.3142 18.8619 32.8021 18.8619 32.1762L18.8562 7.82914C18.8562 7.20325 19.3683 6.69116 19.9942 6.69116C20.6201 6.69116 21.1322 7.20325 21.1322 7.82914L21.1379 32.1762C21.1379 32.8021 20.6315 33.3142 19.9999 33.3142Z" fill="#0B2739"/>
<path d="M20 40C13.6558 40 8.71124 38.3385 5.31437 35.0669C1.78663 31.6643 0 26.5946 0 20C0 13.4054 1.78663 8.3357 5.31437 4.93314C8.71124 1.66145 13.6558 0 20 0C26.3442 0 31.2888 1.66145 34.6856 4.93314C38.2134 8.33001 40 13.3997 40 20C40 26.6003 38.2134 31.6643 34.6856 35.0669C31.2888 38.3385 26.3442 40 20 40ZM20 2.27596C14.2646 2.27596 9.85491 3.72119 6.89616 6.57183C3.8293 9.52489 2.27596 14.0427 2.27596 20C2.27596 25.9573 3.8293 30.4694 6.89616 33.4282C9.85491 36.2788 14.2646 37.724 20 37.724C25.7354 37.724 30.1451 36.2788 33.1038 33.4282C36.1707 30.4751 37.724 25.9573 37.724 20C37.724 14.0427 36.1707 9.53058 33.1038 6.57183C30.1451 3.72119 25.7354 2.27596 20 2.27596Z" fill="#0B2739"/>
</svg>
