<svg width="29" height="20" viewBox="0 0 29 20" fill="none" xmlns="http://www.w3.org/2000/svg">
<path fill-rule="evenodd" clip-rule="evenodd" d="M26.3075 17.9389C26.0865 18.2001 25.6325 18.2603 25.2951 18.2684C23.1255 18.3045 2.68758 18.2644 2.46259 18.2684C2.30189 18.2483 2.15323 18.18 2.03672 18.0715C1.77959 17.8224 1.72736 17.3604 1.72736 17.0189V4.52391L11.5265 10.683C11.5867 10.7272 12.563 11.4182 13.909 11.4182C14.5839 11.4182 15.3553 11.2415 16.1508 10.7232L26.5004 4.48775L26.4843 17.0189L26.4963 17.1555C26.4923 17.1595 26.5606 17.6456 26.3075 17.9389V17.9389ZM2.47866 1.71555L25.8053 1.71957C25.8254 1.71957 26.2955 1.73564 26.4521 2.51105L15.2268 9.27682C13.8407 10.1808 12.5952 9.33307 12.5028 9.26477L1.7595 2.51105C1.79566 2.27802 1.872 2.02089 2.01663 1.86822C2.08895 1.79992 2.20546 1.71555 2.47866 1.71555ZM28.2119 16.9626L28.232 2.94094C28.1677 0.486139 26.4763 -0.0361592 25.7852 0.00401762L2.48268 0C1.79164 0 1.19301 0.241061 0.759098 0.699076C-0.0605079 1.55886 -0.00426039 2.8646 0.00377497 2.96103V17.0149C0.00377497 17.9912 0.280995 18.7585 0.831417 19.2929C1.53451 19.9759 2.41438 20 2.48268 19.9799C3.03712 19.9799 11.8318 20 18.3927 20C21.7876 20 24.5839 19.996 25.3272 19.9799C26.6048 19.9598 27.2959 19.4456 27.6494 19.0237C28.3003 18.2362 28.2521 17.272 28.2119 16.9626" fill="#0B2739"/>
</svg>
