<svg width="25" height="25" viewBox="0 0 25 25" fill="none" xmlns="http://www.w3.org/2000/svg">
<path d="M20.7317 25H4.26829C1.98171 25 0 23.0183 0 20.7317V4.26829C0 1.98171 1.98171 0 4.26829 0H20.7317C23.0183 0 25 1.98171 25 4.26829V20.7317C25 23.0183 23.0183 25 20.7317 25Z" fill="#0B2739"/>
<path d="M7.59121 8.01851C6.8595 8.01851 5.51803 8.44534 4.87779 10.9453C4.57291 11.9819 4.45096 13.1405 4.78633 14.4819C4.99974 15.7319 5.42657 16.7685 5.6095 17.4088C5.70096 17.6222 5.82291 17.8356 5.91438 17.927C6.21925 18.3539 6.73755 18.2319 6.95096 18.1405C7.16438 18.049 7.46925 17.7136 7.37779 17.1039C7.37779 16.799 7.16438 16.3722 7.16438 16.1588C6.95096 15.427 6.64608 14.4819 6.64608 13.8722C6.64608 13.049 6.95096 12.927 7.16438 12.8356C7.59121 12.7441 7.89608 13.1405 8.20096 13.6588C8.50584 14.2685 9.14608 15.427 9.66438 16.2502C10.0912 16.9819 10.9144 17.8051 12.2558 17.8051C13.5973 17.7136 14.6644 17.1649 15.1827 15.61C15.6095 14.36 15.7924 13.4149 16.2193 12.5002C16.7375 11.4636 17.3778 10.8234 17.8961 11.0368C18.4144 11.2502 18.5058 11.677 18.5058 12.3783C18.5058 12.988 18.4144 13.7197 18.4144 14.238C18.4144 14.4514 18.3229 14.8783 18.4144 15.0612C18.4144 15.488 18.6278 15.8844 19.1461 16.0063C19.6644 16.0978 20.0912 15.7014 20.1827 15.1831C20.2741 14.9697 20.2741 14.6649 20.2741 14.4514C20.3656 13.4149 20.4875 12.6831 20.3656 11.6466C20.1522 10.3966 19.9388 9.23802 19.5424 8.32339C19.1156 7.37827 18.5058 6.76851 17.6827 6.76851C16.7375 6.67705 15.6095 7.2868 15.0912 8.44534C14.5729 9.60388 14.1461 10.7319 13.9327 11.2502C13.7193 11.86 13.2924 12.1953 12.6827 12.2868C11.951 12.3783 11.3412 11.86 10.9144 11.1283C10.4875 10.5185 9.75584 9.23802 9.3595 8.84168C8.96316 8.5368 8.53633 8.01851 7.59121 8.01851Z" fill="#019DF4"/>
</svg>
