<svg width="36" height="40" viewBox="0 0 36 40" fill="none" xmlns="http://www.w3.org/2000/svg">
<path d="M9.90053 21.6049C8.72841 21.5935 7.59043 21.235 6.62315 20.5693C6.35572 20.3815 6.22485 20.1369 6.22485 19.8296C6.23054 19.363 6.60608 18.9932 7.07265 18.9989C7.2661 19.0046 7.45387 19.0615 7.61319 19.1696C8.40977 19.6987 9.21205 19.9662 10.0029 19.9662C11.3116 19.9662 12.1253 19.3573 12.1253 18.3787C12.1253 17.7357 11.8863 17.1098 10.1338 16.8879L9.67293 16.831C7.02713 16.4896 6.46952 14.9932 6.46952 13.7983C6.46952 11.8581 7.85216 10.6006 9.98588 10.6006C11.0214 10.6006 12.0001 10.8566 12.7512 11.3175C13.1665 11.5736 13.2291 11.9093 13.2291 12.0856C13.2291 12.5408 12.865 12.905 12.4098 12.905C12.2391 12.8993 12.0741 12.8538 11.9318 12.7741L11.9204 12.7684C11.2604 12.41 10.6345 12.2393 9.96312 12.2393C8.83083 12.2393 8.15373 12.7969 8.15373 13.7243C8.15373 14.1169 8.15373 14.9363 10.0997 15.1866L10.5492 15.2435C13.2405 15.5849 13.8095 17.1041 13.8095 18.3218C13.8095 19.2948 13.451 20.1141 12.7796 20.7002C12.0911 21.2919 11.1011 21.6049 9.90053 21.6049ZM7.11248 19.8694C7.32869 20.0231 7.56198 20.1539 7.80096 20.2677C7.57336 20.1539 7.35145 20.0231 7.13524 19.8751C7.12386 19.8637 7.10679 19.8581 7.08972 19.8524L7.11248 19.8694V19.8694ZM10.9987 16.1824C11.8351 16.3929 12.4041 16.7571 12.7113 17.2805C12.3301 16.5864 11.5734 16.3076 10.9987 16.1824V16.1824ZM7.45956 14.612C7.69854 15.2322 8.24477 15.6418 9.11532 15.8637C8.26753 15.6191 7.7213 15.2094 7.45956 14.612Z" fill="#0B2739"/>
<path d="M10.0142 22.9308C9.62161 22.9308 9.30298 22.6121 9.30298 22.2195V10.0147C9.30298 9.6221 9.62161 9.30347 10.0142 9.30347C10.4068 9.30347 10.7255 9.6221 10.7255 10.0147V22.2195C10.7255 22.6121 10.4068 22.9308 10.0142 22.9308Z" fill="#0B2739"/>
<path d="M10.0142 26.1166C6.85064 26.1166 4.38122 25.2802 2.67425 23.6358C0.899004 21.9231 0 19.3911 0 16.1024C0 12.8136 0.899004 10.2816 2.67425 8.56893C4.38122 6.92455 6.85064 6.08813 10.0142 6.08813C13.1778 6.08813 15.6472 6.92455 17.3542 8.56893C19.1294 10.2816 20.0284 12.8136 20.0284 16.1024C20.0284 19.3911 19.1294 21.9231 17.3542 23.6358C15.6472 25.2802 13.1778 26.1166 10.0142 26.1166V26.1166ZM10.0142 8.3641C7.45946 8.3641 5.52489 8.98429 4.25604 10.2076C2.94168 11.4708 2.27596 13.4566 2.27596 16.1024C2.27596 18.7482 2.94168 20.7339 4.25604 21.9971C5.52489 23.2204 7.46515 23.8406 10.0142 23.8406C12.5633 23.8406 14.5036 23.2204 15.7724 21.9971C17.0868 20.7339 17.7525 18.7482 17.7525 16.1024C17.7525 13.4566 17.0868 11.4708 15.7724 10.2076C14.5036 8.98429 12.569 8.3641 10.0142 8.3641V8.3641Z" fill="#0B2739"/>
<path d="M28.8704 40H15.556C13.3085 40 11.6698 39.4595 10.5489 38.3499C9.41659 37.229 8.87036 35.5789 8.87036 33.3144V25.633C8.87036 25.0071 9.38245 24.495 10.0083 24.495C10.6342 24.495 11.1463 25.0071 11.1463 25.633V33.3144C11.1463 36.5292 12.3412 37.724 15.556 37.724H28.8704C32.0852 37.724 33.28 36.5292 33.28 33.3144V6.68563C33.28 5.07539 32.95 3.96017 32.2786 3.28307C31.6072 2.60597 30.4863 2.27596 28.8704 2.27596H15.556C12.4265 2.27596 11.1463 3.55619 11.1463 6.68563C11.1463 7.31152 10.6342 7.82361 10.0083 7.82361C9.38245 7.82361 8.87036 7.31152 8.87036 6.68563C8.87036 4.47795 9.41659 2.85633 10.5432 1.71266C11.6869 0.5633 13.3256 0 15.556 0H28.8704C31.1236 0 32.7623 0.54623 33.8889 1.67852C35.0155 2.81081 35.556 4.44381 35.556 6.68563V33.3144C35.556 35.5789 35.0041 37.229 33.8775 38.3499C32.7566 39.4595 31.1179 40 28.8704 40Z" fill="#0B2739"/>
<path d="M22.2134 35.2599C21.5192 35.2599 20.9389 35.0437 20.5463 34.6397C20.1537 34.2357 19.9602 33.6838 19.9602 32.9953C19.9602 31.5785 20.8023 30.7307 22.2191 30.7307C23.6359 30.7307 24.478 31.5785 24.478 32.9953C24.478 33.6895 24.2788 34.2414 23.8919 34.6397C23.505 35.038 22.9133 35.2599 22.2134 35.2599V35.2599ZM22.2134 31.8687C21.4396 31.8687 21.0925 32.2158 21.0925 32.9953C21.0925 33.3822 21.1835 33.6667 21.3542 33.8431C21.5249 34.0195 21.8208 34.1219 22.2077 34.1219C22.5946 34.1219 22.8848 34.0309 23.0612 33.8431C23.2376 33.6553 23.3229 33.3765 23.3229 32.9953C23.3343 32.2158 22.9872 31.863 22.2134 31.8687V31.8687Z" fill="#0B2739"/>
</svg>
