<svg width="26" height="25" viewBox="0 0 26 25" fill="none" xmlns="http://www.w3.org/2000/svg">
<path d="M19.6566 25C18.5559 25 17.2949 24.7293 15.9377 24.1878C13.1627 23.08 10.1242 20.9248 7.1533 17.954L7.14617 17.9468L7.05 17.8542L7.04287 17.8471C4.07199 14.8762 1.91686 11.8376 0.80901 9.06269C-0.245403 6.40529 -0.270338 4.13616 0.741328 2.67209L0.762701 2.64003L0.77695 2.61866C0.901627 2.44768 1.2721 1.93116 1.66038 1.56069C2.76466 0.506273 3.89388 -0.0173716 5.00885 0.000439464C6.08464 0.0218127 7.14974 0.549019 8.17209 1.57137C8.55681 1.94897 8.89522 2.37643 9.17307 2.84308C9.72165 3.72651 9.92113 4.63843 9.7644 5.55392C9.60766 6.46941 9.09826 7.36352 8.24333 8.21845C8.04385 8.41793 7.83368 8.60673 7.61282 8.78128C7.53089 8.93089 7.58076 9.4011 8.24333 10.37C9.00921 11.4886 10.2916 12.8101 11.1893 13.7078L11.2961 13.8147C12.1938 14.7124 13.5154 15.9912 14.6339 16.7606C15.5993 17.4232 16.0731 17.4731 16.2227 17.3911C16.3972 17.1703 16.5825 16.9601 16.7855 16.7606C17.6404 15.9057 18.5345 15.3963 19.45 15.2396C20.3655 15.0828 21.2774 15.2823 22.1609 15.8309C22.624 16.1087 23.0514 16.4436 23.4326 16.8319C24.4549 17.8542 24.9821 18.9158 25.0035 19.9951C25.0249 21.1101 24.5012 22.2393 23.4433 23.3436C23.0728 23.7319 22.5563 24.1023 22.3853 24.227L22.3639 24.2412C22.3532 24.2484 22.3425 24.2555 22.3319 24.2662C21.6123 24.7542 20.7039 25 19.6566 25ZM8.1614 16.953C10.9934 19.7849 13.8645 21.8296 16.4613 22.8662C18.62 23.7247 20.4581 23.8067 21.5054 23.0942L21.5482 23.0657C21.9329 22.7879 22.2214 22.5492 22.4067 22.3568C23.9598 20.7325 23.9633 19.3788 22.4174 17.8364C22.1217 17.5336 21.7904 17.2736 21.4306 17.0563L21.4092 17.0456C20.8179 16.6787 20.2515 16.5469 19.6816 16.6431C19.0653 16.7464 18.4277 17.124 17.7865 17.7652C17.6048 17.9433 17.4374 18.1321 17.2842 18.3351C17.2593 18.3636 17.2343 18.3921 17.2094 18.417C16.9066 18.6985 16.3616 18.987 15.4995 18.7661C15.0115 18.6415 14.4629 18.3707 13.8253 17.9326C12.6106 17.099 11.2249 15.7561 10.288 14.8192L10.1812 14.7123C9.24432 13.7755 7.90136 12.3898 7.06781 11.1715C6.62965 10.5339 6.35537 9.9853 6.23425 9.49728C6.01696 8.63523 6.30549 8.09021 6.58335 7.78742C6.60828 7.75892 6.63678 7.73399 6.66528 7.71262C6.86832 7.55944 7.05712 7.39202 7.23523 7.21034C7.87643 6.56915 8.25402 5.93151 8.35732 5.31525C8.4535 4.74174 8.3217 4.17891 7.9548 3.58758L7.94411 3.56621C7.72681 3.20642 7.46677 2.87158 7.16399 2.57948C5.62155 1.03704 4.26791 1.0406 2.64355 2.59373C2.45119 2.77896 2.21252 3.0675 1.93467 3.45222L1.90261 3.49496C1.19017 4.54225 1.27566 6.38035 2.13415 8.53905C3.17075 11.1359 5.21546 14.007 8.04741 16.839L8.09728 16.8889L8.11153 16.9031L8.1614 16.953Z" fill="#0B2739"/>
</svg>
