<svg width="24" height="24" viewBox="0 0 24 24" fill="none" xmlns="http://www.w3.org/2000/svg">
<path d="M19.1391 2.2463C19.3577 2.2463 19.4139 2.37437 19.2578 2.53056L18.4643 3.32397C18.3082 3.48016 18.2051 3.78628 18.2363 4.00494L18.3987 5.14508C18.43 5.36374 18.633 5.56678 18.8517 5.59801L19.9918 5.76045C20.0199 5.76357 20.048 5.76669 20.0762 5.76669C20.2823 5.76669 20.5353 5.67298 20.6728 5.53554L21.4662 4.74213C21.5255 4.68278 21.5818 4.65154 21.6286 4.65154C21.7005 4.65154 21.7505 4.72338 21.7505 4.8577C21.7505 4.8577 21.7567 6.65694 20.9414 7.47535C20.1386 8.27814 18.3862 8.28438 18.3269 8.28438H18.3238C18.1051 8.28438 17.799 8.40933 17.6428 8.56552L8.56538 17.6429C8.40919 17.7991 8.28425 18.1053 8.28425 18.327C8.28425 18.327 8.29049 20.1263 7.47521 20.9447C6.67242 21.7475 4.92004 21.7537 4.86069 21.7537H4.85756C4.6389 21.7537 4.5858 21.6256 4.73886 21.4695L5.53228 20.676C5.68846 20.5199 5.79154 20.2137 5.76031 19.9951L5.59788 18.8549C5.56664 18.6363 5.3636 18.4332 5.14494 18.402L4.0048 18.2396C3.97668 18.2364 3.94857 18.2333 3.92046 18.2333C3.71429 18.2333 3.46127 18.327 3.32383 18.4645L2.53042 19.2579C2.47107 19.3172 2.41484 19.3485 2.36798 19.3485C2.29614 19.3485 2.24616 19.2766 2.24616 19.1423C2.24616 19.1423 2.23991 17.3431 3.0552 16.5247C3.85798 15.7219 5.61037 15.7156 5.66972 15.7156H5.67284C5.8915 15.7156 6.19762 15.5907 6.35381 15.4345L15.4312 6.35707C15.5874 6.20089 15.7124 5.89476 15.7124 5.67298C15.7124 5.67298 15.7061 3.87374 16.5214 3.05534C17.3273 2.25255 19.0797 2.2463 19.1391 2.2463ZM19.1422 0.996826C18.7174 1.00307 18.2957 1.04368 17.8833 1.12177C16.9119 1.30295 16.1591 1.65592 15.6436 2.17446C15.122 2.69611 14.7659 3.46141 14.5847 4.4485C14.5191 4.81397 14.4785 5.18569 14.4691 5.55741L5.55414 14.4693C5.16993 14.4818 4.78884 14.5224 4.41088 14.5942C3.43941 14.7754 2.6866 15.1284 2.17119 15.6438C1.64954 16.1654 1.29344 16.9307 1.11226 17.9178C1.03729 18.3239 0.99981 18.7362 0.993563 19.1486C0.990439 19.4297 1.06541 19.7046 1.2091 19.9482C1.45274 20.3543 1.89006 20.6011 2.36486 20.6011C2.74595 20.6011 3.11767 20.4386 3.4113 20.145L4.04853 19.5078L4.43586 19.564L4.49209 19.9513L3.85486 20.5886C3.42067 21.0197 3.28322 21.6163 3.50188 22.1442C3.72054 22.6721 4.23595 23.0001 4.85131 23.0032H4.85756C5.27926 22.9969 5.70096 22.9563 6.11641 22.8782C7.08787 22.6971 7.84068 22.3441 8.35609 21.8256C8.87775 21.3039 9.23385 20.5386 9.41502 19.5515C9.48062 19.186 9.52122 18.8143 9.5306 18.4426L18.4425 9.53074C18.8267 9.51824 19.2078 9.47763 19.5857 9.40579C20.5572 9.22461 21.31 8.87164 21.8254 8.35623C22.3471 7.83457 22.7032 7.06927 22.8812 6.08219C22.9562 5.67611 22.9937 5.26378 22.9999 4.85145C23.0031 4.57032 22.9281 4.29544 22.7844 4.05179C22.5407 3.64571 22.1034 3.39894 21.6286 3.39894C21.2475 3.39894 20.8758 3.56137 20.5822 3.855L19.9481 4.48911L19.5608 4.43288L19.5045 4.04554L20.1418 3.41144C20.5759 2.97724 20.7134 2.3775 20.4947 1.85272C20.2761 1.32794 19.7638 0.99995 19.1484 0.996826H19.1422Z" fill="#019DF4"/>
</svg>
