<svg width="31" height="10" viewBox="0 0 31 10" fill="none" xmlns="http://www.w3.org/2000/svg">
<path fill-rule="evenodd" clip-rule="evenodd" d="M10.1669 0.499275H0V3.12531H3.51406V9.63174H6.65834V3.12531H10.1669V0.499275Z" fill="#50535A"/>
<path fill-rule="evenodd" clip-rule="evenodd" d="M16.3249 7.74992C15.5947 7.74992 15.0472 7.53476 14.5806 7.08612C14.1289 6.65121 13.7984 5.97653 13.7984 5.06895V4.92932C13.7984 4.02346 14.1289 3.3442 14.5806 2.90872C15.0472 2.45951 15.5991 2.25064 16.3265 2.25064C18.0387 2.25064 18.4046 3.30243 18.5153 3.99313H21.3026C21.2361 2.60715 20.5946 1.62861 19.6911 0.974534C18.7938 0.330186 17.7442 0 16.357 0C14.6509 0 13.4319 0.39256 12.4388 1.26581C11.4341 2.15565 10.8982 3.56108 10.8982 4.96309V5.03576C10.8982 6.56766 11.3649 7.72188 12.3934 8.68612C13.3572 9.58912 14.7605 10.0023 16.3199 9.99999C17.7055 9.99999 18.8929 9.66237 19.7138 9.02202C20.6195 8.31644 21.24 7.32245 21.3136 6.01373H18.5325C18.455 6.56537 18.1218 7.74992 16.3249 7.74992Z" fill="#50535A"/>
<path fill-rule="evenodd" clip-rule="evenodd" d="M26.0229 0.501579H22.9948V9.63118H30.9812V7.12875H26.0229V0.501579Z" fill="#50535A"/>
</svg>
