<svg width="16" height="16" viewBox="0 0 16 16" fill="none" xmlns="http://www.w3.org/2000/svg">
<path d="M10.6606 16H5.33485C4.43585 16 3.78037 15.7838 3.33201 15.34C2.87909 14.8916 2.6606 14.2316 2.6606 13.3257V2.67425C2.6606 1.79118 2.87909 1.14253 3.32973 0.685064C3.78492 0.22532 4.4404 0 5.33485 0H10.6606C11.5619 0 12.2174 0.218492 12.668 0.671408C13.1186 1.12432 13.3349 1.77752 13.3349 2.67425V13.3257C13.3349 14.2316 13.1141 14.8916 12.6634 15.34C12.2128 15.7838 11.5596 16 10.6606 16ZM5.33485 0.910384C4.08307 0.910384 3.57098 1.42248 3.57098 2.67425V13.3257C3.57098 14.6117 4.04893 15.0896 5.33485 15.0896H10.6606C11.9465 15.0896 12.4245 14.6117 12.4245 13.3257V2.67425C12.4245 2.03016 12.2925 1.58407 12.0239 1.31323C11.7553 1.04239 11.307 0.910384 10.6606 0.910384H5.33485Z" fill="#50535A"/>
<path d="M7.99772 12.5178C7.58805 12.5178 7.32176 12.734 7.32176 13.196C7.32176 13.4191 7.38321 13.5829 7.49246 13.6944C7.61081 13.8151 7.78378 13.8742 7.99772 13.8742C8.21166 13.8742 8.38464 13.8151 8.50299 13.6944C8.61223 13.5829 8.67368 13.4168 8.67368 13.196C8.67141 12.734 8.40739 12.5178 7.99772 12.5178Z" fill="#50535A"/>
<path d="M7.99772 14.1041C7.72006 14.1041 7.48791 14.0176 7.33087 13.8561C7.17383 13.6945 7.09644 13.4737 7.09644 13.1983C7.09644 12.6316 7.43329 12.2925 8 12.2925C8.56671 12.2925 8.90128 12.6316 8.90128 13.1983C8.90128 13.476 8.82162 13.6967 8.66686 13.8561C8.51209 14.0154 8.27539 14.1041 7.99772 14.1041ZM7.99772 12.7477C7.68819 12.7477 7.54936 12.8865 7.54936 13.1983C7.54936 13.3531 7.58577 13.4669 7.65405 13.5374C7.72233 13.608 7.84068 13.6489 7.99545 13.6489C8.15021 13.6489 8.26629 13.6125 8.33684 13.5374C8.4074 13.4623 8.44154 13.3508 8.44154 13.1983C8.44381 12.8865 8.30725 12.7454 7.99772 12.7477Z" fill="#50535A"/>
</svg>
