<svg width="24" height="24" viewBox="0 0 24 24" fill="none" xmlns="http://www.w3.org/2000/svg">
<path d="M6.94834 14.6738C5.17565 14.6738 3.78779 14.2041 2.83023 13.2799C1.83631 12.3193 1.33026 10.8951 1.33026 9.05269C1.33026 7.2103 1.83631 5.78608 2.83023 4.82549C3.78779 3.90127 5.17565 3.43158 6.94834 3.43158C8.83922 3.43158 10.218 3.88915 11.1634 4.83155C12.1089 5.77396 12.5695 7.15576 12.5695 9.05269C12.5695 10.8981 12.0634 12.3193 11.0695 13.2799C10.1089 14.2041 8.72407 14.6738 6.94834 14.6738ZM6.94834 4.64368C3.98476 4.64368 2.54236 6.08608 2.54236 9.05269C2.54236 12.0193 3.98476 13.4617 6.94834 13.4617C9.91193 13.4617 11.3543 12.0193 11.3543 9.05269C11.3543 7.49514 11.0119 6.39516 10.3059 5.68912C9.59981 4.98307 8.50286 4.64368 6.94834 4.64368Z" fill="#019DF4"/>
<path d="M5.28788 11.2071C5.20909 11.1526 5.17273 11.092 5.17273 10.998C5.17576 10.8768 5.27576 10.7798 5.39697 10.7798C5.45454 10.7829 5.51212 10.801 5.5606 10.8344C5.90908 11.0677 6.39695 11.298 6.96361 11.298C7.80905 11.298 8.32722 10.8647 8.32722 10.2223C8.32722 9.69501 8.03328 9.32532 7.0636 9.20108L6.81512 9.17077C5.78484 9.03744 5.30606 8.54351 5.30606 7.77686C5.30606 6.86172 5.95756 6.2981 6.95452 6.2981C7.51208 6.2981 7.9848 6.44658 8.30904 6.64657C8.40904 6.70718 8.45752 6.78597 8.45752 6.86172C8.45752 6.97687 8.36661 7.07081 8.25146 7.07081H8.24843C8.19389 7.06778 8.14237 7.05263 8.09389 7.02536C7.73632 6.83142 7.36663 6.71627 6.93936 6.71627C6.17271 6.71627 5.74545 7.14354 5.74545 7.73746C5.74545 8.27988 6.07877 8.62836 6.98482 8.74351L7.22421 8.77381C8.26964 8.90411 8.7666 9.40107 8.7666 10.192C8.7666 11.0829 8.13025 11.7192 6.90906 11.7192C6.32725 11.7132 5.76363 11.5344 5.28788 11.2071Z" fill="#019DF4"/>
<path d="M6.90582 11.9466C6.28159 11.9405 5.67251 11.7496 5.15737 11.392C5.01495 11.292 4.94525 11.1587 4.94525 10.9981C4.94828 10.7496 5.14828 10.5527 5.39676 10.5527C5.49979 10.5557 5.59979 10.586 5.68463 10.6436C6.10887 10.9254 6.53916 11.0708 6.96037 11.0708C7.66036 11.0708 8.09671 10.7466 8.09671 10.2224C8.09671 9.87995 7.96641 9.54359 7.03309 9.42541L6.78461 9.39511C5.37252 9.21329 5.07555 8.41331 5.07555 7.77695C5.07555 6.74061 5.8119 6.07092 6.95128 6.07092C7.50278 6.07092 8.02701 6.20728 8.42701 6.45273C8.64822 6.5891 8.68155 6.76788 8.68155 6.86182C8.68155 7.10121 8.48458 7.29817 8.24519 7.29817C8.15429 7.29514 8.06641 7.2709 7.98762 7.22848L7.98156 7.22545C7.62702 7.03151 7.29673 6.94363 6.93613 6.94363C6.33311 6.94363 5.96948 7.2406 5.96948 7.73756C5.96948 7.94665 5.96948 8.38603 7.01188 8.51936L7.25127 8.54967C8.68761 8.73148 8.99063 9.54359 8.99063 10.1921C8.99063 10.7102 8.79973 11.1496 8.44216 11.4617C8.07853 11.7769 7.54521 11.9466 6.90582 11.9466ZM5.41797 11.0223C5.54827 11.1133 5.68463 11.189 5.83008 11.2557C5.69372 11.189 5.56039 11.1133 5.43312 11.0254C5.42403 11.0193 5.41494 11.0163 5.40585 11.0133C5.40888 11.0133 5.41191 11.0163 5.41797 11.0223ZM7.45733 9.04057C7.9452 9.15572 8.26944 9.36783 8.43004 9.67692C8.22701 9.25874 7.78156 9.10723 7.45733 9.04057ZM5.59069 8.17392C5.71493 8.53452 6.02705 8.77087 6.53613 8.88905C6.03917 8.76178 5.72403 8.52542 5.59069 8.17392Z" fill="#019DF4"/>
<path d="M6.94837 12.7647C6.69686 12.7647 6.49384 12.5617 6.49384 12.3102V5.6012C6.49384 5.34969 6.69686 5.14667 6.94837 5.14667C7.19988 5.14667 7.40291 5.34969 7.40291 5.6012V12.3102C7.40291 12.5587 7.19988 12.7647 6.94837 12.7647Z" fill="#019DF4"/>
<path d="M14.6907 22.6585H7.61814C7.22118 22.6585 6.90603 22.5434 6.6818 22.3131C6.45756 22.0828 6.34241 21.7706 6.34241 21.3737V14.0677C6.34241 13.7344 6.61513 13.4617 6.94846 13.4617C7.28178 13.4617 7.55451 13.7344 7.55451 14.0677V21.3767C7.55451 21.4009 7.55451 21.4222 7.55754 21.4464C7.57269 21.4464 7.5939 21.4494 7.62117 21.4494H21.424V21.41V7.83452L16.1513 2.5437C13.1423 2.5437 8.37267 2.5437 7.61814 2.54673C7.5939 2.54673 7.57269 2.54673 7.55754 2.54976C7.55754 2.56492 7.55451 2.58007 7.55451 2.60431V4.04065C7.55451 4.37397 7.28178 4.6467 6.94846 4.6467C6.61513 4.6467 6.34241 4.37397 6.34241 4.04065V2.60431C6.34241 1.8225 6.83028 1.33766 7.61511 1.33766C8.39389 1.3316 13.418 1.3316 16.4028 1.3316C16.5634 1.3316 16.718 1.39524 16.8331 1.51039L22.4633 7.15574C22.5755 7.26786 22.6391 7.42241 22.6391 7.58301V21.41C22.6391 22.1797 22.1603 22.6585 21.3906 22.6615C20.9815 22.6585 17.8634 22.6585 14.6907 22.6585ZM19.3573 18.8252H10.4938C10.1605 18.8252 9.8878 18.5525 9.8878 18.2192C9.8878 17.8859 10.1605 17.6131 10.4938 17.6131H19.3573C19.6907 17.6131 19.9634 17.8859 19.9634 18.2192C19.9634 18.5525 19.6937 18.8252 19.3573 18.8252ZM19.3573 15.2798H11.6756C11.3423 15.2798 11.0696 15.0071 11.0696 14.6738C11.0696 14.3405 11.3423 14.0677 11.6756 14.0677H19.3573C19.6907 14.0677 19.9634 14.3405 19.9634 14.6738C19.9634 15.0071 19.6937 15.2798 19.3573 15.2798ZM19.3573 11.1436H14.0392C13.7059 11.1436 13.4332 10.8708 13.4332 10.5375C13.4332 10.2042 13.7059 9.93145 14.0392 9.93145H19.3573C19.6907 9.93145 19.9634 10.2042 19.9634 10.5375C19.9634 10.8708 19.6937 11.1436 19.3573 11.1436Z" fill="#019DF4"/>
<path d="M22.033 8.1889H18.5906C17.6634 8.1889 16.9149 7.83739 16.427 7.17376C16.0119 6.61014 15.7998 5.85257 15.7968 4.92532V1.94052C15.7968 1.6072 16.0695 1.33447 16.4028 1.33447C16.5634 1.33447 16.7179 1.39811 16.8301 1.51023L22.4603 7.15558C22.6966 7.39194 22.6966 7.77678 22.4603 8.01314C22.3482 8.12526 22.1936 8.1889 22.033 8.1889ZM17.0089 3.40413V4.91926C17.0089 5.57682 17.1452 6.10712 17.4028 6.45256C17.6604 6.79801 18.0482 6.97377 18.5906 6.97377H20.5724L17.0089 3.40413Z" fill="#019DF4"/>
</svg>
